G04 ================== begin FILE IDENTIFICATION RECORD ==================*
G04 Layout Name:  PROIECT-PCB-v2.brd*
G04 Film Name:    BOTTOM*
G04 File Format:  Gerber RS274X*
G04 File Origin:  Cadence Allegro 17.2-S025*
G04 Origin Date:  Sun Dec 25 16:22:42 2022*
G04 *
G04 Layer:  ETCH/BOTTOM*
G04 Layer:  PIN/BOTTOM*
G04 Layer:  VIA CLASS/BOTTOM*
G04 *
G04 Offset:    (0.00 0.00)*
G04 Mirror:    No*
G04 Mode:      Positive*
G04 Rotation:  0*
G04 FullContactRelief:  No*
G04 UndefLineWidth:     0.00*
G04 ================== end FILE IDENTIFICATION RECORD ====================*
%FSLAX25Y25*MOIN*%
%IR0*IPPOS*OFA0.00000B0.00000*MIA0B0*SFA1.00000B1.00000*%
%ADD10C,.024*%
%ADD11C,.025*%
%ADD12C,.018*%
%ADD13C,.028*%
G75*
%LPD*%
G75*
G36*
G01X35282Y87397D02*
G02X35965Y87680I400J0D01*
G01X37947Y85698D01*
X40286D01*
G03X40328Y90323I1214J2302D01*
G01X40285Y90302D01*
X39853D01*
X38802Y91353D01*
Y106271D01*
G02X39484Y106554I400J0D01*
G01X44198Y101840D01*
Y94500D01*
G03X49802I2802J0D01*
G01Y104160D01*
X41802Y112160D01*
Y116179D01*
X37679Y120302D01*
X27102D01*
Y121297D01*
X42570Y136765D01*
G02X43200Y136681I283J-283D01*
G03X43625Y136125I2301J1318D01*
G01X49170Y130580D01*
X69330D01*
X71516Y132766D01*
G02X72198Y132483I282J-283D01*
G01Y87052D01*
X77902Y81348D01*
X82402D01*
X83348Y80402D01*
Y63098D01*
X81902Y61652D01*
X78000D01*
G03Y56348I0J-2652D01*
G01X84098D01*
X88652Y60902D01*
Y82598D01*
X84598Y86652D01*
X80098D01*
X77502Y89248D01*
Y133288D01*
X77562Y133348D01*
X80000D01*
G03Y138652I0J2652D01*
G01X75366D01*
X73101Y136387D01*
G02X72449Y136516I-283J283D01*
G03X67453Y136238I-2449J-1016D01*
G01X67439Y136189D01*
X67134Y135884D01*
X51366D01*
X47375Y139875D01*
G03X46819Y140300I-1874J-1876D01*
G02X46735Y140930I199J347D01*
G01X53003Y147198D01*
X79900D01*
G02X80287Y146699I0J-400D01*
G03X83000Y143198I2713J-699D01*
G01X84940D01*
X92090Y136048D01*
X89198Y133156D01*
Y96840D01*
X92840Y93198D01*
X105840D01*
X106203Y92835D01*
X106209Y92762D01*
G03X111802Y93000I2791J238D01*
G01Y95160D01*
X108160Y98802D01*
X102575D01*
G02X102305Y99497I0J400D01*
G01X134982Y129348D01*
X139500D01*
G03Y134652I0J2652D01*
G01X132924D01*
X98007Y102753D01*
G03X97534Y99410I1788J-1958D01*
G02X97193Y98802I-341J-208D01*
G01X95160D01*
X94802Y99160D01*
Y130836D01*
X96052Y132086D01*
X101504Y126634D01*
X119860D01*
X124302Y131076D01*
Y135500D01*
G03X118698I-2802J0D01*
G01Y133396D01*
X117540Y132238D01*
X108434D01*
G02X108035Y132638I1J400D01*
G03X107918Y132920I-400J-1D01*
G01X106198Y134640D01*
Y142263D01*
G03Y145737I-2198J1737D01*
G01Y146840D01*
X105840Y147198D01*
X104764D01*
X100646Y151316D01*
G02X100928Y151999I283J283D01*
G01X151999D01*
Y8001D01*
X8001D01*
Y151999D01*
X48915D01*
G02X49197Y151316I-1J-400D01*
G01X21498Y123617D01*
Y123147D01*
G02X20819Y122861I-400J0D01*
G03X16698Y119786I-1820J-1860D01*
G01Y113953D01*
X15698Y112953D01*
Y102597D01*
X23697Y94598D01*
X26786D01*
G03X29109Y94546I1214J2302D01*
G02X29680Y94185I171J-362D01*
G01Y59641D01*
X19198Y49160D01*
Y30374D01*
G03X20019Y28393I2800J0D01*
G01X32456Y15956D01*
G03X36418Y19918I1981J1981D01*
G01X24802Y31534D01*
Y46840D01*
X35282Y57321D01*
Y87397D01*
G37*
%LPC*%
G75*
G36*
G01X53348Y37902D02*
Y59828D01*
X53175Y59851D01*
G02X53520Y65132I345J2629D01*
G01X54520D01*
G02X56395Y64355I0J-2651D01*
G01X58652Y62098D01*
Y40098D01*
X59098Y39652D01*
X68598D01*
X72652Y35598D01*
Y26000D01*
G02X67348I-2652J0D01*
G01Y33402D01*
X66402Y34348D01*
X56902D01*
X53348Y37902D01*
G37*
G36*
G01X137302Y107747D02*
Y98214D01*
G02X132698I-2302J-1214D01*
G01Y109953D01*
X133514Y110768D01*
X133528Y110814D01*
G02X137302Y107747I2472J-814D01*
G37*
G36*
G01X101848Y26000D02*
Y27452D01*
X81952Y47348D01*
X78500D01*
G02Y52652I0J2652D01*
G01X84148D01*
X107152Y29648D01*
Y26000D01*
G02X101848I-2652J0D01*
G37*
G36*
G01X138652Y120000D02*
Y117902D01*
X129652Y108902D01*
Y33902D01*
X125344Y29594D01*
X109246D01*
G02Y34898I0J2652D01*
G01X123148D01*
X124348Y36098D01*
Y111098D01*
X133349Y120099D01*
X133354Y120174D01*
G02X138652Y120000I2646J-174D01*
G37*
%LPD*%
G75*
G54D10*
X22000Y31000D03*
X34437Y17937D03*
X41500Y88000D03*
X25500Y92000D03*
X28500Y107500D03*
X29000Y117500D03*
X21500Y105000D03*
X28000Y96900D03*
X19000Y121000D03*
X70000Y26000D03*
X53520Y62480D03*
X66000Y89000D03*
X64500Y117000D03*
X47000Y94500D03*
X70000Y135500D03*
X45500Y138000D03*
X61000Y141000D03*
X98500Y26500D03*
X78500Y50000D03*
X78000Y59000D03*
X99795Y100795D03*
X98063Y122063D03*
X80000Y136000D03*
X83000Y146000D03*
X104500Y26000D03*
X109246Y32246D03*
X109000Y93000D03*
X121500Y135500D03*
X104000Y144000D03*
X136000Y120000D03*
Y110000D03*
X135000Y97000D03*
X139500Y132000D03*
G54D11*
G01X53520Y62480D02*
X54520D01*
X56000Y61000D01*
Y39000D01*
X58000Y37000D01*
X67500D01*
X70000Y34500D01*
Y26000D01*
G01X45500Y138000D02*
X50268Y133232D01*
X68232D01*
X70000Y135000D01*
Y135500D01*
G01X104500Y26000D02*
Y28550D01*
X83050Y50000D01*
X78500D01*
G01X80000Y136000D02*
X76464D01*
X74850Y134386D01*
Y88150D01*
X79000Y84000D01*
X83500D01*
X86000Y81500D01*
Y62000D01*
X83000Y59000D01*
X78000D01*
G01X139500Y132000D02*
X133953D01*
X99795Y100795D01*
G01X136000Y120000D02*
Y119000D01*
X127000Y110000D01*
Y35000D01*
X124246Y32246D01*
X109246D01*
G54D12*
G01X41500Y88000D02*
X38900D01*
X36500Y90400D01*
Y107000D01*
X33227Y110273D01*
X29773D01*
X28500Y109000D01*
Y107500D01*
G01X28000Y96900D02*
X24650D01*
X18000Y103550D01*
Y112000D01*
X19000Y113000D01*
Y121000D01*
G01X135000Y97000D02*
Y109000D01*
X136000Y110000D01*
G54D13*
G01X21500Y105000D02*
X23000D01*
X27056Y101500D01*
X30500D01*
X32481Y99519D01*
Y58481D01*
X22000Y48000D01*
Y31000D01*
G01X34437Y17937D02*
X22000Y30374D01*
Y31000D01*
G01X29000Y117500D02*
X36519D01*
X39000Y115019D01*
Y111000D01*
X47000Y103000D01*
Y94500D01*
G01X104000Y144000D02*
X98000Y150000D01*
X51843D01*
X24300Y122457D01*
Y116908D01*
G01D02*
X22500Y115108D01*
Y108500D01*
X21500Y107500D01*
Y105000D01*
G01X29000Y117500D02*
X24892D01*
X24300Y116908D01*
G01X96052Y136048D02*
X92000Y131996D01*
Y98000D01*
X94000Y96000D01*
X107000D01*
X109000Y94000D01*
Y93000D01*
G01X83000Y146000D02*
X86100D01*
X96052Y136048D01*
G01X121500Y135500D02*
Y132236D01*
X118700Y129436D01*
X102664D01*
X96052Y136048D01*
M02*
