M48
INCH,TZ
T01C.013
;LEADER: 12 
;HEADER: 
;CODE  : ASCII 
;FILE  : PROIECT-PCB-v2-1-2.drl for  ... layers TOP and BOTTOM
;DESIGN: PROIECT-PCB-v2.brd
;T01 Holesize 1. = 13.000000 Tolerance = +0.000000/-0.000000 PLATED MILS Quantity = 33
%
G90
T01
X19000Y121000
X28000Y96900
X135000Y97000
X136000Y110000
X34437Y17937
X22000Y31000
X21500Y105000
X29000Y117500
X47000Y94500
X104000Y144000
X83000Y146000
X109000Y93000
X121500Y135500
X98500Y26500
X98063Y122063
X64500Y117000
X61000Y141000
X25500Y92000
X66000Y89000
X136000Y120000
X109246Y32246
X70000Y26000
X53520Y62480
X28500Y107500
X41500Y88000
X139500Y132000
X99795Y100795
X45500Y138000
X70000Y135500
X78000Y59000
X80000Y136000
X104500Y26000
X78500Y50000
M30
