G04 ================== begin FILE IDENTIFICATION RECORD ==================*
G04 Layout Name:  PROIECT-PCB-v2.brd*
G04 Film Name:    FAB*
G04 File Format:  Gerber RS274X*
G04 File Origin:  Cadence Allegro 17.2-S025*
G04 Origin Date:  Sun Dec 25 16:22:42 2022*
G04 *
G04 Layer:  MANUFACTURING/NCDRILL_FIGURE*
G04 Layer:  MANUFACTURING/XSECTION_CHART*
G04 Layer:  MANUFACTURING/NCLEGEND-1-2*
G04 Layer:  BOARD GEOMETRY/OUTLINE*
G04 Layer:  BOARD GEOMETRY/DIMENSION*
G04 *
G04 Offset:    (0.00 0.00)*
G04 Mirror:    No*
G04 Mode:      Positive*
G04 Rotation:  0*
G04 FullContactRelief:  No*
G04 UndefLineWidth:     5.00*
G04 ================== end FILE IDENTIFICATION RECORD ====================*
%FSLAX25Y25*MOIN*%
%IR0*IPPOS*OFA0.00000B0.00000*MIA0B0*SFA1.00000B1.00000*%
%AMMACRO10*
1,1,.005,.025,0.0*
20,1,.005,.025,0.0,.02462,-.004341,0.0*
1,1,.005,.02462,-.004341*
20,1,.005,.02462,-.004341,.023492,-.008551,0.0*
1,1,.005,.023492,-.008551*
20,1,.005,.023492,-.008551,.021651,-.0125,0.0*
1,1,.005,.021651,-.0125*
20,1,.005,.021651,-.0125,.019151,-.01607,0.0*
1,1,.005,.019151,-.01607*
20,1,.005,.019151,-.01607,.01607,-.019151,0.0*
1,1,.005,.01607,-.019151*
20,1,.005,.01607,-.019151,.0125,-.021651,0.0*
1,1,.005,.0125,-.021651*
20,1,.005,.0125,-.021651,.008551,-.023492,0.0*
1,1,.005,.008551,-.023492*
20,1,.005,.008551,-.023492,.004341,-.02462,0.0*
1,1,.005,.004341,-.02462*
20,1,.005,.004341,-.02462,0.0,-.025,0.0*
1,1,.005,0.0,-.025*
20,1,.005,0.0,-.025,-.004341,-.02462,0.0*
1,1,.005,-.004341,-.02462*
20,1,.005,-.004341,-.02462,-.008551,-.023492,0.0*
1,1,.005,-.008551,-.023492*
20,1,.005,-.008551,-.023492,-.0125,-.021651,0.0*
1,1,.005,-.0125,-.021651*
20,1,.005,-.0125,-.021651,-.01607,-.019151,0.0*
1,1,.005,-.01607,-.019151*
20,1,.005,-.01607,-.019151,-.019151,-.01607,0.0*
1,1,.005,-.019151,-.01607*
20,1,.005,-.019151,-.01607,-.021651,-.0125,0.0*
1,1,.005,-.021651,-.0125*
20,1,.005,-.021651,-.0125,-.023492,-.008551,0.0*
1,1,.005,-.023492,-.008551*
20,1,.005,-.023492,-.008551,-.02462,-.004341,0.0*
1,1,.005,-.02462,-.004341*
20,1,.005,-.02462,-.004341,-.025,0.0,0.0*
1,1,.005,-.025,0.0*
20,1,.005,-.025,0.0,-.02462,.004341,0.0*
1,1,.005,-.02462,.004341*
20,1,.005,-.02462,.004341,-.023492,.008551,0.0*
1,1,.005,-.023492,.008551*
20,1,.005,-.023492,.008551,-.021651,.0125,0.0*
1,1,.005,-.021651,.0125*
20,1,.005,-.021651,.0125,-.019151,.01607,0.0*
1,1,.005,-.019151,.01607*
20,1,.005,-.019151,.01607,-.01607,.019151,0.0*
1,1,.005,-.01607,.019151*
20,1,.005,-.01607,.019151,-.0125,.021651,0.0*
1,1,.005,-.0125,.021651*
20,1,.005,-.0125,.021651,-.008551,.023492,0.0*
1,1,.005,-.008551,.023492*
20,1,.005,-.008551,.023492,-.004341,.02462,0.0*
1,1,.005,-.004341,.02462*
20,1,.005,-.004341,.02462,0.0,.025,0.0*
1,1,.005,0.0,.025*
20,1,.005,0.0,.025,.004341,.02462,0.0*
1,1,.005,.004341,.02462*
20,1,.005,.004341,.02462,.008551,.023492,0.0*
1,1,.005,.008551,.023492*
20,1,.005,.008551,.023492,.0125,.021651,0.0*
1,1,.005,.0125,.021651*
20,1,.005,.0125,.021651,.01607,.019151,0.0*
1,1,.005,.01607,.019151*
20,1,.005,.01607,.019151,.019151,.01607,0.0*
1,1,.005,.019151,.01607*
20,1,.005,.019151,.01607,.021651,.0125,0.0*
1,1,.005,.021651,.0125*
20,1,.005,.021651,.0125,.023492,.008551,0.0*
1,1,.005,.023492,.008551*
20,1,.005,.023492,.008551,.02462,.004341,0.0*
1,1,.005,.02462,.004341*
20,1,.005,.02462,.004341,.025,0.0,0.0*
1,1,.005,.025,0.0*
1,1,.005,.0125,0.0*
20,1,.005,.0125,0.0,-.0125,0.0,0.0*
1,1,.005,-.0125,0.0*
1,1,.005,0.0,.0125*
20,1,.005,0.0,.0125,0.0,-.0125,0.0*
1,1,.005,0.0,-.0125*
%
%ADD10MACRO10*%
%ADD11C,.003*%
%ADD12C,.005*%
G75*
%LPD*%
G75*
G36*
G01X-95300Y199353D02*
Y197044D01*
X-92800D01*
Y3663D01*
X-95300D01*
Y1354D01*
X-80300D01*
Y3663D01*
X-82800D01*
Y197044D01*
X-80300D01*
Y199353D01*
X-95300D01*
G37*
G36*
G01X-115300Y1355D02*
Y3664D01*
X-55300D01*
Y1355D01*
X-115300D01*
G37*
G36*
G01Y197044D02*
Y199353D01*
X-55300D01*
Y197044D01*
X-115300D01*
G37*
G54D10*
X-114600Y-59250D03*
X22000Y31000D03*
X34437Y17937D03*
X41500Y88000D03*
X25500Y92000D03*
X28500Y107500D03*
X29000Y117500D03*
X21500Y105000D03*
X28000Y96900D03*
X19000Y121000D03*
X70000Y26000D03*
X53520Y62480D03*
X66000Y89000D03*
X64500Y117000D03*
X47000Y94500D03*
X70000Y135500D03*
X45500Y138000D03*
X61000Y141000D03*
X98500Y26500D03*
X78500Y50000D03*
X78000Y59000D03*
X99795Y100795D03*
X98063Y122063D03*
X80000Y136000D03*
X83000Y146000D03*
X104500Y26000D03*
X109246Y32246D03*
X109000Y93000D03*
X121500Y135500D03*
X104000Y144000D03*
X136000Y120000D03*
Y110000D03*
X135000Y97000D03*
X139500Y132000D03*
G54D11*
G01X-168367Y-34313D02*
Y-36313D01*
X-167033D01*
G01X-165600D02*
Y-34313D01*
X-166000Y-34713D01*
G01Y-36313D02*
X-165200D01*
G01X-161400Y-34313D02*
Y-36313D01*
G01X-162167Y-34313D02*
X-160633D01*
G01X-159300Y-36313D02*
X-159567Y-36280D01*
X-159800Y-36146D01*
X-160000Y-35946D01*
X-160133Y-35713D01*
X-160200Y-35446D01*
Y-35180D01*
X-160133Y-34913D01*
X-160000Y-34680D01*
X-159800Y-34480D01*
X-159567Y-34346D01*
X-159300Y-34313D01*
X-159033Y-34346D01*
X-158800Y-34480D01*
X-158600Y-34680D01*
X-158467Y-34913D01*
X-158400Y-35180D01*
Y-35446D01*
X-158467Y-35713D01*
X-158600Y-35946D01*
X-158800Y-36146D01*
X-159033Y-36280D01*
X-159300Y-36313D01*
G01X-157867D02*
Y-34313D01*
X-157067D01*
X-156800Y-34413D01*
X-156600Y-34646D01*
X-156533Y-34913D01*
X-156600Y-35180D01*
X-156767Y-35380D01*
X-157067Y-35480D01*
X-157867D01*
G01X-152267Y-34480D02*
X-152467Y-34380D01*
X-152700Y-34313D01*
X-152967D01*
X-153267Y-34413D01*
X-153500Y-34580D01*
X-153667Y-34780D01*
X-153800Y-35113D01*
X-153833Y-35413D01*
X-153767Y-35713D01*
X-153667Y-35913D01*
X-153467Y-36113D01*
X-153233Y-36246D01*
X-153000Y-36313D01*
X-152767D01*
X-152533Y-36246D01*
X-152333Y-36146D01*
X-152167Y-36013D01*
G01X-150900Y-36313D02*
X-151167Y-36280D01*
X-151400Y-36146D01*
X-151600Y-35946D01*
X-151733Y-35713D01*
X-151800Y-35446D01*
Y-35180D01*
X-151733Y-34913D01*
X-151600Y-34680D01*
X-151400Y-34480D01*
X-151167Y-34346D01*
X-150900Y-34313D01*
X-150633Y-34346D01*
X-150400Y-34480D01*
X-150200Y-34680D01*
X-150067Y-34913D01*
X-150000Y-35180D01*
Y-35446D01*
X-150067Y-35713D01*
X-150200Y-35946D01*
X-150400Y-36146D01*
X-150633Y-36280D01*
X-150900Y-36313D01*
G01X-149567D02*
Y-34313D01*
X-148033Y-36313D01*
Y-34313D01*
G01X-147433Y-36313D02*
Y-34313D01*
X-146767D01*
X-146500Y-34413D01*
X-146300Y-34546D01*
X-146133Y-34746D01*
X-146000Y-34980D01*
X-145967Y-35313D01*
X-146000Y-35646D01*
X-146133Y-35880D01*
X-146300Y-36080D01*
X-146500Y-36213D01*
X-146767Y-36313D01*
X-147433D01*
G01X-145333Y-34313D02*
Y-35746D01*
X-145200Y-36046D01*
X-144933Y-36246D01*
X-144600Y-36313D01*
X-144267Y-36246D01*
X-144000Y-36046D01*
X-143867Y-35746D01*
Y-34313D01*
G01X-141767Y-34480D02*
X-141967Y-34380D01*
X-142200Y-34313D01*
X-142467D01*
X-142767Y-34413D01*
X-143000Y-34580D01*
X-143167Y-34780D01*
X-143300Y-35113D01*
X-143333Y-35413D01*
X-143267Y-35713D01*
X-143167Y-35913D01*
X-142967Y-36113D01*
X-142733Y-36246D01*
X-142500Y-36313D01*
X-142267D01*
X-142033Y-36246D01*
X-141833Y-36146D01*
X-141667Y-36013D01*
G01X-140400Y-34313D02*
Y-36313D01*
G01X-141167Y-34313D02*
X-139633D01*
G01X-138300Y-36313D02*
X-138567Y-36280D01*
X-138800Y-36146D01*
X-139000Y-35946D01*
X-139133Y-35713D01*
X-139200Y-35446D01*
Y-35180D01*
X-139133Y-34913D01*
X-139000Y-34680D01*
X-138800Y-34480D01*
X-138567Y-34346D01*
X-138300Y-34313D01*
X-138033Y-34346D01*
X-137800Y-34480D01*
X-137600Y-34680D01*
X-137467Y-34913D01*
X-137400Y-35180D01*
Y-35446D01*
X-137467Y-35713D01*
X-137600Y-35946D01*
X-137800Y-36146D01*
X-138033Y-36280D01*
X-138300Y-36313D01*
G01X-136867D02*
Y-34313D01*
X-136033D01*
X-135767Y-34413D01*
X-135600Y-34546D01*
X-135533Y-34813D01*
X-135600Y-35080D01*
X-135800Y-35246D01*
X-136033Y-35346D01*
X-136867D01*
G01X-136033D02*
X-135533Y-36313D01*
G01X-120483Y-54500D02*
Y-52500D01*
X-119217D01*
G01X-119683Y-53467D02*
X-120483D01*
G01X-118150Y-52500D02*
X-117350D01*
G01X-117750D02*
Y-54500D01*
G01X-118150D02*
X-117350D01*
G01X-115450Y-53500D02*
X-114783D01*
Y-54100D01*
X-114983Y-54300D01*
X-115217Y-54433D01*
X-115550Y-54500D01*
X-115883Y-54433D01*
X-116117Y-54300D01*
X-116317Y-54100D01*
X-116450Y-53867D01*
X-116517Y-53600D01*
Y-53367D01*
X-116450Y-53167D01*
X-116317Y-52933D01*
X-116117Y-52733D01*
X-115917Y-52600D01*
X-115650Y-52500D01*
X-115417D01*
X-115150Y-52567D01*
X-114950Y-52700D01*
G01X-114283Y-52500D02*
Y-53933D01*
X-114150Y-54233D01*
X-113883Y-54433D01*
X-113550Y-54500D01*
X-113217Y-54433D01*
X-112950Y-54233D01*
X-112817Y-53933D01*
Y-52500D01*
G01X-112117Y-54500D02*
Y-52500D01*
X-111283D01*
X-111017Y-52600D01*
X-110850Y-52733D01*
X-110783Y-53000D01*
X-110850Y-53267D01*
X-111050Y-53433D01*
X-111283Y-53533D01*
X-112117D01*
G01X-111283D02*
X-110783Y-54500D01*
G01X-108683D02*
X-110017D01*
Y-52500D01*
X-108683D01*
G01X-109217Y-53467D02*
X-110017D01*
G01X-112283Y-6484D02*
Y-4484D01*
X-111617D01*
X-111350Y-4584D01*
X-111150Y-4717D01*
X-110983Y-4917D01*
X-110850Y-5151D01*
X-110817Y-5484D01*
X-110850Y-5817D01*
X-110983Y-6051D01*
X-111150Y-6251D01*
X-111350Y-6384D01*
X-111617Y-6484D01*
X-112283D01*
G01X-108783D02*
X-110117D01*
Y-4484D01*
X-108783D01*
G01X-109317Y-5451D02*
X-110117D01*
G01X-108050Y-6217D02*
X-107783Y-6384D01*
X-107483Y-6484D01*
X-107217D01*
X-106950Y-6384D01*
X-106750Y-6217D01*
X-106650Y-5984D01*
X-106717Y-5751D01*
X-106883Y-5551D01*
X-107183Y-5417D01*
X-107583Y-5351D01*
X-107817Y-5217D01*
X-107917Y-4984D01*
X-107850Y-4751D01*
X-107683Y-4584D01*
X-107450Y-4484D01*
X-107217D01*
X-106983Y-4551D01*
X-106783Y-4717D01*
G01X-105650Y-4484D02*
X-104850D01*
G01X-105250D02*
Y-6484D01*
G01X-105650D02*
X-104850D01*
G01X-102950Y-5484D02*
X-102283D01*
Y-6084D01*
X-102483Y-6284D01*
X-102717Y-6417D01*
X-103050Y-6484D01*
X-103383Y-6417D01*
X-103617Y-6284D01*
X-103817Y-6084D01*
X-103950Y-5851D01*
X-104017Y-5584D01*
Y-5351D01*
X-103950Y-5151D01*
X-103817Y-4917D01*
X-103617Y-4717D01*
X-103417Y-4584D01*
X-103150Y-4484D01*
X-102917D01*
X-102650Y-4551D01*
X-102450Y-4684D01*
G01X-101817Y-6484D02*
Y-4484D01*
X-100283Y-6484D01*
Y-4484D01*
G01X-96117Y-4651D02*
X-96317Y-4551D01*
X-96550Y-4484D01*
X-96817D01*
X-97117Y-4584D01*
X-97350Y-4751D01*
X-97517Y-4951D01*
X-97650Y-5284D01*
X-97683Y-5584D01*
X-97617Y-5884D01*
X-97517Y-6084D01*
X-97317Y-6284D01*
X-97083Y-6417D01*
X-96850Y-6484D01*
X-96617D01*
X-96383Y-6417D01*
X-96183Y-6317D01*
X-96017Y-6184D01*
G01X-95417Y-6484D02*
Y-4484D01*
X-94583D01*
X-94317Y-4584D01*
X-94150Y-4717D01*
X-94083Y-4984D01*
X-94150Y-5251D01*
X-94350Y-5417D01*
X-94583Y-5517D01*
X-95417D01*
G01X-94583D02*
X-94083Y-6484D01*
G01X-92650D02*
X-92917Y-6451D01*
X-93150Y-6317D01*
X-93350Y-6117D01*
X-93483Y-5884D01*
X-93550Y-5617D01*
Y-5351D01*
X-93483Y-5084D01*
X-93350Y-4851D01*
X-93150Y-4651D01*
X-92917Y-4517D01*
X-92650Y-4484D01*
X-92383Y-4517D01*
X-92150Y-4651D01*
X-91950Y-4851D01*
X-91817Y-5084D01*
X-91750Y-5351D01*
Y-5617D01*
X-91817Y-5884D01*
X-91950Y-6117D01*
X-92150Y-6317D01*
X-92383Y-6451D01*
X-92650Y-6484D01*
G01X-91250Y-6217D02*
X-90983Y-6384D01*
X-90683Y-6484D01*
X-90417D01*
X-90150Y-6384D01*
X-89950Y-6217D01*
X-89850Y-5984D01*
X-89917Y-5751D01*
X-90083Y-5551D01*
X-90383Y-5417D01*
X-90783Y-5351D01*
X-91017Y-5217D01*
X-91117Y-4984D01*
X-91050Y-4751D01*
X-90883Y-4584D01*
X-90650Y-4484D01*
X-90417D01*
X-90183Y-4551D01*
X-89983Y-4717D01*
G01X-89150Y-6217D02*
X-88883Y-6384D01*
X-88583Y-6484D01*
X-88317D01*
X-88050Y-6384D01*
X-87850Y-6217D01*
X-87750Y-5984D01*
X-87817Y-5751D01*
X-87983Y-5551D01*
X-88283Y-5417D01*
X-88683Y-5351D01*
X-88917Y-5217D01*
X-89017Y-4984D01*
X-88950Y-4751D01*
X-88783Y-4584D01*
X-88550Y-4484D01*
X-88317D01*
X-88083Y-4551D01*
X-87883Y-4717D01*
G01X-84950Y-6217D02*
X-84683Y-6384D01*
X-84383Y-6484D01*
X-84117D01*
X-83850Y-6384D01*
X-83650Y-6217D01*
X-83550Y-5984D01*
X-83617Y-5751D01*
X-83783Y-5551D01*
X-84083Y-5417D01*
X-84483Y-5351D01*
X-84717Y-5217D01*
X-84817Y-4984D01*
X-84750Y-4751D01*
X-84583Y-4584D01*
X-84350Y-4484D01*
X-84117D01*
X-83883Y-4551D01*
X-83683Y-4717D01*
G01X-81483Y-6484D02*
X-82817D01*
Y-4484D01*
X-81483D01*
G01X-82017Y-5451D02*
X-82817D01*
G01X-79317Y-4651D02*
X-79517Y-4551D01*
X-79750Y-4484D01*
X-80017D01*
X-80317Y-4584D01*
X-80550Y-4751D01*
X-80717Y-4951D01*
X-80850Y-5284D01*
X-80883Y-5584D01*
X-80817Y-5884D01*
X-80717Y-6084D01*
X-80517Y-6284D01*
X-80283Y-6417D01*
X-80050Y-6484D01*
X-79817D01*
X-79583Y-6417D01*
X-79383Y-6317D01*
X-79217Y-6184D01*
G01X-77950Y-4484D02*
Y-6484D01*
G01X-78717Y-4484D02*
X-77183D01*
G01X-76250D02*
X-75450D01*
G01X-75850D02*
Y-6484D01*
G01X-76250D02*
X-75450D01*
G01X-73750D02*
X-74017Y-6451D01*
X-74250Y-6317D01*
X-74450Y-6117D01*
X-74583Y-5884D01*
X-74650Y-5617D01*
Y-5351D01*
X-74583Y-5084D01*
X-74450Y-4851D01*
X-74250Y-4651D01*
X-74017Y-4517D01*
X-73750Y-4484D01*
X-73483Y-4517D01*
X-73250Y-4651D01*
X-73050Y-4851D01*
X-72917Y-5084D01*
X-72850Y-5351D01*
Y-5617D01*
X-72917Y-5884D01*
X-73050Y-6117D01*
X-73250Y-6317D01*
X-73483Y-6451D01*
X-73750Y-6484D01*
G01X-72417D02*
Y-4484D01*
X-70883Y-6484D01*
Y-4484D01*
G01X-66717Y-4651D02*
X-66917Y-4551D01*
X-67150Y-4484D01*
X-67417D01*
X-67717Y-4584D01*
X-67950Y-4751D01*
X-68117Y-4951D01*
X-68250Y-5284D01*
X-68283Y-5584D01*
X-68217Y-5884D01*
X-68117Y-6084D01*
X-67917Y-6284D01*
X-67683Y-6417D01*
X-67450Y-6484D01*
X-67217D01*
X-66983Y-6417D01*
X-66783Y-6317D01*
X-66617Y-6184D01*
G01X-66050Y-6484D02*
Y-4484D01*
G01X-64650D02*
Y-6484D01*
G01Y-5484D02*
X-66050D01*
G01X-64083Y-6484D02*
X-63250Y-4484D01*
X-62417Y-6484D01*
G01X-62717Y-5784D02*
X-63783D01*
G01X-61817Y-6484D02*
Y-4484D01*
X-60983D01*
X-60717Y-4584D01*
X-60550Y-4717D01*
X-60483Y-4984D01*
X-60550Y-5251D01*
X-60750Y-5417D01*
X-60983Y-5517D01*
X-61817D01*
G01X-60983D02*
X-60483Y-6484D01*
G01X-59050Y-4484D02*
Y-6484D01*
G01X-59817Y-4484D02*
X-58283D01*
G01X-113600Y-7151D02*
X-111600D01*
G01X-111500D02*
X-109500D01*
G01X-109400D02*
X-107400D01*
G01X-107300D02*
X-105300D01*
G01X-105200D02*
X-103200D01*
G01X-103100D02*
X-101100D01*
G01X-101000D02*
X-99000D01*
G01X-98900D02*
X-96900D01*
G01X-96800D02*
X-94800D01*
G01X-94700D02*
X-92700D01*
G01X-92600D02*
X-90600D01*
G01X-90500D02*
X-88500D01*
G01X-88400D02*
X-86400D01*
G01X-86300D02*
X-84300D01*
G01X-84200D02*
X-82200D01*
G01X-82100D02*
X-80100D01*
G01X-80000D02*
X-78000D01*
G01X-77900D02*
X-75900D01*
G01X-75800D02*
X-73800D01*
G01X-73700D02*
X-71700D01*
G01X-71600D02*
X-69600D01*
G01X-69500D02*
X-67500D01*
G01X-67400D02*
X-65400D01*
G01X-65300D02*
X-63300D01*
G01X-63200D02*
X-61200D01*
G01X-61100D02*
X-59100D01*
G01X-59000D02*
X-57000D01*
G01X-93500Y-60250D02*
Y-58250D01*
X-93900Y-58650D01*
G01Y-60250D02*
X-93100D01*
G01X-92133Y-59850D02*
X-91933Y-60083D01*
X-91667Y-60217D01*
X-91367Y-60250D01*
X-91100Y-60217D01*
X-90833Y-60050D01*
X-90667Y-59850D01*
X-90633Y-59650D01*
X-90700Y-59417D01*
X-90933Y-59250D01*
X-91167Y-59183D01*
X-91467D01*
G01X-91167D02*
X-90967Y-59083D01*
X-90800Y-58917D01*
X-90733Y-58717D01*
X-90800Y-58517D01*
X-90967Y-58350D01*
X-91267Y-58250D01*
X-91567Y-58283D01*
X-91867Y-58417D01*
G01X-89300Y-60317D02*
X-89367Y-60283D01*
Y-60217D01*
X-89300Y-60183D01*
X-89233Y-60217D01*
Y-60283D01*
X-89300Y-60317D01*
G01X-87200Y-58250D02*
X-87467Y-58317D01*
X-87667Y-58483D01*
X-87800Y-58683D01*
X-87900Y-58950D01*
X-87933Y-59250D01*
X-87900Y-59550D01*
X-87800Y-59817D01*
X-87667Y-60017D01*
X-87467Y-60183D01*
X-87200Y-60250D01*
X-86933Y-60183D01*
X-86733Y-60017D01*
X-86600Y-59817D01*
X-86500Y-59550D01*
X-86467Y-59250D01*
X-86500Y-58950D01*
X-86600Y-58683D01*
X-86733Y-58483D01*
X-86933Y-58317D01*
X-87200Y-58250D01*
G01X-102683Y-50500D02*
X-101850Y-48500D01*
X-101017Y-50500D01*
G01X-101317Y-49800D02*
X-102383D01*
G01X-100417Y-48500D02*
Y-50500D01*
X-99083D01*
G01X-98317Y-48500D02*
Y-50500D01*
X-96983D01*
G01X-94183Y-48500D02*
Y-49933D01*
X-94050Y-50233D01*
X-93783Y-50433D01*
X-93450Y-50500D01*
X-93117Y-50433D01*
X-92850Y-50233D01*
X-92717Y-49933D01*
Y-48500D01*
G01X-92117Y-50500D02*
Y-48500D01*
X-90583Y-50500D01*
Y-48500D01*
G01X-89650D02*
X-88850D01*
G01X-89250D02*
Y-50500D01*
G01X-89650D02*
X-88850D01*
G01X-87150Y-48500D02*
Y-50500D01*
G01X-87917Y-48500D02*
X-86383D01*
G01X-85750Y-50233D02*
X-85483Y-50400D01*
X-85183Y-50500D01*
X-84917D01*
X-84650Y-50400D01*
X-84450Y-50233D01*
X-84350Y-50000D01*
X-84417Y-49767D01*
X-84583Y-49567D01*
X-84883Y-49433D01*
X-85283Y-49367D01*
X-85517Y-49233D01*
X-85617Y-49000D01*
X-85550Y-48767D01*
X-85383Y-48600D01*
X-85150Y-48500D01*
X-84917D01*
X-84683Y-48567D01*
X-84483Y-48733D01*
G01X-81683Y-50500D02*
X-80850Y-48500D01*
X-80017Y-50500D01*
G01X-80317Y-49800D02*
X-81383D01*
G01X-79417Y-50500D02*
Y-48500D01*
X-78583D01*
X-78317Y-48600D01*
X-78150Y-48733D01*
X-78083Y-49000D01*
X-78150Y-49267D01*
X-78350Y-49433D01*
X-78583Y-49533D01*
X-79417D01*
G01X-78583D02*
X-78083Y-50500D01*
G01X-75983D02*
X-77317D01*
Y-48500D01*
X-75983D01*
G01X-76517Y-49467D02*
X-77317D01*
G01X-72850Y-48500D02*
X-72050D01*
G01X-72450D02*
Y-50500D01*
G01X-72850D02*
X-72050D01*
G01X-71117D02*
Y-48500D01*
X-69583Y-50500D01*
Y-48500D01*
G01X-67017Y-50500D02*
Y-48500D01*
X-66150Y-50167D01*
X-65283Y-48500D01*
Y-50500D01*
G01X-64450Y-48500D02*
X-63650D01*
G01X-64050D02*
Y-50500D01*
G01X-64450D02*
X-63650D01*
G01X-62617Y-48500D02*
Y-50500D01*
X-61283D01*
G01X-60550Y-50233D02*
X-60283Y-50400D01*
X-59983Y-50500D01*
X-59717D01*
X-59450Y-50400D01*
X-59250Y-50233D01*
X-59150Y-50000D01*
X-59217Y-49767D01*
X-59383Y-49567D01*
X-59683Y-49433D01*
X-60083Y-49367D01*
X-60317Y-49233D01*
X-60417Y-49000D01*
X-60350Y-48767D01*
X-60183Y-48600D01*
X-59950Y-48500D01*
X-59717D01*
X-59483Y-48567D01*
X-59283Y-48733D01*
G01X-103583Y-54500D02*
Y-52500D01*
X-102317D01*
G01X-102783Y-53467D02*
X-103583D01*
G01X-101250Y-52500D02*
X-100450D01*
G01X-100850D02*
Y-54500D01*
G01X-101250D02*
X-100450D01*
G01X-99517D02*
Y-52500D01*
X-97983Y-54500D01*
Y-52500D01*
G01X-97050D02*
X-96250D01*
G01X-96650D02*
Y-54500D01*
G01X-97050D02*
X-96250D01*
G01X-95250Y-54233D02*
X-94983Y-54400D01*
X-94683Y-54500D01*
X-94417D01*
X-94150Y-54400D01*
X-93950Y-54233D01*
X-93850Y-54000D01*
X-93917Y-53767D01*
X-94083Y-53567D01*
X-94383Y-53433D01*
X-94783Y-53367D01*
X-95017Y-53233D01*
X-95117Y-53000D01*
X-95050Y-52767D01*
X-94883Y-52600D01*
X-94650Y-52500D01*
X-94417D01*
X-94183Y-52567D01*
X-93983Y-52733D01*
G01X-93150Y-54500D02*
Y-52500D01*
G01X-91750D02*
Y-54500D01*
G01Y-53500D02*
X-93150D01*
G01X-89683Y-54500D02*
X-91017D01*
Y-52500D01*
X-89683D01*
G01X-90217Y-53467D02*
X-91017D01*
G01X-88983Y-54500D02*
Y-52500D01*
X-88317D01*
X-88050Y-52600D01*
X-87850Y-52733D01*
X-87683Y-52933D01*
X-87550Y-53167D01*
X-87517Y-53500D01*
X-87550Y-53833D01*
X-87683Y-54067D01*
X-87850Y-54267D01*
X-88050Y-54400D01*
X-88317Y-54500D01*
X-88983D01*
G01X-87150Y-55167D02*
X-85150D01*
G01X-84750Y-54233D02*
X-84483Y-54400D01*
X-84183Y-54500D01*
X-83917D01*
X-83650Y-54400D01*
X-83450Y-54233D01*
X-83350Y-54000D01*
X-83417Y-53767D01*
X-83583Y-53567D01*
X-83883Y-53433D01*
X-84283Y-53367D01*
X-84517Y-53233D01*
X-84617Y-53000D01*
X-84550Y-52767D01*
X-84383Y-52600D01*
X-84150Y-52500D01*
X-83917D01*
X-83683Y-52567D01*
X-83483Y-52733D01*
G01X-82350Y-52500D02*
X-81550D01*
G01X-81950D02*
Y-54500D01*
G01X-82350D02*
X-81550D01*
G01X-80483Y-52500D02*
X-79217D01*
X-80483Y-54500D01*
X-79217D01*
G01X-77083D02*
X-78417D01*
Y-52500D01*
X-77083D01*
G01X-77617Y-53467D02*
X-78417D01*
G01X-107350Y-8084D02*
Y-10084D01*
G01X-108117Y-8084D02*
X-106583D01*
G01X-105250Y-10084D02*
X-105517Y-10051D01*
X-105750Y-9917D01*
X-105950Y-9717D01*
X-106083Y-9484D01*
X-106150Y-9217D01*
Y-8951D01*
X-106083Y-8684D01*
X-105950Y-8451D01*
X-105750Y-8251D01*
X-105517Y-8117D01*
X-105250Y-8084D01*
X-104983Y-8117D01*
X-104750Y-8251D01*
X-104550Y-8451D01*
X-104417Y-8684D01*
X-104350Y-8951D01*
Y-9217D01*
X-104417Y-9484D01*
X-104550Y-9717D01*
X-104750Y-9917D01*
X-104983Y-10051D01*
X-105250Y-10084D01*
G01X-103150Y-8084D02*
Y-10084D01*
G01X-103917Y-8084D02*
X-102383D01*
G01X-101883Y-10084D02*
X-101050Y-8084D01*
X-100217Y-10084D01*
G01X-100517Y-9384D02*
X-101583D01*
G01X-99617Y-8084D02*
Y-10084D01*
X-98283D01*
G01X-94750Y-8084D02*
Y-10084D01*
G01X-95517Y-8084D02*
X-93983D01*
G01X-93350Y-10084D02*
Y-8084D01*
G01X-91950D02*
Y-10084D01*
G01Y-9084D02*
X-93350D01*
G01X-90950Y-8084D02*
X-90150D01*
G01X-90550D02*
Y-10084D01*
G01X-90950D02*
X-90150D01*
G01X-87717Y-8251D02*
X-87917Y-8151D01*
X-88150Y-8084D01*
X-88417D01*
X-88717Y-8184D01*
X-88950Y-8351D01*
X-89117Y-8551D01*
X-89250Y-8884D01*
X-89283Y-9184D01*
X-89217Y-9484D01*
X-89117Y-9684D01*
X-88917Y-9884D01*
X-88683Y-10017D01*
X-88450Y-10084D01*
X-88217D01*
X-87983Y-10017D01*
X-87783Y-9917D01*
X-87617Y-9784D01*
G01X-87083Y-10084D02*
Y-8084D01*
G01X-85817D02*
X-87083Y-9317D01*
G01X-85617Y-10084D02*
X-86517Y-8751D01*
G01X-85017Y-10084D02*
Y-8084D01*
X-83483Y-10084D01*
Y-8084D01*
G01X-81483Y-10084D02*
X-82817D01*
Y-8084D01*
X-81483D01*
G01X-82017Y-9051D02*
X-82817D01*
G01X-80750Y-9817D02*
X-80483Y-9984D01*
X-80183Y-10084D01*
X-79917D01*
X-79650Y-9984D01*
X-79450Y-9817D01*
X-79350Y-9584D01*
X-79417Y-9351D01*
X-79583Y-9151D01*
X-79883Y-9017D01*
X-80283Y-8951D01*
X-80517Y-8817D01*
X-80617Y-8584D01*
X-80550Y-8351D01*
X-80383Y-8184D01*
X-80150Y-8084D01*
X-79917D01*
X-79683Y-8151D01*
X-79483Y-8317D01*
G01X-78650Y-9817D02*
X-78383Y-9984D01*
X-78083Y-10084D01*
X-77817D01*
X-77550Y-9984D01*
X-77350Y-9817D01*
X-77250Y-9584D01*
X-77317Y-9351D01*
X-77483Y-9151D01*
X-77783Y-9017D01*
X-78183Y-8951D01*
X-78417Y-8817D01*
X-78517Y-8584D01*
X-78450Y-8351D01*
X-78283Y-8184D01*
X-78050Y-8084D01*
X-77817D01*
X-77583Y-8151D01*
X-77383Y-8317D01*
G01X-74383Y-9251D02*
X-74150Y-9017D01*
X-73950Y-8884D01*
X-73683Y-8817D01*
X-73450Y-8884D01*
X-73283Y-9017D01*
X-73150Y-9217D01*
X-73117Y-9451D01*
X-73150Y-9651D01*
X-73283Y-9851D01*
X-73483Y-10017D01*
X-73717Y-10084D01*
X-73983Y-10017D01*
X-74217Y-9817D01*
X-74350Y-9517D01*
X-74383Y-9184D01*
X-74317Y-8751D01*
X-74217Y-8517D01*
X-74050Y-8284D01*
X-73817Y-8117D01*
X-73583Y-8084D01*
X-73350Y-8151D01*
X-73183Y-8317D01*
G01X-71650Y-8084D02*
X-71917Y-8151D01*
X-72117Y-8317D01*
X-72250Y-8517D01*
X-72350Y-8784D01*
X-72383Y-9084D01*
X-72350Y-9384D01*
X-72250Y-9651D01*
X-72117Y-9851D01*
X-71917Y-10017D01*
X-71650Y-10084D01*
X-71383Y-10017D01*
X-71183Y-9851D01*
X-71050Y-9651D01*
X-70950Y-9384D01*
X-70917Y-9084D01*
X-70950Y-8784D01*
X-71050Y-8517D01*
X-71183Y-8317D01*
X-71383Y-8151D01*
X-71650Y-8084D01*
G01X-68317Y-10084D02*
Y-8084D01*
X-67450Y-9751D01*
X-66583Y-8084D01*
Y-10084D01*
G01X-65750Y-8084D02*
X-64950D01*
G01X-65350D02*
Y-10084D01*
G01X-65750D02*
X-64950D01*
G01X-63917Y-8084D02*
Y-10084D01*
X-62583D01*
G01X-107833Y-25500D02*
Y-23500D01*
X-107167D01*
X-106900Y-23600D01*
X-106700Y-23733D01*
X-106533Y-23933D01*
X-106400Y-24167D01*
X-106367Y-24500D01*
X-106400Y-24833D01*
X-106533Y-25067D01*
X-106700Y-25267D01*
X-106900Y-25400D01*
X-107167Y-25500D01*
X-107833D01*
G01X-105667D02*
Y-23500D01*
X-104833D01*
X-104567Y-23600D01*
X-104400Y-23733D01*
X-104333Y-24000D01*
X-104400Y-24267D01*
X-104600Y-24433D01*
X-104833Y-24533D01*
X-105667D01*
G01X-104833D02*
X-104333Y-25500D01*
G01X-103300Y-23500D02*
X-102500D01*
G01X-102900D02*
Y-25500D01*
G01X-103300D02*
X-102500D01*
G01X-101467Y-23500D02*
Y-25500D01*
X-100133D01*
G01X-99367Y-23500D02*
Y-25500D01*
X-98033D01*
G01X-93767Y-23667D02*
X-93967Y-23567D01*
X-94200Y-23500D01*
X-94467D01*
X-94767Y-23600D01*
X-95000Y-23767D01*
X-95167Y-23967D01*
X-95300Y-24300D01*
X-95333Y-24600D01*
X-95267Y-24900D01*
X-95167Y-25100D01*
X-94967Y-25300D01*
X-94733Y-25433D01*
X-94500Y-25500D01*
X-94267D01*
X-94033Y-25433D01*
X-93833Y-25333D01*
X-93667Y-25200D01*
G01X-93100Y-25500D02*
Y-23500D01*
G01X-91700D02*
Y-25500D01*
G01Y-24500D02*
X-93100D01*
G01X-91133Y-25500D02*
X-90300Y-23500D01*
X-89467Y-25500D01*
G01X-89767Y-24800D02*
X-90833D01*
G01X-88867Y-25500D02*
Y-23500D01*
X-88033D01*
X-87767Y-23600D01*
X-87600Y-23733D01*
X-87533Y-24000D01*
X-87600Y-24267D01*
X-87800Y-24433D01*
X-88033Y-24533D01*
X-88867D01*
G01X-88033D02*
X-87533Y-25500D01*
G01X-86100Y-23500D02*
Y-25500D01*
G01X-86867Y-23500D02*
X-85333D01*
G01X-84000Y-25567D02*
X-84067Y-25533D01*
Y-25467D01*
X-84000Y-25433D01*
X-83933Y-25467D01*
Y-25533D01*
X-84000Y-25567D01*
G01Y-24667D02*
X-84067Y-24633D01*
Y-24567D01*
X-84000Y-24533D01*
X-83933Y-24567D01*
Y-24633D01*
X-84000Y-24667D01*
G01X-79800Y-23500D02*
Y-25500D01*
G01X-80567Y-23500D02*
X-79033D01*
G01X-77700Y-25500D02*
X-77967Y-25467D01*
X-78200Y-25333D01*
X-78400Y-25133D01*
X-78533Y-24900D01*
X-78600Y-24633D01*
Y-24367D01*
X-78533Y-24100D01*
X-78400Y-23867D01*
X-78200Y-23667D01*
X-77967Y-23533D01*
X-77700Y-23500D01*
X-77433Y-23533D01*
X-77200Y-23667D01*
X-77000Y-23867D01*
X-76867Y-24100D01*
X-76800Y-24367D01*
Y-24633D01*
X-76867Y-24900D01*
X-77000Y-25133D01*
X-77200Y-25333D01*
X-77433Y-25467D01*
X-77700Y-25500D01*
G01X-76267D02*
Y-23500D01*
X-75467D01*
X-75200Y-23600D01*
X-75000Y-23833D01*
X-74933Y-24100D01*
X-75000Y-24367D01*
X-75167Y-24567D01*
X-75467Y-24667D01*
X-76267D01*
G01X-71400Y-23500D02*
Y-25500D01*
G01X-71867Y-24167D02*
X-70933D01*
G01X-69300Y-25500D02*
X-69500Y-25467D01*
X-69700Y-25333D01*
X-69833Y-25100D01*
X-69900Y-24833D01*
X-69833Y-24567D01*
X-69700Y-24333D01*
X-69500Y-24200D01*
X-69300Y-24167D01*
X-69100Y-24200D01*
X-68900Y-24333D01*
X-68767Y-24567D01*
X-68733Y-24833D01*
X-68767Y-25100D01*
X-68900Y-25333D01*
X-69100Y-25467D01*
X-69300Y-25500D01*
G01X-64833Y-24433D02*
X-64700Y-24333D01*
X-64600Y-24167D01*
X-64533Y-23933D01*
X-64600Y-23733D01*
X-64733Y-23600D01*
X-64967Y-23500D01*
X-65867D01*
Y-25500D01*
X-64767D01*
X-64533Y-25367D01*
X-64400Y-25167D01*
X-64333Y-24933D01*
X-64400Y-24700D01*
X-64600Y-24500D01*
X-64833Y-24433D01*
X-65867D01*
G01X-63000Y-25500D02*
X-63267Y-25467D01*
X-63500Y-25333D01*
X-63700Y-25133D01*
X-63833Y-24900D01*
X-63900Y-24633D01*
Y-24367D01*
X-63833Y-24100D01*
X-63700Y-23867D01*
X-63500Y-23667D01*
X-63267Y-23533D01*
X-63000Y-23500D01*
X-62733Y-23533D01*
X-62500Y-23667D01*
X-62300Y-23867D01*
X-62167Y-24100D01*
X-62100Y-24367D01*
Y-24633D01*
X-62167Y-24900D01*
X-62300Y-25133D01*
X-62500Y-25333D01*
X-62733Y-25467D01*
X-63000Y-25500D01*
G01X-60900Y-23500D02*
Y-25500D01*
G01X-61667Y-23500D02*
X-60133D01*
G01X-58800D02*
Y-25500D01*
G01X-59567Y-23500D02*
X-58033D01*
G01X-56700Y-25500D02*
X-56967Y-25467D01*
X-57200Y-25333D01*
X-57400Y-25133D01*
X-57533Y-24900D01*
X-57600Y-24633D01*
Y-24367D01*
X-57533Y-24100D01*
X-57400Y-23867D01*
X-57200Y-23667D01*
X-56967Y-23533D01*
X-56700Y-23500D01*
X-56433Y-23533D01*
X-56200Y-23667D01*
X-56000Y-23867D01*
X-55867Y-24100D01*
X-55800Y-24367D01*
Y-24633D01*
X-55867Y-24900D01*
X-56000Y-25133D01*
X-56200Y-25333D01*
X-56433Y-25467D01*
X-56700Y-25500D01*
G01X-55467D02*
Y-23500D01*
X-54600Y-25167D01*
X-53733Y-23500D01*
Y-25500D01*
G01X-87800Y202353D02*
X-89800D01*
X-89400Y201953D01*
G01X-87800D02*
Y202753D01*
G01X-88467Y204020D02*
Y204886D01*
G01X-89467Y205920D02*
X-89667Y206120D01*
X-89767Y206353D01*
X-89800Y206620D01*
X-89733Y206953D01*
X-89567Y207186D01*
X-89367Y207253D01*
X-89167Y207220D01*
X-89000Y207086D01*
X-88667Y206420D01*
X-88433Y206120D01*
X-88100Y205920D01*
X-87800Y205853D01*
Y207253D01*
G01X-68867Y-60250D02*
Y-58250D01*
X-68067D01*
X-67800Y-58350D01*
X-67600Y-58583D01*
X-67533Y-58850D01*
X-67600Y-59117D01*
X-67767Y-59317D01*
X-68067Y-59417D01*
X-68867D01*
G01X-66767Y-58250D02*
Y-60250D01*
X-65433D01*
G01X-64833D02*
X-64000Y-58250D01*
X-63167Y-60250D01*
G01X-63467Y-59550D02*
X-64533D01*
G01X-61900Y-58250D02*
Y-60250D01*
G01X-62667Y-58250D02*
X-61133D01*
G01X-59133Y-60250D02*
X-60467D01*
Y-58250D01*
X-59133D01*
G01X-59667Y-59217D02*
X-60467D01*
G01X-58433Y-60250D02*
Y-58250D01*
X-57767D01*
X-57500Y-58350D01*
X-57300Y-58483D01*
X-57133Y-58683D01*
X-57000Y-58917D01*
X-56967Y-59250D01*
X-57000Y-59583D01*
X-57133Y-59817D01*
X-57300Y-60017D01*
X-57500Y-60150D01*
X-57767Y-60250D01*
X-58433D01*
G01X-68867Y-54500D02*
Y-52500D01*
X-68067D01*
X-67800Y-52600D01*
X-67600Y-52833D01*
X-67533Y-53100D01*
X-67600Y-53367D01*
X-67767Y-53567D01*
X-68067Y-53667D01*
X-68867D01*
G01X-66767Y-52500D02*
Y-54500D01*
X-65433D01*
G01X-64833D02*
X-64000Y-52500D01*
X-63167Y-54500D01*
G01X-63467Y-53800D02*
X-64533D01*
G01X-61900Y-52500D02*
Y-54500D01*
G01X-62667Y-52500D02*
X-61133D01*
G01X-59133Y-54500D02*
X-60467D01*
Y-52500D01*
X-59133D01*
G01X-59667Y-53467D02*
X-60467D01*
G01X-58433Y-54500D02*
Y-52500D01*
X-57767D01*
X-57500Y-52600D01*
X-57300Y-52733D01*
X-57133Y-52933D01*
X-57000Y-53167D01*
X-56967Y-53500D01*
X-57000Y-53833D01*
X-57133Y-54067D01*
X-57300Y-54267D01*
X-57500Y-54400D01*
X-57767Y-54500D01*
X-58433D01*
G01X-48733Y-1735D02*
X-47267Y-268D01*
G01X-48000Y-1D02*
Y-2001D01*
G01X-47267Y-1735D02*
X-48733Y-268D01*
G01X-49000Y-1001D02*
X-47000D01*
G01X-42400Y-1401D02*
X-42133Y-1568D01*
X-41833Y-1668D01*
X-41567D01*
X-41300Y-1568D01*
X-41100Y-1401D01*
X-41000Y-1168D01*
X-41067Y-935D01*
X-41233Y-735D01*
X-41533Y-601D01*
X-41933Y-535D01*
X-42167Y-401D01*
X-42267Y-168D01*
X-42200Y65D01*
X-42033Y232D01*
X-41800Y332D01*
X-41567D01*
X-41333Y265D01*
X-41133Y99D01*
G01X-40333Y332D02*
Y-1101D01*
X-40200Y-1401D01*
X-39933Y-1601D01*
X-39600Y-1668D01*
X-39267Y-1601D01*
X-39000Y-1401D01*
X-38867Y-1101D01*
Y332D01*
G01X-38167Y-1668D02*
Y332D01*
X-37333D01*
X-37067Y232D01*
X-36900Y99D01*
X-36833Y-168D01*
X-36900Y-435D01*
X-37100Y-601D01*
X-37333Y-701D01*
X-38167D01*
G01X-37333D02*
X-36833Y-1668D01*
G01X-36033D02*
Y332D01*
X-34767D01*
G01X-35233Y-635D02*
X-36033D01*
G01X-34133Y-1668D02*
X-33300Y332D01*
X-32467Y-1668D01*
G01X-32767Y-968D02*
X-33833D01*
G01X-30467Y165D02*
X-30667Y265D01*
X-30900Y332D01*
X-31167D01*
X-31467Y232D01*
X-31700Y65D01*
X-31867Y-135D01*
X-32000Y-468D01*
X-32033Y-768D01*
X-31967Y-1068D01*
X-31867Y-1268D01*
X-31667Y-1468D01*
X-31433Y-1601D01*
X-31200Y-1668D01*
X-30967D01*
X-30733Y-1601D01*
X-30533Y-1501D01*
X-30367Y-1368D01*
G01X-28433Y-1668D02*
X-29767D01*
Y332D01*
X-28433D01*
G01X-28967Y-635D02*
X-29767D01*
G01X-52867Y2998D02*
Y998D01*
X-51533D01*
G01X-50733Y2665D02*
X-50533Y2865D01*
X-50300Y2965D01*
X-50033Y2998D01*
X-49700Y2931D01*
X-49467Y2765D01*
X-49400Y2565D01*
X-49433Y2365D01*
X-49567Y2198D01*
X-50233Y1865D01*
X-50533Y1631D01*
X-50733Y1298D01*
X-50800Y998D01*
X-49400D01*
G01X-45633Y2065D02*
X-45500Y2165D01*
X-45400Y2331D01*
X-45333Y2565D01*
X-45400Y2765D01*
X-45533Y2898D01*
X-45767Y2998D01*
X-46667D01*
Y998D01*
X-45567D01*
X-45333Y1131D01*
X-45200Y1331D01*
X-45133Y1565D01*
X-45200Y1798D01*
X-45400Y1998D01*
X-45633Y2065D01*
X-46667D01*
G01X-43800Y998D02*
X-44067Y1031D01*
X-44300Y1165D01*
X-44500Y1365D01*
X-44633Y1598D01*
X-44700Y1865D01*
Y2131D01*
X-44633Y2398D01*
X-44500Y2631D01*
X-44300Y2831D01*
X-44067Y2965D01*
X-43800Y2998D01*
X-43533Y2965D01*
X-43300Y2831D01*
X-43100Y2631D01*
X-42967Y2398D01*
X-42900Y2131D01*
Y1865D01*
X-42967Y1598D01*
X-43100Y1365D01*
X-43300Y1165D01*
X-43533Y1031D01*
X-43800Y998D01*
G01X-41700Y2998D02*
Y998D01*
G01X-42467Y2998D02*
X-40933D01*
G01X-39600D02*
Y998D01*
G01X-40367Y2998D02*
X-38833D01*
G01X-37500Y998D02*
X-37767Y1031D01*
X-38000Y1165D01*
X-38200Y1365D01*
X-38333Y1598D01*
X-38400Y1865D01*
Y2131D01*
X-38333Y2398D01*
X-38200Y2631D01*
X-38000Y2831D01*
X-37767Y2965D01*
X-37500Y2998D01*
X-37233Y2965D01*
X-37000Y2831D01*
X-36800Y2631D01*
X-36667Y2398D01*
X-36600Y2131D01*
Y1865D01*
X-36667Y1598D01*
X-36800Y1365D01*
X-37000Y1165D01*
X-37233Y1031D01*
X-37500Y998D01*
G01X-36267D02*
Y2998D01*
X-35400Y1331D01*
X-34533Y2998D01*
Y998D01*
G01X-30467Y2831D02*
X-30667Y2931D01*
X-30900Y2998D01*
X-31167D01*
X-31467Y2898D01*
X-31700Y2731D01*
X-31867Y2531D01*
X-32000Y2198D01*
X-32033Y1898D01*
X-31967Y1598D01*
X-31867Y1398D01*
X-31667Y1198D01*
X-31433Y1065D01*
X-31200Y998D01*
X-30967D01*
X-30733Y1065D01*
X-30533Y1165D01*
X-30367Y1298D01*
G01X-29100Y998D02*
X-29367Y1031D01*
X-29600Y1165D01*
X-29800Y1365D01*
X-29933Y1598D01*
X-30000Y1865D01*
Y2131D01*
X-29933Y2398D01*
X-29800Y2631D01*
X-29600Y2831D01*
X-29367Y2965D01*
X-29100Y2998D01*
X-28833Y2965D01*
X-28600Y2831D01*
X-28400Y2631D01*
X-28267Y2398D01*
X-28200Y2131D01*
Y1865D01*
X-28267Y1598D01*
X-28400Y1365D01*
X-28600Y1165D01*
X-28833Y1031D01*
X-29100Y998D01*
G01X-27767D02*
Y2998D01*
X-26233Y998D01*
Y2998D01*
G01X-25633Y998D02*
Y2998D01*
X-24967D01*
X-24700Y2898D01*
X-24500Y2765D01*
X-24333Y2565D01*
X-24200Y2331D01*
X-24167Y1998D01*
X-24200Y1665D01*
X-24333Y1431D01*
X-24500Y1231D01*
X-24700Y1098D01*
X-24967Y998D01*
X-25633D01*
G01X-23533Y2998D02*
Y1565D01*
X-23400Y1265D01*
X-23133Y1065D01*
X-22800Y998D01*
X-22467Y1065D01*
X-22200Y1265D01*
X-22067Y1565D01*
Y2998D01*
G01X-19967Y2831D02*
X-20167Y2931D01*
X-20400Y2998D01*
X-20667D01*
X-20967Y2898D01*
X-21200Y2731D01*
X-21367Y2531D01*
X-21500Y2198D01*
X-21533Y1898D01*
X-21467Y1598D01*
X-21367Y1398D01*
X-21167Y1198D01*
X-20933Y1065D01*
X-20700Y998D01*
X-20467D01*
X-20233Y1065D01*
X-20033Y1165D01*
X-19867Y1298D01*
G01X-18600Y2998D02*
Y998D01*
G01X-19367Y2998D02*
X-17833D01*
G01X-16500Y998D02*
X-16767Y1031D01*
X-17000Y1165D01*
X-17200Y1365D01*
X-17333Y1598D01*
X-17400Y1865D01*
Y2131D01*
X-17333Y2398D01*
X-17200Y2631D01*
X-17000Y2831D01*
X-16767Y2965D01*
X-16500Y2998D01*
X-16233Y2965D01*
X-16000Y2831D01*
X-15800Y2631D01*
X-15667Y2398D01*
X-15600Y2131D01*
Y1865D01*
X-15667Y1598D01*
X-15800Y1365D01*
X-16000Y1165D01*
X-16233Y1031D01*
X-16500Y998D01*
G01X-15067D02*
Y2998D01*
X-14233D01*
X-13967Y2898D01*
X-13800Y2765D01*
X-13733Y2498D01*
X-13800Y2231D01*
X-14000Y2065D01*
X-14233Y1965D01*
X-15067D01*
G01X-14233D02*
X-13733Y998D01*
G01X-48733Y100287D02*
X-47267Y101754D01*
G01X-48000Y102021D02*
Y100021D01*
G01X-47267Y100287D02*
X-48733Y101754D01*
G01X-49000Y101021D02*
X-47000D01*
G01X-42433Y100354D02*
Y102354D01*
X-41767D01*
X-41500Y102254D01*
X-41300Y102121D01*
X-41133Y101921D01*
X-41000Y101687D01*
X-40967Y101354D01*
X-41000Y101021D01*
X-41133Y100787D01*
X-41300Y100587D01*
X-41500Y100454D01*
X-41767Y100354D01*
X-42433D01*
G01X-40000Y102354D02*
X-39200D01*
G01X-39600D02*
Y100354D01*
G01X-40000D02*
X-39200D01*
G01X-36833D02*
X-38167D01*
Y102354D01*
X-36833D01*
G01X-37367Y101387D02*
X-38167D01*
G01X-36067Y102354D02*
Y100354D01*
X-34733D01*
G01X-32633D02*
X-33967D01*
Y102354D01*
X-32633D01*
G01X-33167Y101387D02*
X-33967D01*
G01X-30467Y102187D02*
X-30667Y102287D01*
X-30900Y102354D01*
X-31167D01*
X-31467Y102254D01*
X-31700Y102087D01*
X-31867Y101887D01*
X-32000Y101554D01*
X-32033Y101254D01*
X-31967Y100954D01*
X-31867Y100754D01*
X-31667Y100554D01*
X-31433Y100421D01*
X-31200Y100354D01*
X-30967D01*
X-30733Y100421D01*
X-30533Y100521D01*
X-30367Y100654D01*
G01X-29100Y102354D02*
Y100354D01*
G01X-29867Y102354D02*
X-28333D01*
G01X-27667Y100354D02*
Y102354D01*
X-26833D01*
X-26567Y102254D01*
X-26400Y102121D01*
X-26333Y101854D01*
X-26400Y101587D01*
X-26600Y101421D01*
X-26833Y101321D01*
X-27667D01*
G01X-26833D02*
X-26333Y100354D01*
G01X-25300Y102354D02*
X-24500D01*
G01X-24900D02*
Y100354D01*
G01X-25300D02*
X-24500D01*
G01X-22067Y102187D02*
X-22267Y102287D01*
X-22500Y102354D01*
X-22767D01*
X-23067Y102254D01*
X-23300Y102087D01*
X-23467Y101887D01*
X-23600Y101554D01*
X-23633Y101254D01*
X-23567Y100954D01*
X-23467Y100754D01*
X-23267Y100554D01*
X-23033Y100421D01*
X-22800Y100354D01*
X-22567D01*
X-22333Y100421D01*
X-22133Y100521D01*
X-21967Y100654D01*
G01X-48733Y199952D02*
X-47267Y201419D01*
G01X-48000Y201686D02*
Y199686D01*
G01X-47267Y199952D02*
X-48733Y201419D01*
G01X-49000Y200686D02*
X-47000D01*
G01X-42400Y200286D02*
X-42133Y200119D01*
X-41833Y200019D01*
X-41567D01*
X-41300Y200119D01*
X-41100Y200286D01*
X-41000Y200519D01*
X-41067Y200752D01*
X-41233Y200952D01*
X-41533Y201086D01*
X-41933Y201152D01*
X-42167Y201286D01*
X-42267Y201519D01*
X-42200Y201752D01*
X-42033Y201919D01*
X-41800Y202019D01*
X-41567D01*
X-41333Y201952D01*
X-41133Y201786D01*
G01X-40333Y202019D02*
Y200586D01*
X-40200Y200286D01*
X-39933Y200086D01*
X-39600Y200019D01*
X-39267Y200086D01*
X-39000Y200286D01*
X-38867Y200586D01*
Y202019D01*
G01X-38167Y200019D02*
Y202019D01*
X-37333D01*
X-37067Y201919D01*
X-36900Y201786D01*
X-36833Y201519D01*
X-36900Y201252D01*
X-37100Y201086D01*
X-37333Y200986D01*
X-38167D01*
G01X-37333D02*
X-36833Y200019D01*
G01X-36033D02*
Y202019D01*
X-34767D01*
G01X-35233Y201052D02*
X-36033D01*
G01X-34133Y200019D02*
X-33300Y202019D01*
X-32467Y200019D01*
G01X-32767Y200719D02*
X-33833D01*
G01X-30467Y201852D02*
X-30667Y201952D01*
X-30900Y202019D01*
X-31167D01*
X-31467Y201919D01*
X-31700Y201752D01*
X-31867Y201552D01*
X-32000Y201219D01*
X-32033Y200919D01*
X-31967Y200619D01*
X-31867Y200419D01*
X-31667Y200219D01*
X-31433Y200086D01*
X-31200Y200019D01*
X-30967D01*
X-30733Y200086D01*
X-30533Y200186D01*
X-30367Y200319D01*
G01X-28433Y200019D02*
X-29767D01*
Y202019D01*
X-28433D01*
G01X-28967Y201052D02*
X-29767D01*
G01X-47833Y-59850D02*
X-47633Y-60083D01*
X-47367Y-60217D01*
X-47067Y-60250D01*
X-46800Y-60217D01*
X-46533Y-60050D01*
X-46367Y-59850D01*
X-46333Y-59650D01*
X-46400Y-59417D01*
X-46633Y-59250D01*
X-46867Y-59183D01*
X-47167D01*
G01X-46867D02*
X-46667Y-59083D01*
X-46500Y-58917D01*
X-46433Y-58717D01*
X-46500Y-58517D01*
X-46667Y-58350D01*
X-46967Y-58250D01*
X-47267Y-58283D01*
X-47567Y-58417D01*
G01X-45733Y-59850D02*
X-45533Y-60083D01*
X-45267Y-60217D01*
X-44967Y-60250D01*
X-44700Y-60217D01*
X-44433Y-60050D01*
X-44267Y-59850D01*
X-44233Y-59650D01*
X-44300Y-59417D01*
X-44533Y-59250D01*
X-44767Y-59183D01*
X-45067D01*
G01X-44767D02*
X-44567Y-59083D01*
X-44400Y-58917D01*
X-44333Y-58717D01*
X-44400Y-58517D01*
X-44567Y-58350D01*
X-44867Y-58250D01*
X-45167Y-58283D01*
X-45467Y-58417D01*
G01X-48150Y-54500D02*
X-48417Y-54467D01*
X-48650Y-54333D01*
X-48850Y-54133D01*
X-48983Y-53900D01*
X-49050Y-53633D01*
Y-53367D01*
X-48983Y-53100D01*
X-48850Y-52867D01*
X-48650Y-52667D01*
X-48417Y-52533D01*
X-48150Y-52500D01*
X-47883Y-52533D01*
X-47650Y-52667D01*
X-47450Y-52867D01*
X-47317Y-53100D01*
X-47250Y-53367D01*
Y-53633D01*
X-47317Y-53900D01*
X-47450Y-54133D01*
X-47650Y-54333D01*
X-47883Y-54467D01*
X-48150Y-54500D01*
G01X-47883Y-53967D02*
X-47483Y-54500D01*
G01X-46050Y-52500D02*
Y-54500D01*
G01X-46817Y-52500D02*
X-45283D01*
G01X-43950Y-54500D02*
Y-53600D01*
X-44617Y-52500D01*
G01X-43283D02*
X-43950Y-53600D01*
G54D12*
G01X0Y0D02*
Y160000D01*
G01X160000Y0D02*
X0D01*
G01Y160000D02*
X160000D01*
G01D02*
Y0D01*
G01X-122000Y-63000D02*
Y-22500D01*
X-39700D01*
Y-63000D01*
X-122000D01*
G01Y-47500D02*
X-39700D01*
G01X-122000Y-51500D02*
X-39700D01*
G01X-122000Y-55500D02*
X-39700D01*
G01X-115300Y3664D02*
Y197044D01*
X-55300D01*
Y3664D01*
X-115300D01*
G01X-107200Y-51500D02*
Y-63000D01*
G01X-73500Y-51500D02*
Y-63000D01*
G01X-52400Y-51500D02*
Y-63000D01*
M02*
