G04 ================== begin FILE IDENTIFICATION RECORD ==================*
G04 Layout Name:  PROIECT-PCB-v2.brd*
G04 Film Name:    SPTOP*
G04 File Format:  Gerber RS274X*
G04 File Origin:  Cadence Allegro 17.2-S025*
G04 Origin Date:  Sun Dec 25 16:22:42 2022*
G04 *
G04 Layer:  PIN/PASTEMASK_TOP*
G04 Layer:  PACKAGE GEOMETRY/PASTEMASK_TOP*
G04 *
G04 Offset:    (0.00 0.00)*
G04 Mirror:    No*
G04 Mode:      Positive*
G04 Rotation:  0*
G04 FullContactRelief:  No*
G04 UndefLineWidth:     0.00*
G04 ================== end FILE IDENTIFICATION RECORD ====================*
%FSLAX25Y25*MOIN*%
%IR0*IPPOS*OFA0.00000B0.00000*MIA0B0*SFA1.00000B1.00000*%
%ADD12R,.1X.06*%
%ADD15R,.06X.1*%
%ADD11C,.04*%
%ADD18R,.07087X.12008*%
%ADD16R,.06496X.13583*%
%ADD17R,.04528X.04724*%
%ADD13R,.04724X.04528*%
%ADD10R,.04528X.06496*%
%ADD14R,.06496X.04528*%
%LPD*%
G75*
G54D10*
X34437Y12000D03*
X26563D03*
X33063Y112000D03*
X40937D03*
X36063Y122000D03*
Y132000D03*
X43937Y122000D03*
X52063Y96000D03*
X59937D03*
X43937Y132000D03*
X58937Y130000D03*
X51063D03*
X75063Y14000D03*
X82937D03*
X75063Y25000D03*
X82937D03*
X125937Y21000D03*
X118063D03*
G54D11*
X20000Y20000D03*
X140000Y140000D03*
G54D12*
X17000Y83500D03*
Y96500D03*
G54D13*
X41457Y67000D03*
X48543D03*
X58543Y120000D03*
X51457D03*
G54D14*
X43000Y82937D03*
Y75063D03*
X37000Y148937D03*
Y141063D03*
X53000Y75063D03*
Y82937D03*
X64000Y83937D03*
Y76063D03*
X67000Y148937D03*
Y141063D03*
X76000Y44937D03*
Y37063D03*
Y148937D03*
Y141063D03*
X89000Y148937D03*
Y141063D03*
X98000Y140963D03*
Y148837D03*
X104000Y122063D03*
Y129937D03*
X136000Y13063D03*
Y20937D03*
X147000Y29063D03*
Y36937D03*
X148000Y141063D03*
Y148937D03*
Y126063D03*
Y133937D03*
G54D15*
X95500Y18000D03*
X108500D03*
X112500Y143000D03*
X125500D03*
G54D16*
X82000Y125205D03*
Y100795D03*
G54D17*
X105000Y106457D03*
Y113543D03*
G54D18*
X147000Y16000D03*
X148000Y95000D03*
M02*
