G04 ================== begin FILE IDENTIFICATION RECORD ==================*
G04 Layout Name:  PROIECT-PCB-v2.brd*
G04 Film Name:    TOP*
G04 File Format:  Gerber RS274X*
G04 File Origin:  Cadence Allegro 17.2-S025*
G04 Origin Date:  Sun Dec 25 16:24:11 2022*
G04 *
G04 Layer:  ETCH/TOP*
G04 Layer:  PIN/TOP*
G04 Layer:  VIA CLASS/TOP*
G04 *
G04 Offset:    (0.00 0.00)*
G04 Mirror:    No*
G04 Mode:      Positive*
G04 Rotation:  0*
G04 FullContactRelief:  No*
G04 UndefLineWidth:     10.00*
G04 ================== end FILE IDENTIFICATION RECORD ====================*
%FSLAX25Y25*MOIN*%
%IR0*IPPOS*OFA0.00000B0.00000*MIA0B0*SFA1.00000B1.00000*%
%ADD16R,.1X.06*%
%ADD22R,.06X.1*%
%ADD10R,.07X.23*%
%ADD14C,.04*%
%ADD15C,.024*%
%ADD25R,.07087X.12008*%
%ADD20R,.05118X.05118*%
%ADD23R,.06496X.13583*%
%ADD11R,.235X.24*%
%ADD12R,.036X.05*%
%ADD19R,.05X.036*%
%ADD24R,.0374X.04331*%
%ADD17R,.04331X.0374*%
%ADD13R,.0374X.05709*%
%ADD18R,.05709X.0374*%
%ADD21R,.07874X.05118*%
%ADD26C,.022*%
%ADD27C,.025*%
%ADD28C,.018*%
%ADD29C,.028*%
G75*
%LPD*%
G75*
G54D10*
X12986Y36868D03*
X31095D03*
X44905Y48132D03*
X63014D03*
X86986Y48868D03*
X105095D03*
X117986Y53868D03*
X136095D03*
G54D11*
X22180Y63270D03*
X53820Y21730D03*
X96180Y75270D03*
X127180Y80270D03*
G54D20*
X14945Y126000D03*
X24000D03*
X127055Y124000D03*
X118000D03*
G54D21*
X19472Y148244D03*
X122528Y101756D03*
G54D12*
X11800Y115000D03*
X15900Y106900D03*
X20000Y115000D03*
X145100Y118100D03*
X141000Y110000D03*
X149200D03*
G54D13*
X34437Y12000D03*
X26563D03*
X33063Y112000D03*
X40937D03*
X36063Y122000D03*
Y132000D03*
X43937Y122000D03*
X52063Y96000D03*
X59937D03*
X43937Y132000D03*
X58937Y130000D03*
X51063D03*
X75063Y14000D03*
X82937D03*
X75063Y25000D03*
X82937D03*
X125937Y21000D03*
X118063D03*
G54D22*
X95500Y18000D03*
X108500D03*
X112500Y143000D03*
X125500D03*
G54D23*
X82000Y125205D03*
Y100795D03*
G54D14*
X20000Y20000D03*
X140000Y140000D03*
G54D24*
X105000Y106457D03*
Y113543D03*
G54D15*
X22000Y31000D03*
X34437Y17937D03*
X41500Y88000D03*
X25500Y92000D03*
X28500Y107500D03*
X29000Y117500D03*
X21500Y105000D03*
X28000Y96900D03*
X19000Y121000D03*
X70000Y26000D03*
X53520Y62480D03*
X66000Y89000D03*
X64500Y117000D03*
X47000Y94500D03*
X70000Y135500D03*
X45500Y138000D03*
X61000Y141000D03*
X98500Y26500D03*
X78500Y50000D03*
X78000Y59000D03*
X99795Y100795D03*
X98063Y122063D03*
X80000Y136000D03*
X83000Y146000D03*
X104500Y26000D03*
X109246Y32246D03*
X109000Y93000D03*
X121500Y135500D03*
X104000Y144000D03*
X136000Y120000D03*
Y110000D03*
X135000Y97000D03*
X139500Y132000D03*
G54D25*
X147000Y16000D03*
X148000Y95000D03*
G54D16*
X17000Y83500D03*
Y96500D03*
G54D26*
G01X26563Y12000D02*
X16000D01*
X12986Y15014D01*
Y36868D01*
G01X53820Y21730D02*
X29230D01*
X26563Y19063D01*
Y12000D01*
G01X59937Y96000D02*
Y100455D01*
X56592Y103800D01*
X52000D01*
G54D17*
X41457Y67000D03*
X48543D03*
X58543Y120000D03*
X51457D03*
G54D27*
G01X44905Y48132D02*
X38000Y55037D01*
Y60950D01*
X35680Y63270D01*
X22180D01*
G01X46900Y145100D02*
X46200D01*
X42363Y148937D01*
X37000D01*
G01X70000Y26000D02*
X74063D01*
X75063Y25000D01*
G01X70000Y26000D02*
Y17000D01*
X73000Y14000D01*
X75063D01*
G01X78000Y59000D02*
X72500D01*
X70000Y56500D01*
Y40000D01*
X72937Y37063D01*
X76000D01*
G01X53520Y62480D02*
Y51497D01*
X50155Y48132D01*
X44905D01*
G01X71000Y90000D02*
Y64118D01*
X63014Y56132D01*
Y48132D01*
G01X105000Y106457D02*
Y93000D01*
X102000Y90000D01*
X71000D01*
G01D02*
Y101250D01*
X64350Y107900D01*
X60100D01*
G01X43937Y122000D02*
X49457D01*
X51457Y120000D01*
G01X80000Y136000D02*
X76500D01*
X70500Y130000D01*
X58937D01*
G01X70000Y135500D02*
Y139500D01*
X68437Y141063D01*
X67000D01*
G01X45500Y138000D02*
Y143700D01*
X46900Y145100D01*
G01X136000Y13063D02*
X115311D01*
X112155Y9907D01*
X86045D01*
X82937Y13015D01*
Y14000D01*
G01Y25000D02*
Y14000D01*
G01X76000Y37063D02*
X78937D01*
X82937Y33063D01*
Y25000D01*
G01X76000Y44937D02*
Y47500D01*
X78500Y50000D01*
G01X109246Y32246D02*
X88754D01*
X86986Y34014D01*
Y48868D01*
G01X82000Y100795D02*
X84795Y98000D01*
X97000D01*
X99795Y100795D01*
G01X82000Y125205D02*
Y134000D01*
X80000Y136000D01*
G01X87000Y148937D02*
X89000D01*
G01X98000Y148837D02*
X89100D01*
X89000Y148937D01*
G01X104000Y129937D02*
Y138413D01*
X101450Y140963D01*
X98000D01*
G01X76000Y141063D02*
X89000D01*
G01X104500Y26000D02*
Y22000D01*
X108500Y18000D01*
G01X136000Y20937D02*
X129620D01*
X129557Y21000D01*
X125937D01*
G01X118063D02*
Y40541D01*
X117986Y40618D01*
Y53868D01*
G01D02*
X110095D01*
X105095Y48868D01*
G01X118000Y124000D02*
X112000D01*
X110000Y122000D01*
Y108957D01*
X107500Y106457D01*
X105000D01*
G01X149200Y110000D02*
X149250Y109950D01*
Y107250D01*
X146650Y104650D01*
X129878D01*
X127563Y106965D01*
X126035D01*
X125950Y107050D01*
X120950D01*
X118000Y110000D01*
Y124000D01*
G01X135000D02*
X127055D01*
G01X147000Y16000D02*
Y29063D01*
G01X136000Y13063D02*
X144063D01*
X147000Y16000D01*
G01X136000Y20937D02*
Y37000D01*
G01D02*
Y40523D01*
X136095Y40618D01*
Y53868D01*
G01X147000Y36937D02*
X136063D01*
X136000Y37000D01*
G01X142500Y126063D02*
Y122000D01*
X145100Y119400D01*
Y118100D01*
G01X136000Y120000D02*
Y123000D01*
X135000Y124000D01*
G01X148000Y133937D02*
Y141063D01*
G01Y133937D02*
X141437D01*
X139500Y132000D01*
G01X148000Y126063D02*
X142500D01*
G01D02*
X137063D01*
X135000Y124000D01*
G54D18*
X43000Y82937D03*
Y75063D03*
X37000Y148937D03*
Y141063D03*
X53000Y75063D03*
Y82937D03*
X64000Y83937D03*
Y76063D03*
X67000Y148937D03*
Y141063D03*
X76000Y44937D03*
Y37063D03*
Y148937D03*
Y141063D03*
X89000Y148937D03*
Y141063D03*
X98000Y140963D03*
Y148837D03*
X104000Y122063D03*
Y129937D03*
X136000Y13063D03*
Y20937D03*
X147000Y29063D03*
Y36937D03*
X148000Y141063D03*
Y148937D03*
Y126063D03*
Y133937D03*
G54D28*
G01X17000Y83500D02*
X21500Y88000D01*
X27500D01*
X37000Y78500D01*
Y67891D01*
X37891Y67000D01*
X41457D01*
G01X28500Y107500D02*
X33000Y103000D01*
X34000D01*
G01X36063Y122000D02*
X28717D01*
X20000Y115700D01*
Y115000D01*
G01X42100Y98900D02*
Y106582D01*
X40937Y107745D01*
Y112000D01*
G01X11800Y115000D02*
Y115700D01*
X14945Y118845D01*
Y126000D01*
G01X34000Y94800D02*
X30100D01*
X28000Y96900D01*
G01X24000Y126000D02*
X19000Y121000D01*
G01X37000Y141063D02*
X21272D01*
X19472Y142863D01*
Y148244D01*
G01X36063Y132000D02*
Y122000D01*
G01X43000Y75063D02*
X43985D01*
X48543Y70505D01*
Y67000D01*
G01X53000Y82937D02*
X43000D01*
G01D02*
Y86500D01*
X41500Y88000D01*
G01X53000Y75063D02*
X58745D01*
X59745Y76063D01*
X64000D01*
G01X52000Y112000D02*
X40937D01*
G01X52000D02*
X99000D01*
X100543Y113543D01*
X105000D01*
G01X51063Y130000D02*
X45937D01*
X43937Y132000D01*
G01X135000Y97000D02*
X123325D01*
X122528Y97797D01*
Y101756D01*
G01X136000Y110000D02*
X141000D01*
G01X135000Y97000D02*
X137000Y95000D01*
X148000D01*
G54D19*
X42100Y98900D03*
X34000Y103000D03*
Y94800D03*
X60100Y107900D03*
X52000Y112000D03*
Y103800D03*
X46900Y145100D03*
X55000Y141000D03*
Y149200D03*
G54D29*
G01X22000Y31000D02*
Y35000D01*
X23868Y36868D01*
X31095D01*
G01X34437Y12000D02*
Y17937D01*
G01X25500Y92000D02*
X21500D01*
X17000Y96500D01*
G01X33000Y111937D02*
X33063Y112000D01*
G01X29000Y117500D02*
X29500D01*
X33063Y113937D01*
Y112000D01*
G01X21500Y105000D02*
X17000D01*
X15900Y106100D01*
Y106900D01*
G01X66000Y89000D02*
Y85937D01*
X64000Y83937D01*
G01X58543Y120000D02*
X61500D01*
X64500Y117000D01*
G01X47000Y94500D02*
X50563D01*
X52063Y96000D01*
G01X55000Y141000D02*
X61000D01*
G01X76000Y148937D02*
X67000D01*
G01X95500Y18000D02*
Y23500D01*
X98500Y26500D01*
G01X112000Y80270D02*
X101180D01*
X96180Y75270D01*
G01X104000Y122063D02*
X98063D01*
G01X83000Y146000D02*
X79922D01*
X76985Y148937D01*
X76000D01*
G01X127180Y80270D02*
X112000D01*
G01X109000Y93000D02*
Y89900D01*
X112000Y86900D01*
Y80270D01*
G01X148000Y148937D02*
X131437D01*
X125500Y143000D01*
G01X121500Y135500D02*
X125500Y139500D01*
Y143000D01*
G01X104000Y144000D02*
X105000Y143000D01*
X112500D01*
M02*
