G04 ================== begin FILE IDENTIFICATION RECORD ==================*
G04 Layout Name:  PROIECT-PCB-V4.brd*
G04 Film Name:    BOTTOM*
G04 File Format:  Gerber RS274X*
G04 File Origin:  Cadence Allegro 17.2-S025*
G04 Origin Date:  Sun Jan 22 19:45:35 2023*
G04 *
G04 Layer:  ETCH/BOTTOM*
G04 Layer:  PIN/BOTTOM*
G04 Layer:  VIA CLASS/BOTTOM*
G04 *
G04 Offset:    (0.00 0.00)*
G04 Mirror:    No*
G04 Mode:      Positive*
G04 Rotation:  0*
G04 FullContactRelief:  No*
G04 UndefLineWidth:     0.00*
G04 ================== end FILE IDENTIFICATION RECORD ====================*
%FSLAX25Y25*MOIN*%
%IR0*IPPOS*OFA0.00000B0.00000*MIA0B0*SFA1.00000B1.00000*%
%ADD10C,.024*%
%ADD11C,.025*%
%ADD12C,.018*%
%ADD13C,.028*%
%ADD14C,.05204*%
G75*
%LPD*%
G75*
G36*
G01X139500Y134652D02*
X132924D01*
X98007Y102753D01*
G03X97534Y99410I1788J-1958D01*
G02X97193Y98802I-341J-208D01*
G01X95160D01*
X94802Y99160D01*
Y130836D01*
X96052Y132086D01*
X101504Y126634D01*
X119860D01*
X124302Y131076D01*
Y135500D01*
G03X118698I-2802J0D01*
G01Y133396D01*
X117540Y132238D01*
X103824D01*
X89546Y146516D01*
G02X89829Y147198I283J282D01*
G01X96840D01*
X102019Y142019D01*
G03X105981Y145981I1981J1981D01*
G01X100646Y151316D01*
G02X100928Y151999I283J283D01*
G01X151999D01*
Y8001D01*
X8001D01*
Y151999D01*
X48915D01*
G02X49197Y151316I-1J-400D01*
G01X21498Y123617D01*
Y123147D01*
G02X20819Y122861I-400J0D01*
G03X16698Y119786I-1820J-1860D01*
G01Y113953D01*
X15698Y112953D01*
Y101547D01*
X24047Y93198D01*
X26247D01*
X26698Y92747D01*
Y90047D01*
X29047Y87698D01*
X30286D01*
X30329Y87677D01*
G03X33492Y88326I1171J2323D01*
G02X34198Y88068I306J-258D01*
G01Y83047D01*
X35014Y82232D01*
X35028Y82186D01*
G03X38801Y85253I2472J814D01*
G01Y90953D01*
X29802Y99953D01*
Y100747D01*
G03X26028Y103814I-1302J2253D01*
G01X26014Y103768D01*
X25198Y102953D01*
Y99522D01*
G02X24516Y99239I-400J0D01*
G01X22112Y101643D01*
G02X22283Y102310I283J283D01*
G03X24302Y105000I-783J2690D01*
G01Y106340D01*
X25302Y107340D01*
Y113948D01*
X26052Y114698D01*
X35359D01*
X36198Y113859D01*
Y109840D01*
X44198Y101840D01*
Y57640D01*
X48640Y53198D01*
X61000D01*
G03Y58802I0J2802D01*
G01X50960D01*
X49802Y59960D01*
Y104160D01*
X41802Y112160D01*
Y116179D01*
X37679Y120302D01*
X27102D01*
Y121297D01*
X42570Y136765D01*
G02X43200Y136681I283J-283D01*
G03X43625Y136125I2301J1318D01*
G01X49170Y130580D01*
X68348D01*
Y35952D01*
X73452Y30848D01*
X77500D01*
G03Y36152I0J2652D01*
G01X75648D01*
X73652Y38148D01*
Y129438D01*
X77562Y133348D01*
X80000D01*
G03Y138652I0J2652D01*
G01X75366D01*
X73101Y136387D01*
G02X72449Y136516I-283J283D01*
G03X67453Y136238I-2449J-1016D01*
G01X67439Y136189D01*
X67134Y135884D01*
X51366D01*
X47375Y139875D01*
G03X46819Y140300I-1874J-1876D01*
G02X46735Y140930I199J347D01*
G01X53003Y147198D01*
X79900D01*
G02X80287Y146699I0J-400D01*
G03X83000Y143198I2713J-699D01*
G01X84940D01*
X92090Y136048D01*
X89198Y133156D01*
Y96840D01*
X92840Y93198D01*
X108198D01*
Y29340D01*
X115840Y21698D01*
X124000D01*
G03Y27302I0J2802D01*
G01X118160D01*
X113802Y31660D01*
Y96000D01*
G03X111000Y98802I-2802J0D01*
G01X102575D01*
G02X102305Y99497I0J400D01*
G01X134982Y129348D01*
X139500D01*
G03Y134652I0J2652D01*
G37*
%LPC*%
G75*
G36*
G01X136566Y115816D02*
X130374Y109625D01*
Y47000D01*
G02X125072I-2651J0D01*
G01Y111821D01*
X131262Y118012D01*
Y119012D01*
X134125Y121875D01*
G02X137875Y118125I1875J-1875D01*
G01X136566Y116816D01*
Y115816D01*
G37*
G36*
G01X79463Y53236D02*
G02Y58838I0J2801D01*
G01X98963D01*
G02Y53236I0J-2801D01*
G01X79463D01*
G37*
G36*
G01X137302Y107747D02*
Y98214D01*
G02X132698I-2302J-1214D01*
G01Y109953D01*
X133514Y110768D01*
X133528Y110814D01*
G02X137302Y107747I2472J-814D01*
G37*
G54D14*
X70000Y26000D03*
X104500D03*
%LPD*%
G75*
G54D10*
X37500Y83000D03*
X25500Y92000D03*
X31500Y90000D03*
X28500Y103000D03*
X29000Y117500D03*
X21500Y105000D03*
X19000Y121000D03*
X70000Y26000D03*
X61000Y56000D03*
X66000Y89000D03*
X64500Y117000D03*
X47000Y94500D03*
X45500Y138000D03*
X70000Y135500D03*
X61000Y141000D03*
X98500Y26500D03*
X77500Y33500D03*
X79463Y56037D03*
X98963D03*
X99795Y100795D03*
X98063Y122063D03*
X80000Y136000D03*
X83000Y146000D03*
X104500Y26000D03*
X124000Y24500D03*
X127723Y47000D03*
X111000Y96000D03*
X121500Y135500D03*
X104000Y144000D03*
X136000Y120000D03*
X135000Y97000D03*
X136000Y110000D03*
X139500Y132000D03*
G54D11*
G01X80000Y136000D02*
X76464D01*
X71000Y130536D01*
Y37050D01*
X74550Y33500D01*
X77500D01*
G01X45500Y138000D02*
X50268Y133232D01*
X68232D01*
X70000Y135000D01*
Y135500D01*
G01X139500Y132000D02*
X133953D01*
X99795Y100795D01*
G01X127723Y47000D02*
Y110723D01*
X133914Y116914D01*
Y117914D01*
X136000Y120000D01*
G54D12*
G01X28500Y103000D02*
X27500Y102000D01*
Y99000D01*
X36500Y90000D01*
Y84000D01*
X37500Y83000D01*
G01X31500Y90000D02*
X30000D01*
X29000Y91000D01*
Y93700D01*
X27200Y95500D01*
X25000D01*
X18000Y102500D01*
Y112000D01*
X19000Y113000D01*
Y121000D01*
G01X135000Y97000D02*
Y109000D01*
X136000Y110000D01*
G54D13*
G01X29000Y117500D02*
X36519D01*
X39000Y115019D01*
Y111000D01*
X47000Y103000D01*
Y94500D01*
G01X104000Y144000D02*
X98000Y150000D01*
X51843D01*
X24300Y122457D01*
Y116908D01*
G01D02*
X22500Y115108D01*
Y108500D01*
X21500Y107500D01*
Y105000D01*
G01X29000Y117500D02*
X24892D01*
X24300Y116908D01*
G01X61000Y56000D02*
X49800D01*
X47000Y58800D01*
Y94500D01*
G01X98963Y56037D02*
X79463D01*
G01X111000Y96000D02*
X94000D01*
X92000Y98000D01*
Y131996D01*
X96052Y136048D01*
G01X83000Y146000D02*
X86100D01*
X96052Y136048D01*
G01X121500Y135500D02*
Y132236D01*
X118700Y129436D01*
X102664D01*
X96052Y136048D01*
G01X124000Y24500D02*
X117000D01*
X111000Y30500D01*
Y96000D01*
M02*
