M48
INCH,TZ
T01C.016
;LEADER: 12 
;HEADER: 
;CODE  : ASCII 
;FILE  : DRILL-1-2.drl for  ... layers TOP and BOTTOM
;DESIGN: PROIECT-PCB-V4.brd
;T01 Holesize 1. = 16.000000 Tolerance = +0.000000/-0.000000 PLATED MILS Quantity = 33
%
G90
T01
X31500Y90000
X19000Y121000
X136000Y110000
X135000Y97000
X47000Y94500
X21500Y105000
X29000Y117500
X104000Y144000
X61000Y56000
X98963Y56037
X79463
X111000Y96000
X121500Y135500
X124000Y24500
X83000Y146000
X98500Y26500
X25500Y92000
X98063Y122063
X61000Y141000
X66000Y89000
X64500Y117000
X127723Y47000
X136000Y120000
X70000Y26000
X28500Y103000
X37500Y83000
X139500Y132000
X99795Y100795
X70000Y135500
X45500Y138000
X77500Y33500
X80000Y136000
X104500Y26000
M30
