G04 ================== begin FILE IDENTIFICATION RECORD ==================*
G04 Layout Name:  PROIECT-PCB-V4.brd*
G04 Film Name:    NEWFAB*
G04 File Format:  Gerber RS274X*
G04 File Origin:  Cadence Allegro 17.2-S025*
G04 Origin Date:  Sun Jan 22 19:45:35 2023*
G04 *
G04 Layer:  MANUFACTURING/XSECTION_CHART*
G04 Layer:  MANUFACTURING/NCLEGEND-1-2*
G04 Layer:  MANUFACTURING/NCDRILL_LEGEND*
G04 Layer:  MANUFACTURING/NCDRILL_FIGURE*
G04 Layer:  DRAWING FORMAT/DRAWING_ORIGIN*
G04 Layer:  BOARD GEOMETRY/OUTLINE*
G04 Layer:  BOARD GEOMETRY/DIMENSION*
G04 *
G04 Offset:    (0.00 0.00)*
G04 Mirror:    No*
G04 Mode:      Positive*
G04 Rotation:  0*
G04 FullContactRelief:  No*
G04 UndefLineWidth:     10.00*
G04 ================== end FILE IDENTIFICATION RECORD ====================*
%FSLAX25Y25*MOIN*%
%IR0*IPPOS*OFA0.00000B0.00000*MIA0B0*SFA1.00000B1.00000*%
%AMMACRO11*
1,1,.01,.025,0.0*
20,1,.01,.025,0.0,-.025,0.0,0.0*
1,1,.01,-.025,0.0*
1,1,.01,0.0,.025*
20,1,.01,0.0,.025,0.0,-.025,0.0*
1,1,.01,0.0,-.025*
%
%ADD11MACRO11*%
%AMMACRO10*
1,1,.01,.025,0.0*
20,1,.01,.025,0.0,.02462,-.004341,0.0*
1,1,.01,.02462,-.004341*
20,1,.01,.02462,-.004341,.023492,-.008551,0.0*
1,1,.01,.023492,-.008551*
20,1,.01,.023492,-.008551,.021651,-.0125,0.0*
1,1,.01,.021651,-.0125*
20,1,.01,.021651,-.0125,.019151,-.01607,0.0*
1,1,.01,.019151,-.01607*
20,1,.01,.019151,-.01607,.01607,-.019151,0.0*
1,1,.01,.01607,-.019151*
20,1,.01,.01607,-.019151,.0125,-.021651,0.0*
1,1,.01,.0125,-.021651*
20,1,.01,.0125,-.021651,.008551,-.023492,0.0*
1,1,.01,.008551,-.023492*
20,1,.01,.008551,-.023492,.004341,-.02462,0.0*
1,1,.01,.004341,-.02462*
20,1,.01,.004341,-.02462,0.0,-.025,0.0*
1,1,.01,0.0,-.025*
20,1,.01,0.0,-.025,-.004341,-.02462,0.0*
1,1,.01,-.004341,-.02462*
20,1,.01,-.004341,-.02462,-.008551,-.023492,0.0*
1,1,.01,-.008551,-.023492*
20,1,.01,-.008551,-.023492,-.0125,-.021651,0.0*
1,1,.01,-.0125,-.021651*
20,1,.01,-.0125,-.021651,-.01607,-.019151,0.0*
1,1,.01,-.01607,-.019151*
20,1,.01,-.01607,-.019151,-.019151,-.01607,0.0*
1,1,.01,-.019151,-.01607*
20,1,.01,-.019151,-.01607,-.021651,-.0125,0.0*
1,1,.01,-.021651,-.0125*
20,1,.01,-.021651,-.0125,-.023492,-.008551,0.0*
1,1,.01,-.023492,-.008551*
20,1,.01,-.023492,-.008551,-.02462,-.004341,0.0*
1,1,.01,-.02462,-.004341*
20,1,.01,-.02462,-.004341,-.025,0.0,0.0*
1,1,.01,-.025,0.0*
20,1,.01,-.025,0.0,-.02462,.004341,0.0*
1,1,.01,-.02462,.004341*
20,1,.01,-.02462,.004341,-.023492,.008551,0.0*
1,1,.01,-.023492,.008551*
20,1,.01,-.023492,.008551,-.021651,.0125,0.0*
1,1,.01,-.021651,.0125*
20,1,.01,-.021651,.0125,-.019151,.01607,0.0*
1,1,.01,-.019151,.01607*
20,1,.01,-.019151,.01607,-.01607,.019151,0.0*
1,1,.01,-.01607,.019151*
20,1,.01,-.01607,.019151,-.0125,.021651,0.0*
1,1,.01,-.0125,.021651*
20,1,.01,-.0125,.021651,-.008551,.023492,0.0*
1,1,.01,-.008551,.023492*
20,1,.01,-.008551,.023492,-.004341,.02462,0.0*
1,1,.01,-.004341,.02462*
20,1,.01,-.004341,.02462,0.0,.025,0.0*
1,1,.01,0.0,.025*
20,1,.01,0.0,.025,.004341,.02462,0.0*
1,1,.01,.004341,.02462*
20,1,.01,.004341,.02462,.008551,.023492,0.0*
1,1,.01,.008551,.023492*
20,1,.01,.008551,.023492,.0125,.021651,0.0*
1,1,.01,.0125,.021651*
20,1,.01,.0125,.021651,.01607,.019151,0.0*
1,1,.01,.01607,.019151*
20,1,.01,.01607,.019151,.019151,.01607,0.0*
1,1,.01,.019151,.01607*
20,1,.01,.019151,.01607,.021651,.0125,0.0*
1,1,.01,.021651,.0125*
20,1,.01,.021651,.0125,.023492,.008551,0.0*
1,1,.01,.023492,.008551*
20,1,.01,.023492,.008551,.02462,.004341,0.0*
1,1,.01,.02462,.004341*
20,1,.01,.02462,.004341,.025,0.0,0.0*
1,1,.01,.025,0.0*
1,1,.01,.0125,0.0*
20,1,.01,.0125,0.0,-.0125,0.0,0.0*
1,1,.01,-.0125,0.0*
1,1,.01,0.0,.0125*
20,1,.01,0.0,.0125,0.0,-.0125,0.0*
1,1,.01,0.0,-.0125*
%
%ADD10MACRO10*%
%ADD12C,.003*%
%ADD13C,.005*%
%ADD14C,.01*%
G75*
%LPD*%
G75*
G36*
G01X-90950Y211124D02*
Y208815D01*
X-88450D01*
Y15434D01*
X-90950D01*
Y13125D01*
X-75950D01*
Y15434D01*
X-78450D01*
Y208815D01*
X-75950D01*
Y211124D01*
X-90950D01*
G37*
G36*
G01X-110950Y13126D02*
Y15435D01*
X-50950D01*
Y13126D01*
X-110950D01*
G37*
G36*
G01Y208815D02*
Y211124D01*
X-50950D01*
Y208815D01*
X-110950D01*
G37*
G54D10*
X-84600Y-42450D03*
X37500Y83000D03*
X25500Y92000D03*
X28500Y103000D03*
X29000Y117500D03*
X21500Y105000D03*
X19000Y121000D03*
X70000Y26000D03*
X61000Y56000D03*
X66000Y89000D03*
X64500Y117000D03*
X47000Y94500D03*
X45500Y138000D03*
X70000Y135500D03*
X61000Y141000D03*
X98500Y26500D03*
X77500Y33500D03*
X79463Y56037D03*
X98963D03*
X99795Y100795D03*
X98063Y122063D03*
X80000Y136000D03*
X83000Y146000D03*
X104500Y26000D03*
X124000Y24500D03*
X127723Y47000D03*
X111000Y96000D03*
X121500Y135500D03*
X104000Y144000D03*
X136000Y120000D03*
X135000Y97000D03*
X136000Y110000D03*
X139500Y132000D03*
G54D11*
X0Y0D03*
G54D12*
G01X-90483Y-37700D02*
Y-35700D01*
X-89217D01*
G01X-89683Y-36667D02*
X-90483D01*
G01X-88150Y-35700D02*
X-87350D01*
G01X-87750D02*
Y-37700D01*
G01X-88150D02*
X-87350D01*
G01X-85450Y-36700D02*
X-84783D01*
Y-37300D01*
X-84983Y-37500D01*
X-85217Y-37633D01*
X-85550Y-37700D01*
X-85883Y-37633D01*
X-86117Y-37500D01*
X-86317Y-37300D01*
X-86450Y-37067D01*
X-86517Y-36800D01*
Y-36567D01*
X-86450Y-36367D01*
X-86317Y-36133D01*
X-86117Y-35933D01*
X-85917Y-35800D01*
X-85650Y-35700D01*
X-85417D01*
X-85150Y-35767D01*
X-84950Y-35900D01*
G01X-84283Y-35700D02*
Y-37133D01*
X-84150Y-37433D01*
X-83883Y-37633D01*
X-83550Y-37700D01*
X-83217Y-37633D01*
X-82950Y-37433D01*
X-82817Y-37133D01*
Y-35700D01*
G01X-82117Y-37700D02*
Y-35700D01*
X-81283D01*
X-81017Y-35800D01*
X-80850Y-35933D01*
X-80783Y-36200D01*
X-80850Y-36467D01*
X-81050Y-36633D01*
X-81283Y-36733D01*
X-82117D01*
G01X-81283D02*
X-80783Y-37700D01*
G01X-78683D02*
X-80017D01*
Y-35700D01*
X-78683D01*
G01X-79217Y-36667D02*
X-80017D01*
G01X-107933Y5287D02*
Y7287D01*
X-107267D01*
X-107000Y7187D01*
X-106800Y7054D01*
X-106633Y6854D01*
X-106500Y6620D01*
X-106467Y6287D01*
X-106500Y5954D01*
X-106633Y5720D01*
X-106800Y5520D01*
X-107000Y5387D01*
X-107267Y5287D01*
X-107933D01*
G01X-104433D02*
X-105767D01*
Y7287D01*
X-104433D01*
G01X-104967Y6320D02*
X-105767D01*
G01X-103700Y5554D02*
X-103433Y5387D01*
X-103133Y5287D01*
X-102867D01*
X-102600Y5387D01*
X-102400Y5554D01*
X-102300Y5787D01*
X-102367Y6020D01*
X-102533Y6220D01*
X-102833Y6354D01*
X-103233Y6420D01*
X-103467Y6554D01*
X-103567Y6787D01*
X-103500Y7020D01*
X-103333Y7187D01*
X-103100Y7287D01*
X-102867D01*
X-102633Y7220D01*
X-102433Y7054D01*
G01X-101300Y7287D02*
X-100500D01*
G01X-100900D02*
Y5287D01*
G01X-101300D02*
X-100500D01*
G01X-98600Y6287D02*
X-97933D01*
Y5687D01*
X-98133Y5487D01*
X-98367Y5354D01*
X-98700Y5287D01*
X-99033Y5354D01*
X-99267Y5487D01*
X-99467Y5687D01*
X-99600Y5920D01*
X-99667Y6187D01*
Y6420D01*
X-99600Y6620D01*
X-99467Y6854D01*
X-99267Y7054D01*
X-99067Y7187D01*
X-98800Y7287D01*
X-98567D01*
X-98300Y7220D01*
X-98100Y7087D01*
G01X-97467Y5287D02*
Y7287D01*
X-95933Y5287D01*
Y7287D01*
G01X-91767Y7120D02*
X-91967Y7220D01*
X-92200Y7287D01*
X-92467D01*
X-92767Y7187D01*
X-93000Y7020D01*
X-93167Y6820D01*
X-93300Y6487D01*
X-93333Y6187D01*
X-93267Y5887D01*
X-93167Y5687D01*
X-92967Y5487D01*
X-92733Y5354D01*
X-92500Y5287D01*
X-92267D01*
X-92033Y5354D01*
X-91833Y5454D01*
X-91667Y5587D01*
G01X-91067Y5287D02*
Y7287D01*
X-90233D01*
X-89967Y7187D01*
X-89800Y7054D01*
X-89733Y6787D01*
X-89800Y6520D01*
X-90000Y6354D01*
X-90233Y6254D01*
X-91067D01*
G01X-90233D02*
X-89733Y5287D01*
G01X-88300D02*
X-88567Y5320D01*
X-88800Y5454D01*
X-89000Y5654D01*
X-89133Y5887D01*
X-89200Y6154D01*
Y6420D01*
X-89133Y6687D01*
X-89000Y6920D01*
X-88800Y7120D01*
X-88567Y7254D01*
X-88300Y7287D01*
X-88033Y7254D01*
X-87800Y7120D01*
X-87600Y6920D01*
X-87467Y6687D01*
X-87400Y6420D01*
Y6154D01*
X-87467Y5887D01*
X-87600Y5654D01*
X-87800Y5454D01*
X-88033Y5320D01*
X-88300Y5287D01*
G01X-86900Y5554D02*
X-86633Y5387D01*
X-86333Y5287D01*
X-86067D01*
X-85800Y5387D01*
X-85600Y5554D01*
X-85500Y5787D01*
X-85567Y6020D01*
X-85733Y6220D01*
X-86033Y6354D01*
X-86433Y6420D01*
X-86667Y6554D01*
X-86767Y6787D01*
X-86700Y7020D01*
X-86533Y7187D01*
X-86300Y7287D01*
X-86067D01*
X-85833Y7220D01*
X-85633Y7054D01*
G01X-84800Y5554D02*
X-84533Y5387D01*
X-84233Y5287D01*
X-83967D01*
X-83700Y5387D01*
X-83500Y5554D01*
X-83400Y5787D01*
X-83467Y6020D01*
X-83633Y6220D01*
X-83933Y6354D01*
X-84333Y6420D01*
X-84567Y6554D01*
X-84667Y6787D01*
X-84600Y7020D01*
X-84433Y7187D01*
X-84200Y7287D01*
X-83967D01*
X-83733Y7220D01*
X-83533Y7054D01*
G01X-80600Y5554D02*
X-80333Y5387D01*
X-80033Y5287D01*
X-79767D01*
X-79500Y5387D01*
X-79300Y5554D01*
X-79200Y5787D01*
X-79267Y6020D01*
X-79433Y6220D01*
X-79733Y6354D01*
X-80133Y6420D01*
X-80367Y6554D01*
X-80467Y6787D01*
X-80400Y7020D01*
X-80233Y7187D01*
X-80000Y7287D01*
X-79767D01*
X-79533Y7220D01*
X-79333Y7054D01*
G01X-77133Y5287D02*
X-78467D01*
Y7287D01*
X-77133D01*
G01X-77667Y6320D02*
X-78467D01*
G01X-74967Y7120D02*
X-75167Y7220D01*
X-75400Y7287D01*
X-75667D01*
X-75967Y7187D01*
X-76200Y7020D01*
X-76367Y6820D01*
X-76500Y6487D01*
X-76533Y6187D01*
X-76467Y5887D01*
X-76367Y5687D01*
X-76167Y5487D01*
X-75933Y5354D01*
X-75700Y5287D01*
X-75467D01*
X-75233Y5354D01*
X-75033Y5454D01*
X-74867Y5587D01*
G01X-73600Y7287D02*
Y5287D01*
G01X-74367Y7287D02*
X-72833D01*
G01X-71900D02*
X-71100D01*
G01X-71500D02*
Y5287D01*
G01X-71900D02*
X-71100D01*
G01X-69400D02*
X-69667Y5320D01*
X-69900Y5454D01*
X-70100Y5654D01*
X-70233Y5887D01*
X-70300Y6154D01*
Y6420D01*
X-70233Y6687D01*
X-70100Y6920D01*
X-69900Y7120D01*
X-69667Y7254D01*
X-69400Y7287D01*
X-69133Y7254D01*
X-68900Y7120D01*
X-68700Y6920D01*
X-68567Y6687D01*
X-68500Y6420D01*
Y6154D01*
X-68567Y5887D01*
X-68700Y5654D01*
X-68900Y5454D01*
X-69133Y5320D01*
X-69400Y5287D01*
G01X-68067D02*
Y7287D01*
X-66533Y5287D01*
Y7287D01*
G01X-62367Y7120D02*
X-62567Y7220D01*
X-62800Y7287D01*
X-63067D01*
X-63367Y7187D01*
X-63600Y7020D01*
X-63767Y6820D01*
X-63900Y6487D01*
X-63933Y6187D01*
X-63867Y5887D01*
X-63767Y5687D01*
X-63567Y5487D01*
X-63333Y5354D01*
X-63100Y5287D01*
X-62867D01*
X-62633Y5354D01*
X-62433Y5454D01*
X-62267Y5587D01*
G01X-61700Y5287D02*
Y7287D01*
G01X-60300D02*
Y5287D01*
G01Y6287D02*
X-61700D01*
G01X-59733Y5287D02*
X-58900Y7287D01*
X-58067Y5287D01*
G01X-58367Y5987D02*
X-59433D01*
G01X-57467Y5287D02*
Y7287D01*
X-56633D01*
X-56367Y7187D01*
X-56200Y7054D01*
X-56133Y6787D01*
X-56200Y6520D01*
X-56400Y6354D01*
X-56633Y6254D01*
X-57467D01*
G01X-56633D02*
X-56133Y5287D01*
G01X-54700Y7287D02*
Y5287D01*
G01X-55467Y7287D02*
X-53933D01*
G01X-109250Y4620D02*
X-107250D01*
G01X-107150D02*
X-105150D01*
G01X-105050D02*
X-103050D01*
G01X-102950D02*
X-100950D01*
G01X-100850D02*
X-98850D01*
G01X-98750D02*
X-96750D01*
G01X-96650D02*
X-94650D01*
G01X-94550D02*
X-92550D01*
G01X-92450D02*
X-90450D01*
G01X-90350D02*
X-88350D01*
G01X-88250D02*
X-86250D01*
G01X-86150D02*
X-84150D01*
G01X-84050D02*
X-82050D01*
G01X-81950D02*
X-79950D01*
G01X-79850D02*
X-77850D01*
G01X-77750D02*
X-75750D01*
G01X-75650D02*
X-73650D01*
G01X-73550D02*
X-71550D01*
G01X-71450D02*
X-69450D01*
G01X-69350D02*
X-67350D01*
G01X-67250D02*
X-65250D01*
G01X-65150D02*
X-63150D01*
G01X-63050D02*
X-61050D01*
G01X-60950D02*
X-58950D01*
G01X-58850D02*
X-56850D01*
G01X-56750D02*
X-54750D01*
G01X-54650D02*
X-52650D01*
G01X-103000Y3687D02*
Y1687D01*
G01X-103767Y3687D02*
X-102233D01*
G01X-100900Y1687D02*
X-101167Y1720D01*
X-101400Y1854D01*
X-101600Y2054D01*
X-101733Y2287D01*
X-101800Y2554D01*
Y2820D01*
X-101733Y3087D01*
X-101600Y3320D01*
X-101400Y3520D01*
X-101167Y3654D01*
X-100900Y3687D01*
X-100633Y3654D01*
X-100400Y3520D01*
X-100200Y3320D01*
X-100067Y3087D01*
X-100000Y2820D01*
Y2554D01*
X-100067Y2287D01*
X-100200Y2054D01*
X-100400Y1854D01*
X-100633Y1720D01*
X-100900Y1687D01*
G01X-98800Y3687D02*
Y1687D01*
G01X-99567Y3687D02*
X-98033D01*
G01X-97533Y1687D02*
X-96700Y3687D01*
X-95867Y1687D01*
G01X-96167Y2387D02*
X-97233D01*
G01X-95267Y3687D02*
Y1687D01*
X-93933D01*
G01X-90400Y3687D02*
Y1687D01*
G01X-91167Y3687D02*
X-89633D01*
G01X-89000Y1687D02*
Y3687D01*
G01X-87600D02*
Y1687D01*
G01Y2687D02*
X-89000D01*
G01X-86600Y3687D02*
X-85800D01*
G01X-86200D02*
Y1687D01*
G01X-86600D02*
X-85800D01*
G01X-83367Y3520D02*
X-83567Y3620D01*
X-83800Y3687D01*
X-84067D01*
X-84367Y3587D01*
X-84600Y3420D01*
X-84767Y3220D01*
X-84900Y2887D01*
X-84933Y2587D01*
X-84867Y2287D01*
X-84767Y2087D01*
X-84567Y1887D01*
X-84333Y1754D01*
X-84100Y1687D01*
X-83867D01*
X-83633Y1754D01*
X-83433Y1854D01*
X-83267Y1987D01*
G01X-82733Y1687D02*
Y3687D01*
G01X-81467D02*
X-82733Y2454D01*
G01X-81267Y1687D02*
X-82167Y3020D01*
G01X-80667Y1687D02*
Y3687D01*
X-79133Y1687D01*
Y3687D01*
G01X-77133Y1687D02*
X-78467D01*
Y3687D01*
X-77133D01*
G01X-77667Y2720D02*
X-78467D01*
G01X-76400Y1954D02*
X-76133Y1787D01*
X-75833Y1687D01*
X-75567D01*
X-75300Y1787D01*
X-75100Y1954D01*
X-75000Y2187D01*
X-75067Y2420D01*
X-75233Y2620D01*
X-75533Y2754D01*
X-75933Y2820D01*
X-76167Y2954D01*
X-76267Y3187D01*
X-76200Y3420D01*
X-76033Y3587D01*
X-75800Y3687D01*
X-75567D01*
X-75333Y3620D01*
X-75133Y3454D01*
G01X-74300Y1954D02*
X-74033Y1787D01*
X-73733Y1687D01*
X-73467D01*
X-73200Y1787D01*
X-73000Y1954D01*
X-72900Y2187D01*
X-72967Y2420D01*
X-73133Y2620D01*
X-73433Y2754D01*
X-73833Y2820D01*
X-74067Y2954D01*
X-74167Y3187D01*
X-74100Y3420D01*
X-73933Y3587D01*
X-73700Y3687D01*
X-73467D01*
X-73233Y3620D01*
X-73033Y3454D01*
G01X-70033Y2520D02*
X-69800Y2754D01*
X-69600Y2887D01*
X-69333Y2954D01*
X-69100Y2887D01*
X-68933Y2754D01*
X-68800Y2554D01*
X-68767Y2320D01*
X-68800Y2120D01*
X-68933Y1920D01*
X-69133Y1754D01*
X-69367Y1687D01*
X-69633Y1754D01*
X-69867Y1954D01*
X-70000Y2254D01*
X-70033Y2587D01*
X-69967Y3020D01*
X-69867Y3254D01*
X-69700Y3487D01*
X-69467Y3654D01*
X-69233Y3687D01*
X-69000Y3620D01*
X-68833Y3454D01*
G01X-67300Y3687D02*
X-67567Y3620D01*
X-67767Y3454D01*
X-67900Y3254D01*
X-68000Y2987D01*
X-68033Y2687D01*
X-68000Y2387D01*
X-67900Y2120D01*
X-67767Y1920D01*
X-67567Y1754D01*
X-67300Y1687D01*
X-67033Y1754D01*
X-66833Y1920D01*
X-66700Y2120D01*
X-66600Y2387D01*
X-66567Y2687D01*
X-66600Y2987D01*
X-66700Y3254D01*
X-66833Y3454D01*
X-67033Y3620D01*
X-67300Y3687D01*
G01X-63967Y1687D02*
Y3687D01*
X-63100Y2020D01*
X-62233Y3687D01*
Y1687D01*
G01X-61400Y3687D02*
X-60600D01*
G01X-61000D02*
Y1687D01*
G01X-61400D02*
X-60600D01*
G01X-59567Y3687D02*
Y1687D01*
X-58233D01*
G01X-83450Y214124D02*
X-85450D01*
X-85050Y213724D01*
G01X-83450D02*
Y214524D01*
G01X-84117Y215791D02*
Y216657D01*
G01X-85117Y217691D02*
X-85317Y217891D01*
X-85417Y218124D01*
X-85450Y218391D01*
X-85383Y218724D01*
X-85217Y218957D01*
X-85017Y219024D01*
X-84817Y218991D01*
X-84650Y218857D01*
X-84317Y218191D01*
X-84083Y217891D01*
X-83750Y217691D01*
X-83450Y217624D01*
Y219024D01*
G01X-72683Y-33700D02*
X-71850Y-31700D01*
X-71017Y-33700D01*
G01X-71317Y-33000D02*
X-72383D01*
G01X-70417Y-31700D02*
Y-33700D01*
X-69083D01*
G01X-68317Y-31700D02*
Y-33700D01*
X-66983D01*
G01X-64183Y-31700D02*
Y-33133D01*
X-64050Y-33433D01*
X-63783Y-33633D01*
X-63450Y-33700D01*
X-63117Y-33633D01*
X-62850Y-33433D01*
X-62717Y-33133D01*
Y-31700D01*
G01X-62117Y-33700D02*
Y-31700D01*
X-60583Y-33700D01*
Y-31700D01*
G01X-59650D02*
X-58850D01*
G01X-59250D02*
Y-33700D01*
G01X-59650D02*
X-58850D01*
G01X-57150Y-31700D02*
Y-33700D01*
G01X-57917Y-31700D02*
X-56383D01*
G01X-55750Y-33433D02*
X-55483Y-33600D01*
X-55183Y-33700D01*
X-54917D01*
X-54650Y-33600D01*
X-54450Y-33433D01*
X-54350Y-33200D01*
X-54417Y-32967D01*
X-54583Y-32767D01*
X-54883Y-32633D01*
X-55283Y-32567D01*
X-55517Y-32433D01*
X-55617Y-32200D01*
X-55550Y-31967D01*
X-55383Y-31800D01*
X-55150Y-31700D01*
X-54917D01*
X-54683Y-31767D01*
X-54483Y-31933D01*
G01X-51683Y-33700D02*
X-50850Y-31700D01*
X-50017Y-33700D01*
G01X-50317Y-33000D02*
X-51383D01*
G01X-49417Y-33700D02*
Y-31700D01*
X-48583D01*
X-48317Y-31800D01*
X-48150Y-31933D01*
X-48083Y-32200D01*
X-48150Y-32467D01*
X-48350Y-32633D01*
X-48583Y-32733D01*
X-49417D01*
G01X-48583D02*
X-48083Y-33700D01*
G01X-45983D02*
X-47317D01*
Y-31700D01*
X-45983D01*
G01X-46517Y-32667D02*
X-47317D01*
G01X-42850Y-31700D02*
X-42050D01*
G01X-42450D02*
Y-33700D01*
G01X-42850D02*
X-42050D01*
G01X-41117D02*
Y-31700D01*
X-39583Y-33700D01*
Y-31700D01*
G01X-37017Y-33700D02*
Y-31700D01*
X-36150Y-33367D01*
X-35283Y-31700D01*
Y-33700D01*
G01X-34450Y-31700D02*
X-33650D01*
G01X-34050D02*
Y-33700D01*
G01X-34450D02*
X-33650D01*
G01X-32617Y-31700D02*
Y-33700D01*
X-31283D01*
G01X-30550Y-33433D02*
X-30283Y-33600D01*
X-29983Y-33700D01*
X-29717D01*
X-29450Y-33600D01*
X-29250Y-33433D01*
X-29150Y-33200D01*
X-29217Y-32967D01*
X-29383Y-32767D01*
X-29683Y-32633D01*
X-30083Y-32567D01*
X-30317Y-32433D01*
X-30417Y-32200D01*
X-30350Y-31967D01*
X-30183Y-31800D01*
X-29950Y-31700D01*
X-29717D01*
X-29483Y-31767D01*
X-29283Y-31933D01*
G01X-73583Y-37700D02*
Y-35700D01*
X-72317D01*
G01X-72783Y-36667D02*
X-73583D01*
G01X-71250Y-35700D02*
X-70450D01*
G01X-70850D02*
Y-37700D01*
G01X-71250D02*
X-70450D01*
G01X-69517D02*
Y-35700D01*
X-67983Y-37700D01*
Y-35700D01*
G01X-67050D02*
X-66250D01*
G01X-66650D02*
Y-37700D01*
G01X-67050D02*
X-66250D01*
G01X-65250Y-37433D02*
X-64983Y-37600D01*
X-64683Y-37700D01*
X-64417D01*
X-64150Y-37600D01*
X-63950Y-37433D01*
X-63850Y-37200D01*
X-63917Y-36967D01*
X-64083Y-36767D01*
X-64383Y-36633D01*
X-64783Y-36567D01*
X-65017Y-36433D01*
X-65117Y-36200D01*
X-65050Y-35967D01*
X-64883Y-35800D01*
X-64650Y-35700D01*
X-64417D01*
X-64183Y-35767D01*
X-63983Y-35933D01*
G01X-63150Y-37700D02*
Y-35700D01*
G01X-61750D02*
Y-37700D01*
G01Y-36700D02*
X-63150D01*
G01X-59683Y-37700D02*
X-61017D01*
Y-35700D01*
X-59683D01*
G01X-60217Y-36667D02*
X-61017D01*
G01X-58983Y-37700D02*
Y-35700D01*
X-58317D01*
X-58050Y-35800D01*
X-57850Y-35933D01*
X-57683Y-36133D01*
X-57550Y-36367D01*
X-57517Y-36700D01*
X-57550Y-37033D01*
X-57683Y-37267D01*
X-57850Y-37467D01*
X-58050Y-37600D01*
X-58317Y-37700D01*
X-58983D01*
G01X-57150Y-38367D02*
X-55150D01*
G01X-54750Y-37433D02*
X-54483Y-37600D01*
X-54183Y-37700D01*
X-53917D01*
X-53650Y-37600D01*
X-53450Y-37433D01*
X-53350Y-37200D01*
X-53417Y-36967D01*
X-53583Y-36767D01*
X-53883Y-36633D01*
X-54283Y-36567D01*
X-54517Y-36433D01*
X-54617Y-36200D01*
X-54550Y-35967D01*
X-54383Y-35800D01*
X-54150Y-35700D01*
X-53917D01*
X-53683Y-35767D01*
X-53483Y-35933D01*
G01X-52350Y-35700D02*
X-51550D01*
G01X-51950D02*
Y-37700D01*
G01X-52350D02*
X-51550D01*
G01X-50483Y-35700D02*
X-49217D01*
X-50483Y-37700D01*
X-49217D01*
G01X-47083D02*
X-48417D01*
Y-35700D01*
X-47083D01*
G01X-47617Y-36667D02*
X-48417D01*
G01X-63500Y-43450D02*
Y-41450D01*
X-63900Y-41850D01*
G01Y-43450D02*
X-63100D01*
G01X-62033Y-42617D02*
X-61800Y-42383D01*
X-61600Y-42250D01*
X-61333Y-42183D01*
X-61100Y-42250D01*
X-60933Y-42383D01*
X-60800Y-42583D01*
X-60767Y-42817D01*
X-60800Y-43017D01*
X-60933Y-43217D01*
X-61133Y-43383D01*
X-61367Y-43450D01*
X-61633Y-43383D01*
X-61867Y-43183D01*
X-62000Y-42883D01*
X-62033Y-42550D01*
X-61967Y-42117D01*
X-61867Y-41883D01*
X-61700Y-41650D01*
X-61467Y-41483D01*
X-61233Y-41450D01*
X-61000Y-41517D01*
X-60833Y-41683D01*
G01X-59300Y-43517D02*
X-59367Y-43483D01*
Y-43417D01*
X-59300Y-43383D01*
X-59233Y-43417D01*
Y-43483D01*
X-59300Y-43517D01*
G01X-57200Y-41450D02*
X-57467Y-41517D01*
X-57667Y-41683D01*
X-57800Y-41883D01*
X-57900Y-42150D01*
X-57933Y-42450D01*
X-57900Y-42750D01*
X-57800Y-43017D01*
X-57667Y-43217D01*
X-57467Y-43383D01*
X-57200Y-43450D01*
X-56933Y-43383D01*
X-56733Y-43217D01*
X-56600Y-43017D01*
X-56500Y-42750D01*
X-56467Y-42450D01*
X-56500Y-42150D01*
X-56600Y-41883D01*
X-56733Y-41683D01*
X-56933Y-41517D01*
X-57200Y-41450D01*
G01X-77833Y-8700D02*
Y-6700D01*
X-77167D01*
X-76900Y-6800D01*
X-76700Y-6933D01*
X-76533Y-7133D01*
X-76400Y-7367D01*
X-76367Y-7700D01*
X-76400Y-8033D01*
X-76533Y-8267D01*
X-76700Y-8467D01*
X-76900Y-8600D01*
X-77167Y-8700D01*
X-77833D01*
G01X-75667D02*
Y-6700D01*
X-74833D01*
X-74567Y-6800D01*
X-74400Y-6933D01*
X-74333Y-7200D01*
X-74400Y-7467D01*
X-74600Y-7633D01*
X-74833Y-7733D01*
X-75667D01*
G01X-74833D02*
X-74333Y-8700D01*
G01X-73300Y-6700D02*
X-72500D01*
G01X-72900D02*
Y-8700D01*
G01X-73300D02*
X-72500D01*
G01X-71467Y-6700D02*
Y-8700D01*
X-70133D01*
G01X-69367Y-6700D02*
Y-8700D01*
X-68033D01*
G01X-63767Y-6867D02*
X-63967Y-6767D01*
X-64200Y-6700D01*
X-64467D01*
X-64767Y-6800D01*
X-65000Y-6967D01*
X-65167Y-7167D01*
X-65300Y-7500D01*
X-65333Y-7800D01*
X-65267Y-8100D01*
X-65167Y-8300D01*
X-64967Y-8500D01*
X-64733Y-8633D01*
X-64500Y-8700D01*
X-64267D01*
X-64033Y-8633D01*
X-63833Y-8533D01*
X-63667Y-8400D01*
G01X-63100Y-8700D02*
Y-6700D01*
G01X-61700D02*
Y-8700D01*
G01Y-7700D02*
X-63100D01*
G01X-61133Y-8700D02*
X-60300Y-6700D01*
X-59467Y-8700D01*
G01X-59767Y-8000D02*
X-60833D01*
G01X-58867Y-8700D02*
Y-6700D01*
X-58033D01*
X-57767Y-6800D01*
X-57600Y-6933D01*
X-57533Y-7200D01*
X-57600Y-7467D01*
X-57800Y-7633D01*
X-58033Y-7733D01*
X-58867D01*
G01X-58033D02*
X-57533Y-8700D01*
G01X-56100Y-6700D02*
Y-8700D01*
G01X-56867Y-6700D02*
X-55333D01*
G01X-54000Y-8767D02*
X-54067Y-8733D01*
Y-8667D01*
X-54000Y-8633D01*
X-53933Y-8667D01*
Y-8733D01*
X-54000Y-8767D01*
G01Y-7867D02*
X-54067Y-7833D01*
Y-7767D01*
X-54000Y-7733D01*
X-53933Y-7767D01*
Y-7833D01*
X-54000Y-7867D01*
G01X-49800Y-6700D02*
Y-8700D01*
G01X-50567Y-6700D02*
X-49033D01*
G01X-47700Y-8700D02*
X-47967Y-8667D01*
X-48200Y-8533D01*
X-48400Y-8333D01*
X-48533Y-8100D01*
X-48600Y-7833D01*
Y-7567D01*
X-48533Y-7300D01*
X-48400Y-7067D01*
X-48200Y-6867D01*
X-47967Y-6733D01*
X-47700Y-6700D01*
X-47433Y-6733D01*
X-47200Y-6867D01*
X-47000Y-7067D01*
X-46867Y-7300D01*
X-46800Y-7567D01*
Y-7833D01*
X-46867Y-8100D01*
X-47000Y-8333D01*
X-47200Y-8533D01*
X-47433Y-8667D01*
X-47700Y-8700D01*
G01X-46267D02*
Y-6700D01*
X-45467D01*
X-45200Y-6800D01*
X-45000Y-7033D01*
X-44933Y-7300D01*
X-45000Y-7567D01*
X-45167Y-7767D01*
X-45467Y-7867D01*
X-46267D01*
G01X-41400Y-6700D02*
Y-8700D01*
G01X-41867Y-7367D02*
X-40933D01*
G01X-39300Y-8700D02*
X-39500Y-8667D01*
X-39700Y-8533D01*
X-39833Y-8300D01*
X-39900Y-8033D01*
X-39833Y-7767D01*
X-39700Y-7533D01*
X-39500Y-7400D01*
X-39300Y-7367D01*
X-39100Y-7400D01*
X-38900Y-7533D01*
X-38767Y-7767D01*
X-38733Y-8033D01*
X-38767Y-8300D01*
X-38900Y-8533D01*
X-39100Y-8667D01*
X-39300Y-8700D01*
G01X-34833Y-7633D02*
X-34700Y-7533D01*
X-34600Y-7367D01*
X-34533Y-7133D01*
X-34600Y-6933D01*
X-34733Y-6800D01*
X-34967Y-6700D01*
X-35867D01*
Y-8700D01*
X-34767D01*
X-34533Y-8567D01*
X-34400Y-8367D01*
X-34333Y-8133D01*
X-34400Y-7900D01*
X-34600Y-7700D01*
X-34833Y-7633D01*
X-35867D01*
G01X-33000Y-8700D02*
X-33267Y-8667D01*
X-33500Y-8533D01*
X-33700Y-8333D01*
X-33833Y-8100D01*
X-33900Y-7833D01*
Y-7567D01*
X-33833Y-7300D01*
X-33700Y-7067D01*
X-33500Y-6867D01*
X-33267Y-6733D01*
X-33000Y-6700D01*
X-32733Y-6733D01*
X-32500Y-6867D01*
X-32300Y-7067D01*
X-32167Y-7300D01*
X-32100Y-7567D01*
Y-7833D01*
X-32167Y-8100D01*
X-32300Y-8333D01*
X-32500Y-8533D01*
X-32733Y-8667D01*
X-33000Y-8700D01*
G01X-30900Y-6700D02*
Y-8700D01*
G01X-31667Y-6700D02*
X-30133D01*
G01X-28800D02*
Y-8700D01*
G01X-29567Y-6700D02*
X-28033D01*
G01X-26700Y-8700D02*
X-26967Y-8667D01*
X-27200Y-8533D01*
X-27400Y-8333D01*
X-27533Y-8100D01*
X-27600Y-7833D01*
Y-7567D01*
X-27533Y-7300D01*
X-27400Y-7067D01*
X-27200Y-6867D01*
X-26967Y-6733D01*
X-26700Y-6700D01*
X-26433Y-6733D01*
X-26200Y-6867D01*
X-26000Y-7067D01*
X-25867Y-7300D01*
X-25800Y-7567D01*
Y-7833D01*
X-25867Y-8100D01*
X-26000Y-8333D01*
X-26200Y-8533D01*
X-26433Y-8667D01*
X-26700Y-8700D01*
G01X-25467D02*
Y-6700D01*
X-24600Y-8367D01*
X-23733Y-6700D01*
Y-8700D01*
G01X-48517Y14769D02*
Y12769D01*
X-47183D01*
G01X-46383Y14436D02*
X-46183Y14636D01*
X-45950Y14736D01*
X-45683Y14769D01*
X-45350Y14702D01*
X-45117Y14536D01*
X-45050Y14336D01*
X-45083Y14136D01*
X-45217Y13969D01*
X-45883Y13636D01*
X-46183Y13402D01*
X-46383Y13069D01*
X-46450Y12769D01*
X-45050D01*
G01X-41283Y13836D02*
X-41150Y13936D01*
X-41050Y14102D01*
X-40983Y14336D01*
X-41050Y14536D01*
X-41183Y14669D01*
X-41417Y14769D01*
X-42317D01*
Y12769D01*
X-41217D01*
X-40983Y12902D01*
X-40850Y13102D01*
X-40783Y13336D01*
X-40850Y13569D01*
X-41050Y13769D01*
X-41283Y13836D01*
X-42317D01*
G01X-39450Y12769D02*
X-39717Y12802D01*
X-39950Y12936D01*
X-40150Y13136D01*
X-40283Y13369D01*
X-40350Y13636D01*
Y13902D01*
X-40283Y14169D01*
X-40150Y14402D01*
X-39950Y14602D01*
X-39717Y14736D01*
X-39450Y14769D01*
X-39183Y14736D01*
X-38950Y14602D01*
X-38750Y14402D01*
X-38617Y14169D01*
X-38550Y13902D01*
Y13636D01*
X-38617Y13369D01*
X-38750Y13136D01*
X-38950Y12936D01*
X-39183Y12802D01*
X-39450Y12769D01*
G01X-37350Y14769D02*
Y12769D01*
G01X-38117Y14769D02*
X-36583D01*
G01X-35250D02*
Y12769D01*
G01X-36017Y14769D02*
X-34483D01*
G01X-33150Y12769D02*
X-33417Y12802D01*
X-33650Y12936D01*
X-33850Y13136D01*
X-33983Y13369D01*
X-34050Y13636D01*
Y13902D01*
X-33983Y14169D01*
X-33850Y14402D01*
X-33650Y14602D01*
X-33417Y14736D01*
X-33150Y14769D01*
X-32883Y14736D01*
X-32650Y14602D01*
X-32450Y14402D01*
X-32317Y14169D01*
X-32250Y13902D01*
Y13636D01*
X-32317Y13369D01*
X-32450Y13136D01*
X-32650Y12936D01*
X-32883Y12802D01*
X-33150Y12769D01*
G01X-31917D02*
Y14769D01*
X-31050Y13102D01*
X-30183Y14769D01*
Y12769D01*
G01X-26117Y14602D02*
X-26317Y14702D01*
X-26550Y14769D01*
X-26817D01*
X-27117Y14669D01*
X-27350Y14502D01*
X-27517Y14302D01*
X-27650Y13969D01*
X-27683Y13669D01*
X-27617Y13369D01*
X-27517Y13169D01*
X-27317Y12969D01*
X-27083Y12836D01*
X-26850Y12769D01*
X-26617D01*
X-26383Y12836D01*
X-26183Y12936D01*
X-26017Y13069D01*
G01X-24750Y12769D02*
X-25017Y12802D01*
X-25250Y12936D01*
X-25450Y13136D01*
X-25583Y13369D01*
X-25650Y13636D01*
Y13902D01*
X-25583Y14169D01*
X-25450Y14402D01*
X-25250Y14602D01*
X-25017Y14736D01*
X-24750Y14769D01*
X-24483Y14736D01*
X-24250Y14602D01*
X-24050Y14402D01*
X-23917Y14169D01*
X-23850Y13902D01*
Y13636D01*
X-23917Y13369D01*
X-24050Y13136D01*
X-24250Y12936D01*
X-24483Y12802D01*
X-24750Y12769D01*
G01X-23417D02*
Y14769D01*
X-21883Y12769D01*
Y14769D01*
G01X-21283Y12769D02*
Y14769D01*
X-20617D01*
X-20350Y14669D01*
X-20150Y14536D01*
X-19983Y14336D01*
X-19850Y14102D01*
X-19817Y13769D01*
X-19850Y13436D01*
X-19983Y13202D01*
X-20150Y13002D01*
X-20350Y12869D01*
X-20617Y12769D01*
X-21283D01*
G01X-19183Y14769D02*
Y13336D01*
X-19050Y13036D01*
X-18783Y12836D01*
X-18450Y12769D01*
X-18117Y12836D01*
X-17850Y13036D01*
X-17717Y13336D01*
Y14769D01*
G01X-15617Y14602D02*
X-15817Y14702D01*
X-16050Y14769D01*
X-16317D01*
X-16617Y14669D01*
X-16850Y14502D01*
X-17017Y14302D01*
X-17150Y13969D01*
X-17183Y13669D01*
X-17117Y13369D01*
X-17017Y13169D01*
X-16817Y12969D01*
X-16583Y12836D01*
X-16350Y12769D01*
X-16117D01*
X-15883Y12836D01*
X-15683Y12936D01*
X-15517Y13069D01*
G01X-14250Y14769D02*
Y12769D01*
G01X-15017Y14769D02*
X-13483D01*
G01X-12150Y12769D02*
X-12417Y12802D01*
X-12650Y12936D01*
X-12850Y13136D01*
X-12983Y13369D01*
X-13050Y13636D01*
Y13902D01*
X-12983Y14169D01*
X-12850Y14402D01*
X-12650Y14602D01*
X-12417Y14736D01*
X-12150Y14769D01*
X-11883Y14736D01*
X-11650Y14602D01*
X-11450Y14402D01*
X-11317Y14169D01*
X-11250Y13902D01*
Y13636D01*
X-11317Y13369D01*
X-11450Y13136D01*
X-11650Y12936D01*
X-11883Y12802D01*
X-12150Y12769D01*
G01X-10717D02*
Y14769D01*
X-9883D01*
X-9617Y14669D01*
X-9450Y14536D01*
X-9383Y14269D01*
X-9450Y14002D01*
X-9650Y13836D01*
X-9883Y13736D01*
X-10717D01*
G01X-9883D02*
X-9383Y12769D01*
G01X-44383Y10036D02*
X-42917Y11503D01*
G01X-43650Y11770D02*
Y9770D01*
G01X-42917Y10036D02*
X-44383Y11503D01*
G01X-44650Y10770D02*
X-42650D01*
G01X-38050Y10370D02*
X-37783Y10203D01*
X-37483Y10103D01*
X-37217D01*
X-36950Y10203D01*
X-36750Y10370D01*
X-36650Y10603D01*
X-36717Y10836D01*
X-36883Y11036D01*
X-37183Y11170D01*
X-37583Y11236D01*
X-37817Y11370D01*
X-37917Y11603D01*
X-37850Y11836D01*
X-37683Y12003D01*
X-37450Y12103D01*
X-37217D01*
X-36983Y12036D01*
X-36783Y11870D01*
G01X-35983Y12103D02*
Y10670D01*
X-35850Y10370D01*
X-35583Y10170D01*
X-35250Y10103D01*
X-34917Y10170D01*
X-34650Y10370D01*
X-34517Y10670D01*
Y12103D01*
G01X-33817Y10103D02*
Y12103D01*
X-32983D01*
X-32717Y12003D01*
X-32550Y11870D01*
X-32483Y11603D01*
X-32550Y11336D01*
X-32750Y11170D01*
X-32983Y11070D01*
X-33817D01*
G01X-32983D02*
X-32483Y10103D01*
G01X-31683D02*
Y12103D01*
X-30417D01*
G01X-30883Y11136D02*
X-31683D01*
G01X-29783Y10103D02*
X-28950Y12103D01*
X-28117Y10103D01*
G01X-28417Y10803D02*
X-29483D01*
G01X-26117Y11936D02*
X-26317Y12036D01*
X-26550Y12103D01*
X-26817D01*
X-27117Y12003D01*
X-27350Y11836D01*
X-27517Y11636D01*
X-27650Y11303D01*
X-27683Y11003D01*
X-27617Y10703D01*
X-27517Y10503D01*
X-27317Y10303D01*
X-27083Y10170D01*
X-26850Y10103D01*
X-26617D01*
X-26383Y10170D01*
X-26183Y10270D01*
X-26017Y10403D01*
G01X-24083Y10103D02*
X-25417D01*
Y12103D01*
X-24083D01*
G01X-24617Y11136D02*
X-25417D01*
G01X-44383Y112058D02*
X-42917Y113525D01*
G01X-43650Y113792D02*
Y111792D01*
G01X-42917Y112058D02*
X-44383Y113525D01*
G01X-44650Y112792D02*
X-42650D01*
G01X-38083Y112125D02*
Y114125D01*
X-37417D01*
X-37150Y114025D01*
X-36950Y113892D01*
X-36783Y113692D01*
X-36650Y113458D01*
X-36617Y113125D01*
X-36650Y112792D01*
X-36783Y112558D01*
X-36950Y112358D01*
X-37150Y112225D01*
X-37417Y112125D01*
X-38083D01*
G01X-35650Y114125D02*
X-34850D01*
G01X-35250D02*
Y112125D01*
G01X-35650D02*
X-34850D01*
G01X-32483D02*
X-33817D01*
Y114125D01*
X-32483D01*
G01X-33017Y113158D02*
X-33817D01*
G01X-31717Y114125D02*
Y112125D01*
X-30383D01*
G01X-28283D02*
X-29617D01*
Y114125D01*
X-28283D01*
G01X-28817Y113158D02*
X-29617D01*
G01X-26117Y113958D02*
X-26317Y114058D01*
X-26550Y114125D01*
X-26817D01*
X-27117Y114025D01*
X-27350Y113858D01*
X-27517Y113658D01*
X-27650Y113325D01*
X-27683Y113025D01*
X-27617Y112725D01*
X-27517Y112525D01*
X-27317Y112325D01*
X-27083Y112192D01*
X-26850Y112125D01*
X-26617D01*
X-26383Y112192D01*
X-26183Y112292D01*
X-26017Y112425D01*
G01X-24750Y114125D02*
Y112125D01*
G01X-25517Y114125D02*
X-23983D01*
G01X-23317Y112125D02*
Y114125D01*
X-22483D01*
X-22217Y114025D01*
X-22050Y113892D01*
X-21983Y113625D01*
X-22050Y113358D01*
X-22250Y113192D01*
X-22483Y113092D01*
X-23317D01*
G01X-22483D02*
X-21983Y112125D01*
G01X-20950Y114125D02*
X-20150D01*
G01X-20550D02*
Y112125D01*
G01X-20950D02*
X-20150D01*
G01X-17717Y113958D02*
X-17917Y114058D01*
X-18150Y114125D01*
X-18417D01*
X-18717Y114025D01*
X-18950Y113858D01*
X-19117Y113658D01*
X-19250Y113325D01*
X-19283Y113025D01*
X-19217Y112725D01*
X-19117Y112525D01*
X-18917Y112325D01*
X-18683Y112192D01*
X-18450Y112125D01*
X-18217D01*
X-17983Y112192D01*
X-17783Y112292D01*
X-17617Y112425D01*
G01X-48517Y210458D02*
Y208458D01*
X-47183D01*
G01X-45750D02*
Y210458D01*
X-46150Y210058D01*
G01Y208458D02*
X-45350D01*
G01X-41550Y210458D02*
Y208458D01*
G01X-42317Y210458D02*
X-40783D01*
G01X-39450Y208458D02*
X-39717Y208491D01*
X-39950Y208625D01*
X-40150Y208825D01*
X-40283Y209058D01*
X-40350Y209325D01*
Y209591D01*
X-40283Y209858D01*
X-40150Y210091D01*
X-39950Y210291D01*
X-39717Y210425D01*
X-39450Y210458D01*
X-39183Y210425D01*
X-38950Y210291D01*
X-38750Y210091D01*
X-38617Y209858D01*
X-38550Y209591D01*
Y209325D01*
X-38617Y209058D01*
X-38750Y208825D01*
X-38950Y208625D01*
X-39183Y208491D01*
X-39450Y208458D01*
G01X-38017D02*
Y210458D01*
X-37217D01*
X-36950Y210358D01*
X-36750Y210125D01*
X-36683Y209858D01*
X-36750Y209591D01*
X-36917Y209391D01*
X-37217Y209291D01*
X-38017D01*
G01X-32417Y210291D02*
X-32617Y210391D01*
X-32850Y210458D01*
X-33117D01*
X-33417Y210358D01*
X-33650Y210191D01*
X-33817Y209991D01*
X-33950Y209658D01*
X-33983Y209358D01*
X-33917Y209058D01*
X-33817Y208858D01*
X-33617Y208658D01*
X-33383Y208525D01*
X-33150Y208458D01*
X-32917D01*
X-32683Y208525D01*
X-32483Y208625D01*
X-32317Y208758D01*
G01X-31050Y208458D02*
X-31317Y208491D01*
X-31550Y208625D01*
X-31750Y208825D01*
X-31883Y209058D01*
X-31950Y209325D01*
Y209591D01*
X-31883Y209858D01*
X-31750Y210091D01*
X-31550Y210291D01*
X-31317Y210425D01*
X-31050Y210458D01*
X-30783Y210425D01*
X-30550Y210291D01*
X-30350Y210091D01*
X-30217Y209858D01*
X-30150Y209591D01*
Y209325D01*
X-30217Y209058D01*
X-30350Y208825D01*
X-30550Y208625D01*
X-30783Y208491D01*
X-31050Y208458D01*
G01X-29717D02*
Y210458D01*
X-28183Y208458D01*
Y210458D01*
G01X-27583Y208458D02*
Y210458D01*
X-26917D01*
X-26650Y210358D01*
X-26450Y210225D01*
X-26283Y210025D01*
X-26150Y209791D01*
X-26117Y209458D01*
X-26150Y209125D01*
X-26283Y208891D01*
X-26450Y208691D01*
X-26650Y208558D01*
X-26917Y208458D01*
X-27583D01*
G01X-25483Y210458D02*
Y209025D01*
X-25350Y208725D01*
X-25083Y208525D01*
X-24750Y208458D01*
X-24417Y208525D01*
X-24150Y208725D01*
X-24017Y209025D01*
Y210458D01*
G01X-21917Y210291D02*
X-22117Y210391D01*
X-22350Y210458D01*
X-22617D01*
X-22917Y210358D01*
X-23150Y210191D01*
X-23317Y209991D01*
X-23450Y209658D01*
X-23483Y209358D01*
X-23417Y209058D01*
X-23317Y208858D01*
X-23117Y208658D01*
X-22883Y208525D01*
X-22650Y208458D01*
X-22417D01*
X-22183Y208525D01*
X-21983Y208625D01*
X-21817Y208758D01*
G01X-20550Y210458D02*
Y208458D01*
G01X-21317Y210458D02*
X-19783D01*
G01X-18450Y208458D02*
X-18717Y208491D01*
X-18950Y208625D01*
X-19150Y208825D01*
X-19283Y209058D01*
X-19350Y209325D01*
Y209591D01*
X-19283Y209858D01*
X-19150Y210091D01*
X-18950Y210291D01*
X-18717Y210425D01*
X-18450Y210458D01*
X-18183Y210425D01*
X-17950Y210291D01*
X-17750Y210091D01*
X-17617Y209858D01*
X-17550Y209591D01*
Y209325D01*
X-17617Y209058D01*
X-17750Y208825D01*
X-17950Y208625D01*
X-18183Y208491D01*
X-18450Y208458D01*
G01X-17017D02*
Y210458D01*
X-16183D01*
X-15917Y210358D01*
X-15750Y210225D01*
X-15683Y209958D01*
X-15750Y209691D01*
X-15950Y209525D01*
X-16183Y209425D01*
X-17017D01*
G01X-16183D02*
X-15683Y208458D01*
G01X-44383Y211723D02*
X-42917Y213190D01*
G01X-43650Y213457D02*
Y211457D01*
G01X-42917Y211723D02*
X-44383Y213190D01*
G01X-44650Y212457D02*
X-42650D01*
G01X-38050Y212057D02*
X-37783Y211890D01*
X-37483Y211790D01*
X-37217D01*
X-36950Y211890D01*
X-36750Y212057D01*
X-36650Y212290D01*
X-36717Y212523D01*
X-36883Y212723D01*
X-37183Y212857D01*
X-37583Y212923D01*
X-37817Y213057D01*
X-37917Y213290D01*
X-37850Y213523D01*
X-37683Y213690D01*
X-37450Y213790D01*
X-37217D01*
X-36983Y213723D01*
X-36783Y213557D01*
G01X-35983Y213790D02*
Y212357D01*
X-35850Y212057D01*
X-35583Y211857D01*
X-35250Y211790D01*
X-34917Y211857D01*
X-34650Y212057D01*
X-34517Y212357D01*
Y213790D01*
G01X-33817Y211790D02*
Y213790D01*
X-32983D01*
X-32717Y213690D01*
X-32550Y213557D01*
X-32483Y213290D01*
X-32550Y213023D01*
X-32750Y212857D01*
X-32983Y212757D01*
X-33817D01*
G01X-32983D02*
X-32483Y211790D01*
G01X-31683D02*
Y213790D01*
X-30417D01*
G01X-30883Y212823D02*
X-31683D01*
G01X-29783Y211790D02*
X-28950Y213790D01*
X-28117Y211790D01*
G01X-28417Y212490D02*
X-29483D01*
G01X-26117Y213623D02*
X-26317Y213723D01*
X-26550Y213790D01*
X-26817D01*
X-27117Y213690D01*
X-27350Y213523D01*
X-27517Y213323D01*
X-27650Y212990D01*
X-27683Y212690D01*
X-27617Y212390D01*
X-27517Y212190D01*
X-27317Y211990D01*
X-27083Y211857D01*
X-26850Y211790D01*
X-26617D01*
X-26383Y211857D01*
X-26183Y211957D01*
X-26017Y212090D01*
G01X-24083Y211790D02*
X-25417D01*
Y213790D01*
X-24083D01*
G01X-24617Y212823D02*
X-25417D01*
G01X-38867Y-37700D02*
Y-35700D01*
X-38067D01*
X-37800Y-35800D01*
X-37600Y-36033D01*
X-37533Y-36300D01*
X-37600Y-36567D01*
X-37767Y-36767D01*
X-38067Y-36867D01*
X-38867D01*
G01X-36767Y-35700D02*
Y-37700D01*
X-35433D01*
G01X-34833D02*
X-34000Y-35700D01*
X-33167Y-37700D01*
G01X-33467Y-37000D02*
X-34533D01*
G01X-31900Y-35700D02*
Y-37700D01*
G01X-32667Y-35700D02*
X-31133D01*
G01X-29133Y-37700D02*
X-30467D01*
Y-35700D01*
X-29133D01*
G01X-29667Y-36667D02*
X-30467D01*
G01X-28433Y-37700D02*
Y-35700D01*
X-27767D01*
X-27500Y-35800D01*
X-27300Y-35933D01*
X-27133Y-36133D01*
X-27000Y-36367D01*
X-26967Y-36700D01*
X-27000Y-37033D01*
X-27133Y-37267D01*
X-27300Y-37467D01*
X-27500Y-37600D01*
X-27767Y-37700D01*
X-28433D01*
G01X-38867Y-43450D02*
Y-41450D01*
X-38067D01*
X-37800Y-41550D01*
X-37600Y-41783D01*
X-37533Y-42050D01*
X-37600Y-42317D01*
X-37767Y-42517D01*
X-38067Y-42617D01*
X-38867D01*
G01X-36767Y-41450D02*
Y-43450D01*
X-35433D01*
G01X-34833D02*
X-34000Y-41450D01*
X-33167Y-43450D01*
G01X-33467Y-42750D02*
X-34533D01*
G01X-31900Y-41450D02*
Y-43450D01*
G01X-32667Y-41450D02*
X-31133D01*
G01X-29133Y-43450D02*
X-30467D01*
Y-41450D01*
X-29133D01*
G01X-29667Y-42417D02*
X-30467D01*
G01X-28433Y-43450D02*
Y-41450D01*
X-27767D01*
X-27500Y-41550D01*
X-27300Y-41683D01*
X-27133Y-41883D01*
X-27000Y-42117D01*
X-26967Y-42450D01*
X-27000Y-42783D01*
X-27133Y-43017D01*
X-27300Y-43217D01*
X-27500Y-43350D01*
X-27767Y-43450D01*
X-28433D01*
G01X-18150Y-37700D02*
X-18417Y-37667D01*
X-18650Y-37533D01*
X-18850Y-37333D01*
X-18983Y-37100D01*
X-19050Y-36833D01*
Y-36567D01*
X-18983Y-36300D01*
X-18850Y-36067D01*
X-18650Y-35867D01*
X-18417Y-35733D01*
X-18150Y-35700D01*
X-17883Y-35733D01*
X-17650Y-35867D01*
X-17450Y-36067D01*
X-17317Y-36300D01*
X-17250Y-36567D01*
Y-36833D01*
X-17317Y-37100D01*
X-17450Y-37333D01*
X-17650Y-37533D01*
X-17883Y-37667D01*
X-18150Y-37700D01*
G01X-17883Y-37167D02*
X-17483Y-37700D01*
G01X-16050Y-35700D02*
Y-37700D01*
G01X-16817Y-35700D02*
X-15283D01*
G01X-13950Y-37700D02*
Y-36800D01*
X-14617Y-35700D01*
G01X-13283D02*
X-13950Y-36800D01*
G01X-17833Y-43050D02*
X-17633Y-43283D01*
X-17367Y-43417D01*
X-17067Y-43450D01*
X-16800Y-43417D01*
X-16533Y-43250D01*
X-16367Y-43050D01*
X-16333Y-42850D01*
X-16400Y-42617D01*
X-16633Y-42450D01*
X-16867Y-42383D01*
X-17167D01*
G01X-16867D02*
X-16667Y-42283D01*
X-16500Y-42117D01*
X-16433Y-41917D01*
X-16500Y-41717D01*
X-16667Y-41550D01*
X-16967Y-41450D01*
X-17267Y-41483D01*
X-17567Y-41617D01*
G01X-15733Y-43050D02*
X-15533Y-43283D01*
X-15267Y-43417D01*
X-14967Y-43450D01*
X-14700Y-43417D01*
X-14433Y-43250D01*
X-14267Y-43050D01*
X-14233Y-42850D01*
X-14300Y-42617D01*
X-14533Y-42450D01*
X-14767Y-42383D01*
X-15067D01*
G01X-14767D02*
X-14567Y-42283D01*
X-14400Y-42117D01*
X-14333Y-41917D01*
X-14400Y-41717D01*
X-14567Y-41550D01*
X-14867Y-41450D01*
X-15167Y-41483D01*
X-15467Y-41617D01*
G54D13*
G01X0Y0D02*
Y160000D01*
G01X160000Y0D02*
X0D01*
G01Y160000D02*
X160000D01*
G01D02*
Y0D01*
G54D14*
G01X-110950Y15435D02*
Y208815D01*
X-50950D01*
Y15435D01*
X-110950D01*
G01X-92000Y-46200D02*
Y-5700D01*
X-9700D01*
Y-46200D01*
X-92000D01*
G01Y-30700D02*
X-9700D01*
G01X-92000Y-34700D02*
X-9700D01*
G01X-92000Y-38700D02*
X-9700D01*
G01X-77200Y-34700D02*
Y-46200D01*
G01X-43500Y-34700D02*
Y-46200D01*
G01X-22400Y-34700D02*
Y-46200D01*
M02*
