G04 ================== begin FILE IDENTIFICATION RECORD ==================*
G04 Layout Name:  PROIECT-PCB-V4.brd*
G04 Film Name:    SMTOP*
G04 File Format:  Gerber RS274X*
G04 File Origin:  Cadence Allegro 17.2-S025*
G04 Origin Date:  Sun Jan 22 19:45:35 2023*
G04 *
G04 Layer:  VIA CLASS/SOLDERMASK_TOP*
G04 Layer:  PIN/SOLDERMASK_TOP*
G04 Layer:  PACKAGE GEOMETRY/SOLDERMASK_TOP*
G04 Layer:  BOARD GEOMETRY/SOLDERMASK_TOP*
G04 *
G04 Offset:    (0.00 0.00)*
G04 Mirror:    No*
G04 Mode:      Positive*
G04 Rotation:  0*
G04 FullContactRelief:  No*
G04 UndefLineWidth:     0.00*
G04 ================== end FILE IDENTIFICATION RECORD ====================*
%FSLAX25Y25*MOIN*%
%IR0*IPPOS*OFA0.00000B0.00000*MIA0B0*SFA1.00000B1.00000*%
%ADD21R,.09X.26*%
%ADD12R,.106X.066*%
%ADD20R,.066X.106*%
%ADD15C,.044*%
%ADD11C,.08*%
%ADD18R,.05512X.05512*%
%ADD25C,.03937*%
%ADD23R,.06496X.13583*%
%ADD22R,.255X.26*%
%ADD10R,.046X.06*%
%ADD17R,.06X.046*%
%ADD24R,.04528X.04724*%
%ADD19R,.08268X.05512*%
%ADD13R,.04724X.04528*%
%ADD16R,.04528X.06496*%
%ADD14R,.06496X.04528*%
%LPD*%
G75*
G54D10*
X11800Y115000D03*
X15900Y106900D03*
X20000Y115000D03*
X65100Y42100D03*
X61000Y34000D03*
X69200D03*
X126300Y28500D03*
X130400Y36600D03*
X122200D03*
X145100Y118100D03*
X141000Y110000D03*
X149200D03*
G54D11*
X20000Y20000D03*
X140000Y140000D03*
G54D20*
X95500Y18000D03*
X108500D03*
X112500Y143000D03*
X125500D03*
G54D12*
X17000Y83500D03*
Y96500D03*
G54D21*
X87386Y53868D03*
X117986D03*
X105495D03*
X136095D03*
G54D13*
X41457Y67000D03*
X48543D03*
X58543Y120000D03*
X51457D03*
G54D22*
X96580Y80270D03*
X127180D03*
G54D14*
X43000Y82937D03*
Y75063D03*
X37000Y148937D03*
Y141063D03*
X72700Y56137D03*
Y48263D03*
X53000Y75063D03*
Y82937D03*
X64000Y83937D03*
Y76063D03*
X67000Y148937D03*
Y141063D03*
X76000Y148937D03*
Y141063D03*
X89000Y148937D03*
Y141063D03*
X98000Y140963D03*
Y148837D03*
X104000Y122063D03*
Y129937D03*
X136800Y10963D03*
Y18837D03*
X147000Y29063D03*
Y36937D03*
X148000Y141063D03*
Y148937D03*
Y126063D03*
Y133937D03*
G54D23*
X82000Y125205D03*
Y100795D03*
G54D24*
X105000Y106457D03*
Y113543D03*
G54D15*
X37500Y83000D03*
X25500Y92000D03*
X31500Y90000D03*
X28500Y103000D03*
X29000Y117500D03*
X21500Y105000D03*
X19000Y121000D03*
X70000Y26000D03*
X61000Y56000D03*
X66000Y89000D03*
X64500Y117000D03*
X47000Y94500D03*
X45500Y138000D03*
X70000Y135500D03*
X61000Y141000D03*
X98500Y26500D03*
X77500Y33500D03*
X79463Y56037D03*
X98963D03*
X99795Y100795D03*
X98063Y122063D03*
X80000Y136000D03*
X83000Y146000D03*
X104500Y26000D03*
X124000Y24500D03*
X127723Y47000D03*
X111000Y96000D03*
X121500Y135500D03*
X104000Y144000D03*
X136000Y120000D03*
X135000Y97000D03*
X136000Y110000D03*
X139500Y132000D03*
G54D16*
X33063Y112000D03*
X40937D03*
X36063Y122000D03*
Y132000D03*
X43937Y122000D03*
X52063Y96000D03*
X59937D03*
X43937Y132000D03*
X58937Y130000D03*
X51063D03*
X75063Y14000D03*
X82937D03*
X75063Y25000D03*
X82937D03*
X90737Y33300D03*
X82863D03*
X126737Y16100D03*
X118863D03*
G54D25*
X147000Y16000D03*
X148000Y95000D03*
G54D17*
X42100Y98900D03*
X34000Y103000D03*
Y94800D03*
X60100Y107900D03*
X52000Y112000D03*
Y103800D03*
X46900Y145100D03*
X55000Y141000D03*
Y149200D03*
G54D18*
X14945Y126000D03*
X24000D03*
X127055Y124000D03*
X118000D03*
G54D19*
X19472Y148244D03*
X122528Y101756D03*
M02*
