G04 ================== begin FILE IDENTIFICATION RECORD ==================*
G04 Layout Name:  PROIECT-PCB-V4.brd*
G04 Film Name:    SSTOP*
G04 File Format:  Gerber RS274X*
G04 File Origin:  Cadence Allegro 17.2-S025*
G04 Origin Date:  Sun Jan 22 19:45:35 2023*
G04 *
G04 Layer:  REF DES/SILKSCREEN_TOP*
G04 Layer:  PACKAGE GEOMETRY/SILKSCREEN_TOP*
G04 Layer:  MANUFACTURING/AUTOSILK_TOP*
G04 Layer:  BOARD GEOMETRY/SILKSCREEN_TOP*
G04 *
G04 Offset:    (0.00 0.00)*
G04 Mirror:    No*
G04 Mode:      Positive*
G04 Rotation:  0*
G04 FullContactRelief:  No*
G04 UndefLineWidth:     10.00*
G04 ================== end FILE IDENTIFICATION RECORD ====================*
%FSLAX25Y25*MOIN*%
%IR0*IPPOS*OFA0.00000B0.00000*MIA0B0*SFA1.00000B1.00000*%
%ADD10C,.00079*%
%ADD11C,.003*%
%ADD12C,.005*%
%ADD13C,.00984*%
%ADD14C,.00787*%
G75*
%LPD*%
G75*
G54D10*
G01X149638Y16830D02*
X149539Y16748D01*
X149474Y16650D01*
X149441Y16535D01*
X149474Y16404D01*
X149539Y16305D01*
X149638Y16207D01*
X149769Y16174D01*
X150425D01*
G01X149589Y15859D02*
X149507Y15760D01*
X149457Y15646D01*
X149441Y15498D01*
X149474Y15350D01*
X149539Y15236D01*
X149654Y15154D01*
X149785Y15137D01*
X149917Y15170D01*
X149999Y15252D01*
X150064Y15367D01*
X150081Y15482D01*
X150064Y15596D01*
X149999Y15744D01*
X150425Y15695D01*
Y15252D01*
G01X147170Y98297D02*
X147252Y98198D01*
X147350Y98133D01*
X147465Y98100D01*
X147596Y98133D01*
X147695Y98198D01*
X147793Y98297D01*
X147826Y98428D01*
Y99084D01*
G01X148699Y98100D02*
Y99084D01*
X148092Y98379D01*
X148912D01*
G54D11*
G01X152000Y8000D02*
X8000D01*
Y152000D01*
X152000D01*
Y8000D01*
G01X10000Y105000D02*
X9733Y105033D01*
X9500Y105167D01*
X9300Y105367D01*
X9167Y105600D01*
X9100Y105867D01*
Y106133D01*
X9167Y106400D01*
X9300Y106633D01*
X9500Y106833D01*
X9733Y106967D01*
X10000Y107000D01*
X10267Y106967D01*
X10500Y106833D01*
X10700Y106633D01*
X10833Y106400D01*
X10900Y106133D01*
Y105867D01*
X10833Y105600D01*
X10700Y105367D01*
X10500Y105167D01*
X10267Y105033D01*
X10000Y105000D01*
G01X10267Y105533D02*
X10667Y105000D01*
G01X11467Y106667D02*
X11667Y106867D01*
X11900Y106967D01*
X12167Y107000D01*
X12500Y106933D01*
X12733Y106767D01*
X12800Y106567D01*
X12767Y106367D01*
X12633Y106200D01*
X11967Y105867D01*
X11667Y105633D01*
X11467Y105300D01*
X11400Y105000D01*
X12800D01*
G01X21867Y27867D02*
X22067Y28067D01*
X22300Y28167D01*
X22567Y28200D01*
X22900Y28133D01*
X23133Y27967D01*
X23200Y27767D01*
X23167Y27567D01*
X23033Y27400D01*
X22367Y27067D01*
X22067Y26833D01*
X21867Y26500D01*
X21800Y26200D01*
X23200D01*
G01X24600Y28200D02*
X24333Y28133D01*
X24133Y27967D01*
X24000Y27767D01*
X23900Y27500D01*
X23867Y27200D01*
X23900Y26900D01*
X24000Y26633D01*
X24133Y26433D01*
X24333Y26267D01*
X24600Y26200D01*
X24867Y26267D01*
X25067Y26433D01*
X25200Y26633D01*
X25300Y26900D01*
X25333Y27200D01*
X25300Y27500D01*
X25200Y27767D01*
X25067Y27967D01*
X24867Y28133D01*
X24600Y28200D01*
G01X26067Y27867D02*
X26267Y28067D01*
X26500Y28167D01*
X26767Y28200D01*
X27100Y28133D01*
X27333Y27967D01*
X27400Y27767D01*
X27367Y27567D01*
X27233Y27400D01*
X26567Y27067D01*
X26267Y26833D01*
X26067Y26500D01*
X26000Y26200D01*
X27400D01*
G01X28167Y27867D02*
X28367Y28067D01*
X28600Y28167D01*
X28867Y28200D01*
X29200Y28133D01*
X29433Y27967D01*
X29500Y27767D01*
X29467Y27567D01*
X29333Y27400D01*
X28667Y27067D01*
X28367Y26833D01*
X28167Y26500D01*
X28100Y26200D01*
X29500D01*
G01X32567Y26867D02*
X33433D01*
G01X36567Y27867D02*
X36767Y28067D01*
X37000Y28167D01*
X37267Y28200D01*
X37600Y28133D01*
X37833Y27967D01*
X37900Y27767D01*
X37867Y27567D01*
X37733Y27400D01*
X37067Y27067D01*
X36767Y26833D01*
X36567Y26500D01*
X36500Y26200D01*
X37900D01*
G01X39300Y28200D02*
X39033Y28133D01*
X38833Y27967D01*
X38700Y27767D01*
X38600Y27500D01*
X38567Y27200D01*
X38600Y26900D01*
X38700Y26633D01*
X38833Y26433D01*
X39033Y26267D01*
X39300Y26200D01*
X39567Y26267D01*
X39767Y26433D01*
X39900Y26633D01*
X40000Y26900D01*
X40033Y27200D01*
X40000Y27500D01*
X39900Y27767D01*
X39767Y27967D01*
X39567Y28133D01*
X39300Y28200D01*
G01X40767Y27867D02*
X40967Y28067D01*
X41200Y28167D01*
X41467Y28200D01*
X41800Y28133D01*
X42033Y27967D01*
X42100Y27767D01*
X42067Y27567D01*
X41933Y27400D01*
X41267Y27067D01*
X40967Y26833D01*
X40767Y26500D01*
X40700Y26200D01*
X42100D01*
G01X42767Y26600D02*
X42967Y26367D01*
X43233Y26233D01*
X43533Y26200D01*
X43800Y26233D01*
X44067Y26400D01*
X44233Y26600D01*
X44267Y26800D01*
X44200Y27033D01*
X43967Y27200D01*
X43733Y27267D01*
X43433D01*
G01X43733D02*
X43933Y27367D01*
X44100Y27533D01*
X44167Y27733D01*
X44100Y27933D01*
X43933Y28100D01*
X43633Y28200D01*
X43333Y28167D01*
X43033Y28033D01*
G01X11300Y30367D02*
X11567Y30200D01*
X11867Y30100D01*
X12133D01*
X12400Y30200D01*
X12600Y30367D01*
X12700Y30600D01*
X12633Y30833D01*
X12467Y31033D01*
X12167Y31167D01*
X11767Y31233D01*
X11533Y31367D01*
X11433Y31600D01*
X11500Y31833D01*
X11667Y32000D01*
X11900Y32100D01*
X12133D01*
X12367Y32033D01*
X12567Y31867D01*
G01X14100Y32100D02*
Y30100D01*
G01X13333Y32100D02*
X14867D01*
G01X16867Y30100D02*
X15533D01*
Y32100D01*
X16867D01*
G01X16333Y31133D02*
X15533D01*
G01X17667Y30100D02*
Y32100D01*
X18933D01*
G01X18467Y31133D02*
X17667D01*
G01X19567Y30100D02*
X20400Y32100D01*
X21233Y30100D01*
G01X20933Y30800D02*
X19867D01*
G01X21733Y30100D02*
Y32100D01*
X23267Y30100D01*
Y32100D01*
G01X25833Y30100D02*
Y32100D01*
X26700Y30433D01*
X27567Y32100D01*
Y30100D01*
G01X28800Y31433D02*
Y30100D01*
G01Y31967D02*
X28733Y32000D01*
Y32067D01*
X28800Y32100D01*
X28867Y32067D01*
Y32000D01*
X28800Y31967D01*
G01X30333Y30100D02*
Y32100D01*
G01Y31133D02*
X30500Y31300D01*
X30667Y31400D01*
X30933Y31433D01*
X31133Y31400D01*
X31367Y31267D01*
X31467Y31067D01*
Y30100D01*
G01X33600D02*
Y31433D01*
G01Y31200D02*
X33467Y31333D01*
X33267Y31400D01*
X33033Y31433D01*
X32800Y31367D01*
X32600Y31233D01*
X32467Y31033D01*
X32400Y30767D01*
X32467Y30500D01*
X32600Y30300D01*
X32800Y30167D01*
X33033Y30100D01*
X33267Y30133D01*
X33467Y30233D01*
X33600Y30367D01*
G01X35100Y31433D02*
Y30100D01*
G01Y31967D02*
X35033Y32000D01*
Y32067D01*
X35100Y32100D01*
X35167Y32067D01*
Y32000D01*
X35100Y31967D01*
G01X36767Y30767D02*
X37633D01*
G01X38633Y32100D02*
Y30100D01*
X39967D01*
G01X42000D02*
Y31433D01*
G01Y31200D02*
X41867Y31333D01*
X41667Y31400D01*
X41433Y31433D01*
X41200Y31367D01*
X41000Y31233D01*
X40867Y31033D01*
X40800Y30767D01*
X40867Y30500D01*
X41000Y30300D01*
X41200Y30167D01*
X41433Y30100D01*
X41667Y30133D01*
X41867Y30233D01*
X42000Y30367D01*
G01X42933Y31433D02*
Y30500D01*
X43067Y30267D01*
X43267Y30133D01*
X43500Y30100D01*
X43733Y30133D01*
X43933Y30267D01*
X44067Y30500D01*
G01Y30100D02*
Y31433D01*
G01X45133Y30100D02*
Y31433D01*
G01Y31167D02*
X45300Y31300D01*
X45467Y31400D01*
X45700Y31433D01*
X45867Y31400D01*
X46067Y31300D01*
G01X47200Y31000D02*
X48267D01*
X48167Y31233D01*
X48000Y31367D01*
X47767Y31433D01*
X47533Y31400D01*
X47333Y31300D01*
X47200Y31067D01*
X47133Y30867D01*
Y30667D01*
X47200Y30467D01*
X47367Y30267D01*
X47567Y30133D01*
X47800Y30100D01*
X48033Y30167D01*
X48267Y30367D01*
G01X49233Y30100D02*
Y31433D01*
G01Y31100D02*
X49367Y31267D01*
X49567Y31400D01*
X49833Y31433D01*
X50067Y31400D01*
X50267Y31267D01*
X50367Y31033D01*
Y30100D01*
G01X51900Y32100D02*
Y30100D01*
G01X51433Y31433D02*
X52367D01*
G01X54000D02*
Y30100D01*
G01Y31967D02*
X53933Y32000D01*
Y32067D01*
X54000Y32100D01*
X54067Y32067D01*
Y32000D01*
X54000Y31967D01*
G01X55533Y31433D02*
Y30500D01*
X55667Y30267D01*
X55867Y30133D01*
X56100Y30100D01*
X56333Y30133D01*
X56533Y30267D01*
X56667Y30500D01*
G01Y30100D02*
Y31433D01*
G01X13767Y34500D02*
X14600Y36500D01*
X15433Y34500D01*
G01X15133Y35200D02*
X14067D01*
G01X15867Y34500D02*
X16700Y36500D01*
X17533Y34500D01*
G01X17233Y35200D02*
X16167D01*
G01X18133Y34500D02*
Y36500D01*
X18933D01*
X19200Y36400D01*
X19400Y36167D01*
X19467Y35900D01*
X19400Y35633D01*
X19233Y35433D01*
X18933Y35333D01*
X18133D01*
G01X22567Y35167D02*
X23433D01*
G01X26500Y34767D02*
X26767Y34600D01*
X27067Y34500D01*
X27333D01*
X27600Y34600D01*
X27800Y34767D01*
X27900Y35000D01*
X27833Y35233D01*
X27667Y35433D01*
X27367Y35567D01*
X26967Y35633D01*
X26733Y35767D01*
X26633Y36000D01*
X26700Y36233D01*
X26867Y36400D01*
X27100Y36500D01*
X27333D01*
X27567Y36433D01*
X27767Y36267D01*
G01X29967Y34500D02*
X28633D01*
Y36500D01*
X29967D01*
G01X29433Y35533D02*
X28633D01*
G01X31400Y36500D02*
Y34500D01*
G01X30633Y36500D02*
X32167D01*
G01X34967Y35333D02*
X35200Y35567D01*
X35400Y35700D01*
X35667Y35767D01*
X35900Y35700D01*
X36067Y35567D01*
X36200Y35367D01*
X36233Y35133D01*
X36200Y34933D01*
X36067Y34733D01*
X35867Y34567D01*
X35633Y34500D01*
X35367Y34567D01*
X35133Y34767D01*
X35000Y35067D01*
X34967Y35400D01*
X35033Y35833D01*
X35133Y36067D01*
X35300Y36300D01*
X35533Y36467D01*
X35767Y36500D01*
X36000Y36433D01*
X36167Y36267D01*
G01X39367Y35167D02*
X40233D01*
G01X43333Y34500D02*
Y36500D01*
X44133D01*
X44400Y36400D01*
X44600Y36167D01*
X44667Y35900D01*
X44600Y35633D01*
X44433Y35433D01*
X44133Y35333D01*
X43333D01*
G01X45367Y34500D02*
Y36500D01*
X46033D01*
X46300Y36400D01*
X46500Y36267D01*
X46667Y36067D01*
X46800Y35833D01*
X46833Y35500D01*
X46800Y35167D01*
X46667Y34933D01*
X46500Y34733D01*
X46300Y34600D01*
X46033Y34500D01*
X45367D01*
G01X48933Y36333D02*
X48733Y36433D01*
X48500Y36500D01*
X48233D01*
X47933Y36400D01*
X47700Y36233D01*
X47533Y36033D01*
X47400Y35700D01*
X47367Y35400D01*
X47433Y35100D01*
X47533Y34900D01*
X47733Y34700D01*
X47967Y34567D01*
X48200Y34500D01*
X48433D01*
X48667Y34567D01*
X48867Y34667D01*
X49033Y34800D01*
G01X50967Y34500D02*
X49633D01*
Y36500D01*
X50967D01*
G01X50433Y35533D02*
X49633D01*
G01X52400Y34500D02*
Y36500D01*
X52000Y36100D01*
G01Y34500D02*
X52800D01*
G01X28500Y83400D02*
Y82600D01*
G01Y83000D02*
X26500D01*
G01Y83400D02*
Y82600D01*
G01Y81667D02*
X28500D01*
X26500Y80133D01*
X28500D01*
G01X27500Y104300D02*
Y103633D01*
X26900D01*
X26700Y103833D01*
X26567Y104067D01*
X26500Y104400D01*
X26567Y104733D01*
X26700Y104967D01*
X26900Y105167D01*
X27133Y105300D01*
X27400Y105367D01*
X27633D01*
X27833Y105300D01*
X28067Y105167D01*
X28267Y104967D01*
X28400Y104767D01*
X28500Y104500D01*
Y104267D01*
X28433Y104000D01*
X28300Y103800D01*
G01X26500Y103167D02*
X28500D01*
X26500Y101633D01*
X28500D01*
G01X26500Y101033D02*
X28500D01*
Y100367D01*
X28400Y100100D01*
X28267Y99900D01*
X28067Y99733D01*
X27833Y99600D01*
X27500Y99567D01*
X27167Y99600D01*
X26933Y99733D01*
X26733Y99900D01*
X26600Y100100D01*
X26500Y100367D01*
Y101033D01*
G01X24733Y111000D02*
Y113000D01*
X25567D01*
X25833Y112900D01*
X26000Y112767D01*
X26067Y112500D01*
X26000Y112233D01*
X25800Y112067D01*
X25567Y111967D01*
X24733D01*
G01X25567D02*
X26067Y111000D01*
G01X27500D02*
Y113000D01*
X27100Y112600D01*
G01Y111000D02*
X27900D01*
G01X29600D02*
Y113000D01*
X29200Y112600D01*
G01Y111000D02*
X30000D01*
G01X37233Y116500D02*
Y118500D01*
X38067D01*
X38333Y118400D01*
X38500Y118267D01*
X38567Y118000D01*
X38500Y117733D01*
X38300Y117567D01*
X38067Y117467D01*
X37233D01*
G01X38067D02*
X38567Y116500D01*
G01X40000D02*
Y118500D01*
X39600Y118100D01*
G01Y116500D02*
X40400D01*
G01X42100Y118500D02*
X41833Y118433D01*
X41633Y118267D01*
X41500Y118067D01*
X41400Y117800D01*
X41367Y117500D01*
X41400Y117200D01*
X41500Y116933D01*
X41633Y116733D01*
X41833Y116567D01*
X42100Y116500D01*
X42367Y116567D01*
X42567Y116733D01*
X42700Y116933D01*
X42800Y117200D01*
X42833Y117500D01*
X42800Y117800D01*
X42700Y118067D01*
X42567Y118267D01*
X42367Y118433D01*
X42100Y118500D01*
G01X32000Y98000D02*
X31733Y98033D01*
X31500Y98167D01*
X31300Y98367D01*
X31167Y98600D01*
X31100Y98867D01*
Y99133D01*
X31167Y99400D01*
X31300Y99633D01*
X31500Y99833D01*
X31733Y99967D01*
X32000Y100000D01*
X32267Y99967D01*
X32500Y99833D01*
X32700Y99633D01*
X32833Y99400D01*
X32900Y99133D01*
Y98867D01*
X32833Y98600D01*
X32700Y98367D01*
X32500Y98167D01*
X32267Y98033D01*
X32000Y98000D01*
G01X32267Y98533D02*
X32667Y98000D01*
G01X34100D02*
Y100000D01*
X33700Y99600D01*
G01Y98000D02*
X34500D01*
G01X33000Y129733D02*
X31000D01*
Y130567D01*
X31100Y130833D01*
X31233Y131000D01*
X31500Y131067D01*
X31767Y131000D01*
X31933Y130800D01*
X32033Y130567D01*
Y129733D01*
G01Y130567D02*
X33000Y131067D01*
G01X32600Y131767D02*
X32833Y131967D01*
X32967Y132233D01*
X33000Y132533D01*
X32967Y132800D01*
X32800Y133067D01*
X32600Y133233D01*
X32400Y133267D01*
X32167Y133200D01*
X32000Y132967D01*
X31933Y132733D01*
Y132433D01*
G01Y132733D02*
X31833Y132933D01*
X31667Y133100D01*
X31467Y133167D01*
X31267Y133100D01*
X31100Y132933D01*
X31000Y132633D01*
X31033Y132333D01*
X31167Y132033D01*
G01X33000Y134600D02*
X31000D01*
X31400Y134200D01*
G01X33000D02*
Y135000D01*
G01X25333Y148500D02*
Y150500D01*
X26167D01*
X26433Y150400D01*
X26600Y150267D01*
X26667Y150000D01*
X26600Y149733D01*
X26400Y149567D01*
X26167Y149467D01*
X25333D01*
G01X26167D02*
X26667Y148500D01*
G01X27533Y148733D02*
X27767Y148567D01*
X28033Y148500D01*
X28300Y148567D01*
X28533Y148767D01*
X28700Y149067D01*
X28767Y149367D01*
Y149733D01*
X28700Y150033D01*
X28533Y150300D01*
X28333Y150433D01*
X28100Y150500D01*
X27833Y150433D01*
X27633Y150300D01*
X27500Y150100D01*
X27433Y149833D01*
X27500Y149600D01*
X27667Y149367D01*
X27867Y149233D01*
X28100Y149200D01*
X28367Y149267D01*
X28567Y149433D01*
X28767Y149733D01*
G01X62783Y12300D02*
Y14300D01*
X63617D01*
X63883Y14200D01*
X64050Y14067D01*
X64117Y13800D01*
X64050Y13533D01*
X63850Y13367D01*
X63617Y13267D01*
X62783D01*
G01X63617D02*
X64117Y12300D01*
G01X64917Y13967D02*
X65117Y14167D01*
X65350Y14267D01*
X65617Y14300D01*
X65950Y14233D01*
X66183Y14067D01*
X66250Y13867D01*
X66217Y13667D01*
X66083Y13500D01*
X65417Y13167D01*
X65117Y12933D01*
X64917Y12600D01*
X64850Y12300D01*
X66250D01*
G01X67083Y12533D02*
X67317Y12367D01*
X67583Y12300D01*
X67850Y12367D01*
X68083Y12567D01*
X68250Y12867D01*
X68317Y13167D01*
Y13533D01*
X68250Y13833D01*
X68083Y14100D01*
X67883Y14233D01*
X67650Y14300D01*
X67383Y14233D01*
X67183Y14100D01*
X67050Y13900D01*
X66983Y13633D01*
X67050Y13400D01*
X67217Y13167D01*
X67417Y13033D01*
X67650Y13000D01*
X67917Y13067D01*
X68117Y13233D01*
X68317Y13533D01*
G01X69750Y12300D02*
Y14300D01*
X69350Y13900D01*
G01Y12300D02*
X70150D01*
G01X60383Y24300D02*
Y26300D01*
X61217D01*
X61483Y26200D01*
X61650Y26067D01*
X61717Y25800D01*
X61650Y25533D01*
X61450Y25367D01*
X61217Y25267D01*
X60383D01*
G01X61217D02*
X61717Y24300D01*
G01X62517Y25967D02*
X62717Y26167D01*
X62950Y26267D01*
X63217Y26300D01*
X63550Y26233D01*
X63783Y26067D01*
X63850Y25867D01*
X63817Y25667D01*
X63683Y25500D01*
X63017Y25167D01*
X62717Y24933D01*
X62517Y24600D01*
X62450Y24300D01*
X63850D01*
G01X64683Y24533D02*
X64917Y24367D01*
X65183Y24300D01*
X65450Y24367D01*
X65683Y24567D01*
X65850Y24867D01*
X65917Y25167D01*
Y25533D01*
X65850Y25833D01*
X65683Y26100D01*
X65483Y26233D01*
X65250Y26300D01*
X64983Y26233D01*
X64783Y26100D01*
X64650Y25900D01*
X64583Y25633D01*
X64650Y25400D01*
X64817Y25167D01*
X65017Y25033D01*
X65250Y25000D01*
X65517Y25067D01*
X65717Y25233D01*
X65917Y25533D01*
G01X66717Y25967D02*
X66917Y26167D01*
X67150Y26267D01*
X67417Y26300D01*
X67750Y26233D01*
X67983Y26067D01*
X68050Y25867D01*
X68017Y25667D01*
X67883Y25500D01*
X67217Y25167D01*
X66917Y24933D01*
X66717Y24600D01*
X66650Y24300D01*
X68050D01*
G01X69933Y59200D02*
Y61200D01*
X70767D01*
X71033Y61100D01*
X71200Y60967D01*
X71267Y60700D01*
X71200Y60433D01*
X71000Y60267D01*
X70767Y60167D01*
X69933D01*
G01X70767D02*
X71267Y59200D01*
G01X72067Y60867D02*
X72267Y61067D01*
X72500Y61167D01*
X72767Y61200D01*
X73100Y61133D01*
X73333Y60967D01*
X73400Y60767D01*
X73367Y60567D01*
X73233Y60400D01*
X72567Y60067D01*
X72267Y59833D01*
X72067Y59500D01*
X72000Y59200D01*
X73400D01*
G01X74733D02*
X74800Y59633D01*
X74900Y60000D01*
X75033Y60333D01*
X75200Y60700D01*
X75467Y61200D01*
X74133D01*
G01X59100Y42400D02*
X58833Y42433D01*
X58600Y42567D01*
X58400Y42767D01*
X58267Y43000D01*
X58200Y43267D01*
Y43533D01*
X58267Y43800D01*
X58400Y44033D01*
X58600Y44233D01*
X58833Y44367D01*
X59100Y44400D01*
X59367Y44367D01*
X59600Y44233D01*
X59800Y44033D01*
X59933Y43800D01*
X60000Y43533D01*
Y43267D01*
X59933Y43000D01*
X59800Y42767D01*
X59600Y42567D01*
X59367Y42433D01*
X59100Y42400D01*
G01X59367Y42933D02*
X59767Y42400D01*
G01X60567Y43233D02*
X60800Y43467D01*
X61000Y43600D01*
X61267Y43667D01*
X61500Y43600D01*
X61667Y43467D01*
X61800Y43267D01*
X61833Y43033D01*
X61800Y42833D01*
X61667Y42633D01*
X61467Y42467D01*
X61233Y42400D01*
X60967Y42467D01*
X60733Y42667D01*
X60600Y42967D01*
X60567Y43300D01*
X60633Y43733D01*
X60733Y43967D01*
X60900Y44200D01*
X61133Y44367D01*
X61367Y44400D01*
X61600Y44333D01*
X61767Y44167D01*
G01X53183Y67833D02*
X52983Y67933D01*
X52750Y68000D01*
X52483D01*
X52183Y67900D01*
X51950Y67733D01*
X51783Y67533D01*
X51650Y67200D01*
X51617Y66900D01*
X51683Y66600D01*
X51783Y66400D01*
X51983Y66200D01*
X52217Y66067D01*
X52450Y66000D01*
X52683D01*
X52917Y66067D01*
X53117Y66167D01*
X53283Y66300D01*
G01X54550Y66000D02*
Y68000D01*
X54150Y67600D01*
G01Y66000D02*
X54950D01*
G01X41283Y70000D02*
Y72000D01*
X42117D01*
X42383Y71900D01*
X42550Y71767D01*
X42617Y71500D01*
X42550Y71233D01*
X42350Y71067D01*
X42117Y70967D01*
X41283D01*
G01X42117D02*
X42617Y70000D01*
G01X44050D02*
Y72000D01*
X43650Y71600D01*
G01Y70000D02*
X44450D01*
G01X50733D02*
Y72000D01*
X51567D01*
X51833Y71900D01*
X52000Y71767D01*
X52067Y71500D01*
X52000Y71233D01*
X51800Y71067D01*
X51567Y70967D01*
X50733D01*
G01X51567D02*
X52067Y70000D01*
G01X52867Y70833D02*
X53100Y71067D01*
X53300Y71200D01*
X53567Y71267D01*
X53800Y71200D01*
X53967Y71067D01*
X54100Y70867D01*
X54133Y70633D01*
X54100Y70433D01*
X53967Y70233D01*
X53767Y70067D01*
X53533Y70000D01*
X53267Y70067D01*
X53033Y70267D01*
X52900Y70567D01*
X52867Y70900D01*
X52933Y71333D01*
X53033Y71567D01*
X53200Y71800D01*
X53433Y71967D01*
X53667Y72000D01*
X53900Y71933D01*
X54067Y71767D01*
G01X55600Y70000D02*
Y72000D01*
X55200Y71600D01*
G01Y70000D02*
X56000D01*
G01X61233Y71000D02*
Y73000D01*
X62067D01*
X62333Y72900D01*
X62500Y72767D01*
X62567Y72500D01*
X62500Y72233D01*
X62300Y72067D01*
X62067Y71967D01*
X61233D01*
G01X62067D02*
X62567Y71000D01*
G01X63367Y71833D02*
X63600Y72067D01*
X63800Y72200D01*
X64067Y72267D01*
X64300Y72200D01*
X64467Y72067D01*
X64600Y71867D01*
X64633Y71633D01*
X64600Y71433D01*
X64467Y71233D01*
X64267Y71067D01*
X64033Y71000D01*
X63767Y71067D01*
X63533Y71267D01*
X63400Y71567D01*
X63367Y71900D01*
X63433Y72333D01*
X63533Y72567D01*
X63700Y72800D01*
X63933Y72967D01*
X64167Y73000D01*
X64400Y72933D01*
X64567Y72767D01*
G01X65467Y72667D02*
X65667Y72867D01*
X65900Y72967D01*
X66167Y73000D01*
X66500Y72933D01*
X66733Y72767D01*
X66800Y72567D01*
X66767Y72367D01*
X66633Y72200D01*
X65967Y71867D01*
X65667Y71633D01*
X65467Y71300D01*
X65400Y71000D01*
X66800D01*
G01X52733Y90000D02*
Y92000D01*
X53567D01*
X53833Y91900D01*
X54000Y91767D01*
X54067Y91500D01*
X54000Y91233D01*
X53800Y91067D01*
X53567Y90967D01*
X52733D01*
G01X53567D02*
X54067Y90000D01*
G01X55500D02*
Y92000D01*
X55100Y91600D01*
G01Y90000D02*
X55900D01*
G01X56867Y90300D02*
X57067Y90133D01*
X57300Y90033D01*
X57600Y90000D01*
X57900Y90067D01*
X58133Y90200D01*
X58300Y90433D01*
X58333Y90700D01*
X58267Y90967D01*
X58100Y91133D01*
X57867Y91267D01*
X57633Y91300D01*
X57400Y91267D01*
X57100Y91133D01*
X57200Y92000D01*
X58100D01*
G01X54683Y117333D02*
X54483Y117433D01*
X54250Y117500D01*
X53983D01*
X53683Y117400D01*
X53450Y117233D01*
X53283Y117033D01*
X53150Y116700D01*
X53117Y116400D01*
X53183Y116100D01*
X53283Y115900D01*
X53483Y115700D01*
X53717Y115567D01*
X53950Y115500D01*
X54183D01*
X54417Y115567D01*
X54617Y115667D01*
X54783Y115800D01*
G01X55417Y117167D02*
X55617Y117367D01*
X55850Y117467D01*
X56117Y117500D01*
X56450Y117433D01*
X56683Y117267D01*
X56750Y117067D01*
X56717Y116867D01*
X56583Y116700D01*
X55917Y116367D01*
X55617Y116133D01*
X55417Y115800D01*
X55350Y115500D01*
X56750D01*
G01X49500Y107000D02*
X49233Y107033D01*
X49000Y107167D01*
X48800Y107367D01*
X48667Y107600D01*
X48600Y107867D01*
Y108133D01*
X48667Y108400D01*
X48800Y108633D01*
X49000Y108833D01*
X49233Y108967D01*
X49500Y109000D01*
X49767Y108967D01*
X50000Y108833D01*
X50200Y108633D01*
X50333Y108400D01*
X50400Y108133D01*
Y107867D01*
X50333Y107600D01*
X50200Y107367D01*
X50000Y107167D01*
X49767Y107033D01*
X49500Y107000D01*
G01X49767Y107533D02*
X50167Y107000D01*
G01X50867Y107400D02*
X51067Y107167D01*
X51333Y107033D01*
X51633Y107000D01*
X51900Y107033D01*
X52167Y107200D01*
X52333Y107400D01*
X52367Y107600D01*
X52300Y107833D01*
X52067Y108000D01*
X51833Y108067D01*
X51533D01*
G01X51833D02*
X52033Y108167D01*
X52200Y108333D01*
X52267Y108533D01*
X52200Y108733D01*
X52033Y108900D01*
X51733Y109000D01*
X51433Y108967D01*
X51133Y108833D01*
G01X51733Y124000D02*
Y126000D01*
X52567D01*
X52833Y125900D01*
X53000Y125767D01*
X53067Y125500D01*
X53000Y125233D01*
X52800Y125067D01*
X52567Y124967D01*
X51733D01*
G01X52567D02*
X53067Y124000D01*
G01X53767Y124400D02*
X53967Y124167D01*
X54233Y124033D01*
X54533Y124000D01*
X54800Y124033D01*
X55067Y124200D01*
X55233Y124400D01*
X55267Y124600D01*
X55200Y124833D01*
X54967Y125000D01*
X54733Y125067D01*
X54433D01*
G01X54733D02*
X54933Y125167D01*
X55100Y125333D01*
X55167Y125533D01*
X55100Y125733D01*
X54933Y125900D01*
X54633Y126000D01*
X54333Y125967D01*
X54033Y125833D01*
G01X55967Y125667D02*
X56167Y125867D01*
X56400Y125967D01*
X56667Y126000D01*
X57000Y125933D01*
X57233Y125767D01*
X57300Y125567D01*
X57267Y125367D01*
X57133Y125200D01*
X56467Y124867D01*
X56167Y124633D01*
X55967Y124300D01*
X55900Y124000D01*
X57300D01*
G01X41000Y142717D02*
X43000D01*
Y141883D01*
X42900Y141617D01*
X42767Y141450D01*
X42500Y141383D01*
X42233Y141450D01*
X42067Y141650D01*
X41967Y141883D01*
Y142717D01*
G01Y141883D02*
X41000Y141383D01*
G01Y139950D02*
X41033Y139717D01*
X41133Y139450D01*
X41300Y139283D01*
X41533Y139217D01*
X41767Y139283D01*
X41967Y139483D01*
X42067Y139783D01*
Y140117D01*
X42133Y140317D01*
X42300Y140483D01*
X42533Y140550D01*
X42767Y140450D01*
X42933Y140217D01*
X43000Y139950D01*
X42933Y139683D01*
X42767Y139450D01*
X42533Y139350D01*
X42300Y139417D01*
X42133Y139583D01*
X42067Y139783D01*
Y140117D01*
X41967Y140417D01*
X41767Y140617D01*
X41533Y140683D01*
X41300Y140617D01*
X41133Y140450D01*
X41033Y140183D01*
X41000Y139950D01*
G01X61000Y146717D02*
X63000D01*
Y145883D01*
X62900Y145617D01*
X62767Y145450D01*
X62500Y145383D01*
X62233Y145450D01*
X62067Y145650D01*
X61967Y145883D01*
Y146717D01*
G01Y145883D02*
X61000Y145383D01*
G01Y144017D02*
X61433Y143950D01*
X61800Y143850D01*
X62133Y143717D01*
X62500Y143550D01*
X63000Y143283D01*
Y144617D01*
G01X49767Y136000D02*
Y138000D01*
X50433D01*
X50700Y137900D01*
X50900Y137767D01*
X51067Y137567D01*
X51200Y137333D01*
X51233Y137000D01*
X51200Y136667D01*
X51067Y136433D01*
X50900Y136233D01*
X50700Y136100D01*
X50433Y136000D01*
X49767D01*
G01X52600D02*
Y138000D01*
X52200Y137600D01*
G01Y136000D02*
X53000D01*
G01X91700Y28000D02*
X92367D01*
Y27400D01*
X92167Y27200D01*
X91933Y27067D01*
X91600Y27000D01*
X91267Y27067D01*
X91033Y27200D01*
X90833Y27400D01*
X90700Y27633D01*
X90633Y27900D01*
Y28133D01*
X90700Y28333D01*
X90833Y28567D01*
X91033Y28767D01*
X91233Y28900D01*
X91500Y29000D01*
X91733D01*
X92000Y28933D01*
X92200Y28800D01*
G01X92833Y27000D02*
Y29000D01*
X94367Y27000D01*
Y29000D01*
G01X94967Y27000D02*
Y29000D01*
X95633D01*
X95900Y28900D01*
X96100Y28767D01*
X96267Y28567D01*
X96400Y28333D01*
X96433Y28000D01*
X96400Y27667D01*
X96267Y27433D01*
X96100Y27233D01*
X95900Y27100D01*
X95633Y27000D01*
X94967D01*
G01X94233Y35000D02*
Y37000D01*
X95067D01*
X95333Y36900D01*
X95500Y36767D01*
X95567Y36500D01*
X95500Y36233D01*
X95300Y36067D01*
X95067Y35967D01*
X94233D01*
G01X95067D02*
X95567Y35000D01*
G01X96267Y35400D02*
X96467Y35167D01*
X96733Y35033D01*
X97033Y35000D01*
X97300Y35033D01*
X97567Y35200D01*
X97733Y35400D01*
X97767Y35600D01*
X97700Y35833D01*
X97467Y36000D01*
X97233Y36067D01*
X96933D01*
G01X97233D02*
X97433Y36167D01*
X97600Y36333D01*
X97667Y36533D01*
X97600Y36733D01*
X97433Y36900D01*
X97133Y37000D01*
X96833Y36967D01*
X96533Y36833D01*
G01X99100Y37000D02*
X98833Y36933D01*
X98633Y36767D01*
X98500Y36567D01*
X98400Y36300D01*
X98367Y36000D01*
X98400Y35700D01*
X98500Y35433D01*
X98633Y35233D01*
X98833Y35067D01*
X99100Y35000D01*
X99367Y35067D01*
X99567Y35233D01*
X99700Y35433D01*
X99800Y35700D01*
X99833Y36000D01*
X99800Y36300D01*
X99700Y36567D01*
X99567Y36767D01*
X99367Y36933D01*
X99100Y37000D01*
G01X78900Y76400D02*
X78633Y76433D01*
X78400Y76567D01*
X78200Y76767D01*
X78067Y77000D01*
X78000Y77267D01*
Y77533D01*
X78067Y77800D01*
X78200Y78033D01*
X78400Y78233D01*
X78633Y78367D01*
X78900Y78400D01*
X79167Y78367D01*
X79400Y78233D01*
X79600Y78033D01*
X79733Y77800D01*
X79800Y77533D01*
Y77267D01*
X79733Y77000D01*
X79600Y76767D01*
X79400Y76567D01*
X79167Y76433D01*
X78900Y76400D01*
G01X79167Y76933D02*
X79567Y76400D01*
G01X81000D02*
X81233Y76433D01*
X81500Y76533D01*
X81667Y76700D01*
X81733Y76933D01*
X81667Y77167D01*
X81467Y77367D01*
X81167Y77467D01*
X80833D01*
X80633Y77533D01*
X80467Y77700D01*
X80400Y77933D01*
X80500Y78167D01*
X80733Y78333D01*
X81000Y78400D01*
X81267Y78333D01*
X81500Y78167D01*
X81600Y77933D01*
X81533Y77700D01*
X81367Y77533D01*
X81167Y77467D01*
X80833D01*
X80533Y77367D01*
X80333Y77167D01*
X80267Y76933D01*
X80333Y76700D01*
X80500Y76533D01*
X80767Y76433D01*
X81000Y76400D01*
G01X72233Y136000D02*
Y138000D01*
X73067D01*
X73333Y137900D01*
X73500Y137767D01*
X73567Y137500D01*
X73500Y137233D01*
X73300Y137067D01*
X73067Y136967D01*
X72233D01*
G01X73067D02*
X73567Y136000D01*
G01X74933D02*
X75000Y136433D01*
X75100Y136800D01*
X75233Y137133D01*
X75400Y137500D01*
X75667Y138000D01*
X74333D01*
G01X77100Y136000D02*
Y138000D01*
X76700Y137600D01*
G01Y136000D02*
X77500D01*
G01X86733Y135500D02*
Y137500D01*
X87567D01*
X87833Y137400D01*
X88000Y137267D01*
X88067Y137000D01*
X88000Y136733D01*
X87800Y136567D01*
X87567Y136467D01*
X86733D01*
G01X87567D02*
X88067Y135500D01*
G01X89433D02*
X89500Y135933D01*
X89600Y136300D01*
X89733Y136633D01*
X89900Y137000D01*
X90167Y137500D01*
X88833D01*
G01X90967Y137167D02*
X91167Y137367D01*
X91400Y137467D01*
X91667Y137500D01*
X92000Y137433D01*
X92233Y137267D01*
X92300Y137067D01*
X92267Y136867D01*
X92133Y136700D01*
X91467Y136367D01*
X91167Y136133D01*
X90967Y135800D01*
X90900Y135500D01*
X92300D01*
G01X95233D02*
Y137500D01*
X96067D01*
X96333Y137400D01*
X96500Y137267D01*
X96567Y137000D01*
X96500Y136733D01*
X96300Y136567D01*
X96067Y136467D01*
X95233D01*
G01X96067D02*
X96567Y135500D01*
G01X97933D02*
X98000Y135933D01*
X98100Y136300D01*
X98233Y136633D01*
X98400Y137000D01*
X98667Y137500D01*
X97333D01*
G01X99367Y135900D02*
X99567Y135667D01*
X99833Y135533D01*
X100133Y135500D01*
X100400Y135533D01*
X100667Y135700D01*
X100833Y135900D01*
X100867Y136100D01*
X100800Y136333D01*
X100567Y136500D01*
X100333Y136567D01*
X100033D01*
G01X100333D02*
X100533Y136667D01*
X100700Y136833D01*
X100767Y137033D01*
X100700Y137233D01*
X100533Y137400D01*
X100233Y137500D01*
X99933Y137467D01*
X99633Y137333D01*
G01X88683Y129833D02*
X88483Y129933D01*
X88250Y130000D01*
X87983D01*
X87683Y129900D01*
X87450Y129733D01*
X87283Y129533D01*
X87150Y129200D01*
X87117Y128900D01*
X87183Y128600D01*
X87283Y128400D01*
X87483Y128200D01*
X87717Y128067D01*
X87950Y128000D01*
X88183D01*
X88417Y128067D01*
X88617Y128167D01*
X88783Y128300D01*
G01X89317Y128400D02*
X89517Y128167D01*
X89783Y128033D01*
X90083Y128000D01*
X90350Y128033D01*
X90617Y128200D01*
X90783Y128400D01*
X90817Y128600D01*
X90750Y128833D01*
X90517Y129000D01*
X90283Y129067D01*
X89983D01*
G01X90283D02*
X90483Y129167D01*
X90650Y129333D01*
X90717Y129533D01*
X90650Y129733D01*
X90483Y129900D01*
X90183Y130000D01*
X89883Y129967D01*
X89583Y129833D01*
G01X109000Y27000D02*
X108733Y27033D01*
X108500Y27167D01*
X108300Y27367D01*
X108167Y27600D01*
X108100Y27867D01*
Y28133D01*
X108167Y28400D01*
X108300Y28633D01*
X108500Y28833D01*
X108733Y28967D01*
X109000Y29000D01*
X109267Y28967D01*
X109500Y28833D01*
X109700Y28633D01*
X109833Y28400D01*
X109900Y28133D01*
Y27867D01*
X109833Y27600D01*
X109700Y27367D01*
X109500Y27167D01*
X109267Y27033D01*
X109000Y27000D01*
G01X110367Y29000D02*
Y27567D01*
X110500Y27267D01*
X110767Y27067D01*
X111100Y27000D01*
X111433Y27067D01*
X111700Y27267D01*
X111833Y27567D01*
Y29000D01*
G01X113200D02*
Y27000D01*
G01X112433Y29000D02*
X113967D01*
G01X121533Y20100D02*
Y22100D01*
X122367D01*
X122633Y22000D01*
X122800Y21867D01*
X122867Y21600D01*
X122800Y21333D01*
X122600Y21167D01*
X122367Y21067D01*
X121533D01*
G01X122367D02*
X122867Y20100D01*
G01X123667Y21767D02*
X123867Y21967D01*
X124100Y22067D01*
X124367Y22100D01*
X124700Y22033D01*
X124933Y21867D01*
X125000Y21667D01*
X124967Y21467D01*
X124833Y21300D01*
X124167Y20967D01*
X123867Y20733D01*
X123667Y20400D01*
X123600Y20100D01*
X125000D01*
G01X125767Y20933D02*
X126000Y21167D01*
X126200Y21300D01*
X126467Y21367D01*
X126700Y21300D01*
X126867Y21167D01*
X127000Y20967D01*
X127033Y20733D01*
X127000Y20533D01*
X126867Y20333D01*
X126667Y20167D01*
X126433Y20100D01*
X126167Y20167D01*
X125933Y20367D01*
X125800Y20667D01*
X125767Y21000D01*
X125833Y21433D01*
X125933Y21667D01*
X126100Y21900D01*
X126333Y22067D01*
X126567Y22100D01*
X126800Y22033D01*
X126967Y21867D01*
G01X118800Y29000D02*
X118767Y28733D01*
X118633Y28500D01*
X118433Y28300D01*
X118200Y28167D01*
X117933Y28100D01*
X117667D01*
X117400Y28167D01*
X117167Y28300D01*
X116967Y28500D01*
X116833Y28733D01*
X116800Y29000D01*
X116833Y29267D01*
X116967Y29500D01*
X117167Y29700D01*
X117400Y29833D01*
X117667Y29900D01*
X117933D01*
X118200Y29833D01*
X118433Y29700D01*
X118633Y29500D01*
X118767Y29267D01*
X118800Y29000D01*
G01X118267Y29267D02*
X118800Y29667D01*
G01X118500Y30367D02*
X118667Y30567D01*
X118767Y30800D01*
X118800Y31100D01*
X118733Y31400D01*
X118600Y31633D01*
X118367Y31800D01*
X118100Y31833D01*
X117833Y31767D01*
X117667Y31600D01*
X117533Y31367D01*
X117500Y31133D01*
X117533Y30900D01*
X117667Y30600D01*
X116800Y30700D01*
Y31600D01*
G01X104483Y102833D02*
X104283Y102933D01*
X104050Y103000D01*
X103783D01*
X103483Y102900D01*
X103250Y102733D01*
X103083Y102533D01*
X102950Y102200D01*
X102917Y101900D01*
X102983Y101600D01*
X103083Y101400D01*
X103283Y101200D01*
X103517Y101067D01*
X103750Y101000D01*
X103983D01*
X104217Y101067D01*
X104417Y101167D01*
X104583Y101300D01*
G01X106250Y101000D02*
Y103000D01*
X105017Y101567D01*
X106683D01*
G01X101917Y117000D02*
Y119000D01*
X102583D01*
X102850Y118900D01*
X103050Y118767D01*
X103217Y118567D01*
X103350Y118333D01*
X103383Y118000D01*
X103350Y117667D01*
X103217Y117433D01*
X103050Y117233D01*
X102850Y117100D01*
X102583Y117000D01*
X101917D01*
G01X104117Y118667D02*
X104317Y118867D01*
X104550Y118967D01*
X104817Y119000D01*
X105150Y118933D01*
X105383Y118767D01*
X105450Y118567D01*
X105417Y118367D01*
X105283Y118200D01*
X104617Y117867D01*
X104317Y117633D01*
X104117Y117300D01*
X104050Y117000D01*
X105450D01*
G01X112333Y100000D02*
Y102000D01*
X113167D01*
X113433Y101900D01*
X113600Y101767D01*
X113667Y101500D01*
X113600Y101233D01*
X113400Y101067D01*
X113167Y100967D01*
X112333D01*
G01X113167D02*
X113667Y100000D01*
G01X115100D02*
Y102000D01*
X114700Y101600D01*
G01Y100000D02*
X115500D01*
G01X117600D02*
Y102000D01*
X116367Y100567D01*
X118033D01*
G01X123633Y132667D02*
X124433D01*
G01X124000Y133100D02*
Y132233D01*
G01X125467Y133667D02*
X125667Y133867D01*
X125900Y133967D01*
X126167Y134000D01*
X126500Y133933D01*
X126733Y133767D01*
X126800Y133567D01*
X126767Y133367D01*
X126633Y133200D01*
X125967Y132867D01*
X125667Y132633D01*
X125467Y132300D01*
X125400Y132000D01*
X126800D01*
G01X128133D02*
X128200Y132433D01*
X128300Y132800D01*
X128433Y133133D01*
X128600Y133500D01*
X128867Y134000D01*
X127533D01*
G01X129467D02*
X130300Y132000D01*
X131133Y134000D01*
G01X106567Y132667D02*
X107433D01*
G01X108467Y133667D02*
X108667Y133867D01*
X108900Y133967D01*
X109167Y134000D01*
X109500Y133933D01*
X109733Y133767D01*
X109800Y133567D01*
X109767Y133367D01*
X109633Y133200D01*
X108967Y132867D01*
X108667Y132633D01*
X108467Y132300D01*
X108400Y132000D01*
X109800D01*
G01X111133D02*
X111200Y132433D01*
X111300Y132800D01*
X111433Y133133D01*
X111600Y133500D01*
X111867Y134000D01*
X110533D01*
G01X112467D02*
X113300Y132000D01*
X114133Y134000D01*
G01X140800Y20217D02*
X142800D01*
Y19383D01*
X142700Y19117D01*
X142567Y18950D01*
X142300Y18883D01*
X142033Y18950D01*
X141867Y19150D01*
X141767Y19383D01*
Y20217D01*
G01Y19383D02*
X140800Y18883D01*
G01X142467Y18083D02*
X142667Y17883D01*
X142767Y17650D01*
X142800Y17383D01*
X142733Y17050D01*
X142567Y16817D01*
X142367Y16750D01*
X142167Y16783D01*
X142000Y16917D01*
X141667Y17583D01*
X141433Y17883D01*
X141100Y18083D01*
X140800Y18150D01*
Y16750D01*
G01Y15350D02*
X140833Y15117D01*
X140933Y14850D01*
X141100Y14683D01*
X141333Y14617D01*
X141567Y14683D01*
X141767Y14883D01*
X141867Y15183D01*
Y15517D01*
X141933Y15717D01*
X142100Y15883D01*
X142333Y15950D01*
X142567Y15850D01*
X142733Y15617D01*
X142800Y15350D01*
X142733Y15083D01*
X142567Y14850D01*
X142333Y14750D01*
X142100Y14817D01*
X141933Y14983D01*
X141867Y15183D01*
Y15517D01*
X141767Y15817D01*
X141567Y16017D01*
X141333Y16083D01*
X141100Y16017D01*
X140933Y15850D01*
X140833Y15583D01*
X140800Y15350D01*
G01Y13250D02*
X142800D01*
X142400Y13650D01*
G01X140800D02*
Y12850D01*
G01X142983Y42100D02*
Y44100D01*
X143817D01*
X144083Y44000D01*
X144250Y43867D01*
X144317Y43600D01*
X144250Y43333D01*
X144050Y43167D01*
X143817Y43067D01*
X142983D01*
G01X143817D02*
X144317Y42100D01*
G01X145117Y43767D02*
X145317Y43967D01*
X145550Y44067D01*
X145817Y44100D01*
X146150Y44033D01*
X146383Y43867D01*
X146450Y43667D01*
X146417Y43467D01*
X146283Y43300D01*
X145617Y42967D01*
X145317Y42733D01*
X145117Y42400D01*
X145050Y42100D01*
X146450D01*
G01X147850D02*
X148083Y42133D01*
X148350Y42233D01*
X148517Y42400D01*
X148583Y42633D01*
X148517Y42867D01*
X148317Y43067D01*
X148017Y43167D01*
X147683D01*
X147483Y43233D01*
X147317Y43400D01*
X147250Y43633D01*
X147350Y43867D01*
X147583Y44033D01*
X147850Y44100D01*
X148117Y44033D01*
X148350Y43867D01*
X148450Y43633D01*
X148383Y43400D01*
X148217Y43233D01*
X148017Y43167D01*
X147683D01*
X147383Y43067D01*
X147183Y42867D01*
X147117Y42633D01*
X147183Y42400D01*
X147350Y42233D01*
X147617Y42133D01*
X147850Y42100D01*
G01X149317Y43767D02*
X149517Y43967D01*
X149750Y44067D01*
X150017Y44100D01*
X150350Y44033D01*
X150583Y43867D01*
X150650Y43667D01*
X150617Y43467D01*
X150483Y43300D01*
X149817Y42967D01*
X149517Y42733D01*
X149317Y42400D01*
X149250Y42100D01*
X150650D01*
G01X142700Y77400D02*
X142433Y77433D01*
X142200Y77567D01*
X142000Y77767D01*
X141867Y78000D01*
X141800Y78267D01*
Y78533D01*
X141867Y78800D01*
X142000Y79033D01*
X142200Y79233D01*
X142433Y79367D01*
X142700Y79400D01*
X142967Y79367D01*
X143200Y79233D01*
X143400Y79033D01*
X143533Y78800D01*
X143600Y78533D01*
Y78267D01*
X143533Y78000D01*
X143400Y77767D01*
X143200Y77567D01*
X142967Y77433D01*
X142700Y77400D01*
G01X142967Y77933D02*
X143367Y77400D01*
G01X144733D02*
X144800Y77833D01*
X144900Y78200D01*
X145033Y78533D01*
X145200Y78900D01*
X145467Y79400D01*
X144133D01*
G01X135500Y113500D02*
X135233Y113533D01*
X135000Y113667D01*
X134800Y113867D01*
X134667Y114100D01*
X134600Y114367D01*
Y114633D01*
X134667Y114900D01*
X134800Y115133D01*
X135000Y115333D01*
X135233Y115467D01*
X135500Y115500D01*
X135767Y115467D01*
X136000Y115333D01*
X136200Y115133D01*
X136333Y114900D01*
X136400Y114633D01*
Y114367D01*
X136333Y114100D01*
X136200Y113867D01*
X136000Y113667D01*
X135767Y113533D01*
X135500Y113500D01*
G01X135767Y114033D02*
X136167Y113500D01*
G01X138000D02*
Y115500D01*
X136767Y114067D01*
X138433D01*
G01X138233Y145000D02*
Y147000D01*
X139067D01*
X139333Y146900D01*
X139500Y146767D01*
X139567Y146500D01*
X139500Y146233D01*
X139300Y146067D01*
X139067Y145967D01*
X138233D01*
G01X139067D02*
X139567Y145000D01*
G01X141000D02*
Y147000D01*
X140600Y146600D01*
G01Y145000D02*
X141400D01*
G01X142467Y146667D02*
X142667Y146867D01*
X142900Y146967D01*
X143167Y147000D01*
X143500Y146933D01*
X143733Y146767D01*
X143800Y146567D01*
X143767Y146367D01*
X143633Y146200D01*
X142967Y145867D01*
X142667Y145633D01*
X142467Y145300D01*
X142400Y145000D01*
X143800D01*
G01X145233Y121500D02*
Y123500D01*
X146067D01*
X146333Y123400D01*
X146500Y123267D01*
X146567Y123000D01*
X146500Y122733D01*
X146300Y122567D01*
X146067Y122467D01*
X145233D01*
G01X146067D02*
X146567Y121500D01*
G01X148000D02*
Y123500D01*
X147600Y123100D01*
G01Y121500D02*
X148400D01*
G01X149367Y121900D02*
X149567Y121667D01*
X149833Y121533D01*
X150133Y121500D01*
X150400Y121533D01*
X150667Y121700D01*
X150833Y121900D01*
X150867Y122100D01*
X150800Y122333D01*
X150567Y122500D01*
X150333Y122567D01*
X150033D01*
G01X150333D02*
X150533Y122667D01*
X150700Y122833D01*
X150767Y123033D01*
X150700Y123233D01*
X150533Y123400D01*
X150233Y123500D01*
X149933Y123467D01*
X149633Y123333D01*
G54D12*
G01X8700Y83900D02*
Y77400D01*
X25700D01*
Y78900D01*
Y83900D01*
G01X9900Y108200D02*
Y111740D01*
G01X13340Y108200D02*
X9900D01*
G01X25500Y96000D02*
Y102500D01*
X8500D01*
Y101000D01*
Y96000D01*
G01X21900Y111740D02*
Y108200D01*
G01X14360Y113800D02*
X17440D01*
G01X21900Y108200D02*
X18460D01*
G01X37260Y104900D02*
X40800D01*
G01X35200Y97360D02*
Y100440D01*
G01X40800Y92900D02*
X37260D01*
G01X40000Y119935D02*
Y124265D01*
G01X37000Y109835D02*
Y114165D01*
G01X59100Y40800D02*
Y35200D01*
G01X63310D02*
X66890D01*
G01X71100D02*
Y40800D01*
X67410D01*
G01X62790D02*
X59100D01*
G01X45365Y79100D02*
X41035D01*
G01X45000Y64835D02*
Y69165D01*
G01X55165Y79100D02*
X50835D01*
G01X61835Y80100D02*
X66165D01*
G01X55260Y113900D02*
X58800D01*
G01X53200Y106360D02*
Y109440D01*
G01X58800Y101900D02*
X55260D01*
G01X58800Y113900D02*
Y110460D01*
G01Y105340D02*
Y101900D01*
G01X40800Y104900D02*
Y101460D01*
G01Y96340D02*
Y92900D01*
G01X55000Y117835D02*
Y122165D01*
G01X55900Y93735D02*
Y98065D01*
G01X53800Y146640D02*
Y143560D01*
G01X48200Y147660D02*
Y151100D01*
G01Y139598D02*
Y142540D01*
G01X51740Y139100D02*
X48776D01*
G01X55000Y127735D02*
Y132065D01*
G01X48200Y151100D02*
X51740D01*
G01X95400Y26300D02*
X88900D01*
Y9300D01*
X90400D01*
X95400D01*
G01X79000Y11635D02*
Y15965D01*
G01Y22835D02*
Y27165D01*
G01X86700Y30935D02*
Y35265D01*
G01X74965Y52400D02*
X70635D01*
G01X100736Y60600D02*
X92146D01*
G01X83100Y67528D02*
Y85700D01*
G01X71500Y146535D02*
Y150865D01*
G01X93500Y146835D02*
Y151165D01*
G01X71400Y138935D02*
Y143265D01*
G01X93500Y138835D02*
Y143165D01*
G01X122800Y14035D02*
Y18365D01*
G01X108100Y9200D02*
X114600D01*
Y26200D01*
X113100D01*
X108100D01*
G01X120300Y35400D02*
Y29800D01*
X123990D01*
G01X128610D02*
X132300D01*
G01X128090Y35400D02*
X124510D01*
G01X131336Y60800D02*
X122746D01*
G01X113700Y67528D02*
Y85700D01*
G01X110000D02*
Y67528D01*
G01X102735Y110000D02*
X107065D01*
G01X124900Y134400D02*
X131400D01*
Y151400D01*
X129900D01*
X124900D01*
G01X113300Y151500D02*
X106800D01*
Y134500D01*
X108300D01*
X113300D01*
G01X101635Y126100D02*
X105965D01*
G01X138865Y14700D02*
X134535D01*
G01X132300Y29800D02*
Y35400D01*
G01X149165Y33100D02*
X144835D01*
G01X140500Y85800D02*
Y67628D01*
G01X139100Y113260D02*
Y116800D01*
G01X146640Y111200D02*
X143560D01*
G01X151100Y116800D02*
Y113260D01*
G01X139100Y116800D02*
X142540D01*
G01X147660D02*
X151100D01*
G01X145835Y145000D02*
X150165D01*
G01X145835Y130000D02*
X150165D01*
G54D13*
G01X77177Y95087D02*
G03I-492J0D01*
G54D14*
G01X13961Y146965D02*
X9630D01*
Y127280D01*
X10811D01*
G01X24984Y146965D02*
X29315D01*
Y127280D01*
X28134D01*
G01X20457D02*
X18488D01*
G01X25378Y137122D02*
G03X19472Y143028I-5906J0D01*
G01D02*
G03X13567Y136925I1J-5909D01*
G01D02*
G03X19472Y131217I5899J194D01*
G01D02*
G03X25378Y137122I1J5905D01*
G01X19472Y141650D02*
Y132594D01*
G01X24000Y137122D02*
X15142D01*
G01X77276Y125992D02*
X69008D01*
Y106504D01*
X75504Y100008D01*
X77276D01*
G01X86724Y125992D02*
X94992D01*
Y106504D01*
X88496Y100008D01*
X86724D01*
G01X117016Y103035D02*
X112685D01*
Y122720D01*
X113866D01*
G01X128039Y103035D02*
X132370D01*
Y122720D01*
X131189D01*
G01X116622Y112878D02*
G03X122528Y106972I5906J0D01*
G01D02*
G03X128433Y113075I-1J5909D01*
G01D02*
G03X122528Y118783I-5899J-194D01*
G01D02*
G03X116622Y112878I-1J-5905D01*
G01X122528Y108350D02*
Y117406D01*
G01X118000Y112878D02*
X126858D01*
G01X121543Y122720D02*
X123512D01*
M02*
