G04 ================== begin FILE IDENTIFICATION RECORD ==================*
G04 Layout Name:  PROIECT-PCB-V4.brd*
G04 Film Name:    TOP*
G04 File Format:  Gerber RS274X*
G04 File Origin:  Cadence Allegro 17.2-S025*
G04 Origin Date:  Sun Jan 22 19:45:35 2023*
G04 *
G04 Layer:  ETCH/TOP*
G04 Layer:  PIN/TOP*
G04 Layer:  VIA CLASS/TOP*
G04 *
G04 Offset:    (0.00 0.00)*
G04 Mirror:    No*
G04 Mode:      Positive*
G04 Rotation:  0*
G04 FullContactRelief:  No*
G04 UndefLineWidth:     10.00*
G04 ================== end FILE IDENTIFICATION RECORD ====================*
%FSLAX25Y25*MOIN*%
%IR0*IPPOS*OFA0.00000B0.00000*MIA0B0*SFA1.00000B1.00000*%
%ADD12R,.1X.06*%
%ADD20R,.06X.1*%
%ADD21R,.07X.23*%
%ADD11C,.04*%
%ADD15C,.024*%
%ADD25C,.03937*%
%ADD18R,.05118X.05118*%
%ADD23R,.06496X.13583*%
%ADD22R,.235X.24*%
%ADD10R,.036X.05*%
%ADD17R,.05X.036*%
%ADD24R,.0374X.04331*%
%ADD13R,.04331X.0374*%
%ADD16R,.0374X.05709*%
%ADD14R,.05709X.0374*%
%ADD19R,.07874X.05118*%
%ADD26C,.022*%
%ADD27C,.025*%
%ADD28C,.018*%
%ADD29C,.028*%
G75*
%LPD*%
G75*
G54D10*
X11800Y115000D03*
X15900Y106900D03*
X20000Y115000D03*
X65100Y42100D03*
X61000Y34000D03*
X69200D03*
X126300Y28500D03*
X130400Y36600D03*
X122200D03*
X145100Y118100D03*
X141000Y110000D03*
X149200D03*
G54D11*
X20000Y20000D03*
X140000Y140000D03*
G54D20*
X95500Y18000D03*
X108500D03*
X112500Y143000D03*
X125500D03*
G54D21*
X87386Y53868D03*
X117986D03*
X105495D03*
X136095D03*
G54D12*
X17000Y83500D03*
Y96500D03*
G54D13*
X41457Y67000D03*
X48543D03*
X58543Y120000D03*
X51457D03*
G54D22*
X96580Y80270D03*
X127180D03*
G54D14*
X43000Y82937D03*
Y75063D03*
X37000Y148937D03*
Y141063D03*
X72700Y56137D03*
Y48263D03*
X53000Y75063D03*
Y82937D03*
X64000Y83937D03*
Y76063D03*
X67000Y148937D03*
Y141063D03*
X76000Y148937D03*
Y141063D03*
X89000Y148937D03*
Y141063D03*
X98000Y140963D03*
Y148837D03*
X104000Y122063D03*
Y129937D03*
X136800Y10963D03*
Y18837D03*
X147000Y29063D03*
Y36937D03*
X148000Y141063D03*
Y148937D03*
Y126063D03*
Y133937D03*
G54D23*
X82000Y125205D03*
Y100795D03*
G54D24*
X105000Y106457D03*
Y113543D03*
G54D15*
X37500Y83000D03*
X25500Y92000D03*
X31500Y90000D03*
X28500Y103000D03*
X29000Y117500D03*
X21500Y105000D03*
X19000Y121000D03*
X70000Y26000D03*
X61000Y56000D03*
X66000Y89000D03*
X64500Y117000D03*
X47000Y94500D03*
X45500Y138000D03*
X70000Y135500D03*
X61000Y141000D03*
X98500Y26500D03*
X77500Y33500D03*
X79463Y56037D03*
X98963D03*
X99795Y100795D03*
X98063Y122063D03*
X80000Y136000D03*
X83000Y146000D03*
X104500Y26000D03*
X124000Y24500D03*
X127723Y47000D03*
X111000Y96000D03*
X121500Y135500D03*
X104000Y144000D03*
X136000Y120000D03*
X135000Y97000D03*
X136000Y110000D03*
X139500Y132000D03*
G54D16*
X33063Y112000D03*
X40937D03*
X36063Y122000D03*
Y132000D03*
X43937Y122000D03*
X52063Y96000D03*
X59937D03*
X43937Y132000D03*
X58937Y130000D03*
X51063D03*
X75063Y14000D03*
X82937D03*
X75063Y25000D03*
X82937D03*
X90737Y33300D03*
X82863D03*
X126737Y16100D03*
X118863D03*
G54D25*
X147000Y16000D03*
X148000Y95000D03*
G54D26*
G01X65100Y42100D02*
X68637D01*
X72700Y46163D01*
Y48263D01*
G01X59937Y96000D02*
Y100455D01*
X56592Y103800D01*
X52000D01*
G01X72700Y48263D02*
X77155D01*
X77255Y48163D01*
X81681D01*
X87386Y53868D01*
G54D17*
X42100Y98900D03*
X34000Y103000D03*
Y94800D03*
X60100Y107900D03*
X52000Y112000D03*
Y103800D03*
X46900Y145100D03*
X55000Y141000D03*
Y149200D03*
G54D27*
G01X46900Y145100D02*
X46200D01*
X42363Y148937D01*
X37000D01*
G01X70000Y26000D02*
X74063D01*
X75063Y25000D01*
G01X70000Y26000D02*
Y17000D01*
X73000Y14000D01*
X75063D01*
G01X69200Y34000D02*
Y29750D01*
X70000Y28950D01*
Y26000D01*
G01X96580Y80270D02*
Y66520D01*
X95113Y65053D01*
Y41500D01*
X92613Y39000D01*
X77555D01*
X72555Y34000D01*
X69200D01*
G01X61000D02*
Y38250D01*
X56500Y42750D01*
Y56945D01*
X59405Y59850D01*
X67500D01*
X70000Y62350D01*
Y110403D01*
G01X105000Y106457D02*
X101380D01*
X97434Y110403D01*
X70000D01*
G01D02*
X66853D01*
X64350Y107900D01*
X60100D01*
G01X43937Y122000D02*
X49457D01*
X51457Y120000D01*
G01X80000Y136000D02*
X76500D01*
X70500Y130000D01*
X58937D01*
G01X70000Y135500D02*
Y139500D01*
X68437Y141063D01*
X67000D01*
G01X45500Y138000D02*
Y143700D01*
X46900Y145100D01*
G01X82937Y25000D02*
Y14000D01*
G01Y25000D02*
Y33226D01*
X82863Y33300D01*
G01X136800Y10963D02*
X136187Y10350D01*
X85602D01*
X82937Y13015D01*
Y14000D01*
G01X90737Y33300D02*
X101700D01*
X104500Y30500D01*
Y26000D01*
G01X82863Y33300D02*
X77700D01*
X77500Y33500D01*
G01X82000Y100795D02*
X84795Y98000D01*
X97000D01*
X99795Y100795D01*
G01X82000Y125205D02*
Y134000D01*
X80000Y136000D01*
G01X87000Y148937D02*
X89000D01*
G01X98000Y148837D02*
X89100D01*
X89000Y148937D01*
G01X104000Y129937D02*
Y138413D01*
X101450Y140963D01*
X98000D01*
G01X76000Y141063D02*
X89000D01*
G01X104500Y26000D02*
Y22000D01*
X108500Y18000D01*
G01X126737Y16100D02*
X134063D01*
X136800Y18837D01*
G01X118863Y16100D02*
Y20705D01*
X116500Y23068D01*
Y36500D01*
G01X130400Y36600D02*
X127723Y39277D01*
Y47000D01*
G01X116500Y36500D02*
Y39132D01*
X117986Y40618D01*
Y53868D01*
G01X122200Y36600D02*
X116600D01*
X116500Y36500D01*
G01X105000Y106457D02*
X107500D01*
X110000Y108957D01*
Y122000D01*
X112000Y124000D01*
X118000D01*
G01D02*
Y110000D01*
X120950Y107050D01*
X125950D01*
X126035Y106965D01*
X127563D01*
X129878Y104650D01*
X146650D01*
X149250Y107250D01*
Y109950D01*
X149200Y110000D01*
G01X135000Y124000D02*
X127055D01*
G01X147000Y29063D02*
Y16000D01*
G01X136800Y10963D02*
X141405D01*
X141442Y11000D01*
X142000D01*
X147000Y16000D01*
G01X136800Y18837D02*
X136500Y19137D01*
Y36500D01*
X136063Y36937D01*
G01X147000D02*
X136063D01*
G01D02*
X136000Y37000D01*
Y40523D01*
X136095Y40618D01*
Y53868D01*
G01X142500Y126063D02*
Y122000D01*
X145100Y119400D01*
Y118100D01*
G01X136000Y120000D02*
Y123000D01*
X135000Y124000D01*
G01X148000Y133937D02*
Y141063D01*
G01Y133937D02*
X141437D01*
X139500Y132000D01*
G01X148000Y126063D02*
X142500D01*
G01D02*
X137063D01*
X135000Y124000D01*
G54D18*
X14945Y126000D03*
X24000D03*
X127055Y124000D03*
X118000D03*
G54D28*
G01X41457Y67000D02*
X37891D01*
X37000Y67891D01*
Y78500D01*
X29000Y86500D01*
X28550D01*
X27050Y88000D01*
X21500D01*
X17000Y83500D01*
G01X37500Y83000D02*
X42937D01*
X43000Y82937D01*
G01X31500Y90000D02*
X33000D01*
X34000Y91000D01*
Y94800D01*
G01X28500Y103000D02*
X34000D01*
G01X36063Y122000D02*
X28717D01*
X20000Y115700D01*
Y115000D01*
G01X42100Y98900D02*
Y106582D01*
X40937Y107745D01*
Y112000D01*
G01X14945Y126000D02*
Y118845D01*
X11800Y115700D01*
Y115000D01*
G01X24000Y126000D02*
X19000Y121000D01*
G01X19472Y148244D02*
Y142863D01*
X21272Y141063D01*
X37000D01*
G01X36063Y132000D02*
Y122000D01*
G01X43000Y75063D02*
X43985D01*
X48543Y70505D01*
Y67000D01*
G01X53000Y82937D02*
X43000D01*
G01X53000Y75063D02*
X58745D01*
X59745Y76063D01*
X64000D01*
G01X52000Y112000D02*
X40937D01*
G01X52000D02*
X64450D01*
X68450Y116000D01*
X99273D01*
X101730Y113543D01*
X105000D01*
G01X51063Y130000D02*
X45937D01*
X43937Y132000D01*
G01X122528Y101756D02*
Y97797D01*
X123325Y97000D01*
X135000D01*
G01X136000Y110000D02*
X141000D01*
G01X148000Y95000D02*
X137000D01*
X135000Y97000D01*
G54D19*
X19472Y148244D03*
X122528Y101756D03*
G54D29*
G01X25500Y92000D02*
X21500D01*
X17000Y96500D01*
G01X33000Y111937D02*
X33063Y112000D01*
G01X29000Y117500D02*
X29500D01*
X33063Y113937D01*
Y112000D01*
G01X21500Y105000D02*
X17000D01*
X15900Y106100D01*
Y106900D01*
G01X61000Y56000D02*
X72563D01*
X72700Y56137D01*
G01X66000Y89000D02*
Y85937D01*
X64000Y83937D01*
G01X58543Y120000D02*
X61500D01*
X64500Y117000D01*
G01X47000Y94500D02*
X50563D01*
X52063Y96000D01*
G01X55000Y141000D02*
X61000D01*
G01X76000Y148937D02*
X67000D01*
G01X95500Y18000D02*
Y23500D01*
X98500Y26500D01*
G01X79463Y56037D02*
X72800D01*
X72700Y56137D01*
G01X98963Y56037D02*
X103326D01*
X105495Y53868D01*
G01X104000Y122063D02*
X98063D01*
G01X83000Y146000D02*
X79922D01*
X76985Y148937D01*
X76000D01*
G01X126300Y28500D02*
Y26800D01*
X124000Y24500D01*
G01X127180Y80270D02*
X114500Y95000D01*
X113500Y96000D01*
X111000D01*
G01X148000Y148937D02*
X131437D01*
X125500Y143000D01*
G01X121500Y135500D02*
X125500Y139500D01*
Y143000D01*
G01X104000Y144000D02*
X105000Y143000D01*
X112500D01*
M02*
